G75*
%MOIN*%
%OFA0B0*%
%FSLAX24Y24*%
%IPPOS*%
%LPD*%
%AMOC8*
5,1,8,0,0,1.08239X$1,22.5*
%
%ADD10C,0.0000*%
%ADD11C,0.0060*%
%ADD12C,0.0030*%
%ADD13C,0.0080*%
%ADD14C,0.0010*%
%ADD15R,0.0300X0.0180*%
%ADD16C,0.0220*%
%ADD17C,0.0100*%
%ADD18C,0.0040*%
%ADD19C,0.0050*%
D10*
X000680Y000705D02*
X039680Y000705D01*
X039680Y026705D01*
X000680Y026705D01*
X000680Y026701D02*
X000680Y000705D01*
D11*
X002210Y001449D02*
X002424Y001235D01*
X002637Y001449D01*
X002637Y001876D01*
X002855Y001769D02*
X002961Y001876D01*
X003175Y001876D01*
X003282Y001769D01*
X003282Y001662D01*
X002855Y001235D01*
X003282Y001235D01*
X002210Y001449D02*
X002210Y001876D01*
X006210Y001876D02*
X006210Y001449D01*
X006424Y001235D01*
X006637Y001449D01*
X006637Y001876D01*
X006855Y001662D02*
X007068Y001876D01*
X007068Y001235D01*
X006855Y001235D02*
X007282Y001235D01*
X010210Y001449D02*
X010424Y001235D01*
X010637Y001449D01*
X010637Y001876D01*
X010855Y001555D02*
X011282Y001555D01*
X010210Y001449D02*
X010210Y001876D01*
X014210Y001769D02*
X014210Y001342D01*
X014317Y001235D01*
X014530Y001235D01*
X014637Y001342D01*
X014637Y001555D01*
X014424Y001555D01*
X014637Y001769D02*
X014530Y001876D01*
X014317Y001876D01*
X014210Y001769D01*
X014855Y001876D02*
X015282Y001235D01*
X015282Y001876D01*
X015499Y001876D02*
X015819Y001876D01*
X015926Y001769D01*
X015926Y001342D01*
X015819Y001235D01*
X015499Y001235D01*
X015499Y001876D01*
X014855Y001876D02*
X014855Y001235D01*
X018210Y001449D02*
X018424Y001235D01*
X018637Y001449D01*
X018637Y001876D01*
X018855Y001555D02*
X019282Y001555D01*
X019068Y001342D02*
X019068Y001769D01*
X018210Y001876D02*
X018210Y001449D01*
X021210Y001555D02*
X021424Y001555D01*
X021210Y001876D02*
X021637Y001876D01*
X021855Y001769D02*
X021961Y001876D01*
X022175Y001876D01*
X022282Y001769D01*
X022282Y001662D01*
X021855Y001235D01*
X022282Y001235D01*
X021210Y001235D02*
X021210Y001876D01*
X024710Y001662D02*
X024710Y001235D01*
X024710Y001555D02*
X025137Y001555D01*
X025137Y001662D02*
X024924Y001876D01*
X024710Y001662D01*
X025137Y001662D02*
X025137Y001235D01*
X025355Y001235D02*
X025782Y001235D01*
X025568Y001235D02*
X025568Y001876D01*
X025355Y001662D01*
X028210Y001449D02*
X028530Y001449D01*
X028637Y001555D01*
X028637Y001769D01*
X028530Y001876D01*
X028210Y001876D01*
X028210Y001235D01*
X028855Y001235D02*
X029282Y001235D01*
X029068Y001235D02*
X029068Y001876D01*
X028855Y001662D01*
X031710Y001555D02*
X031924Y001555D01*
X031710Y001876D02*
X032137Y001876D01*
X032355Y001662D02*
X032568Y001876D01*
X032568Y001235D01*
X032355Y001235D02*
X032782Y001235D01*
X031710Y001235D02*
X031710Y001876D01*
X030770Y013315D02*
X030770Y013715D01*
X029460Y014695D02*
X029460Y015715D01*
X032900Y015715D02*
X032900Y015325D01*
X032900Y015085D01*
X032900Y014695D01*
X032900Y015085D02*
X032879Y015087D01*
X032859Y015092D01*
X032840Y015101D01*
X032823Y015113D01*
X032808Y015128D01*
X032796Y015145D01*
X032787Y015164D01*
X032782Y015184D01*
X032780Y015205D01*
X032782Y015226D01*
X032787Y015246D01*
X032796Y015265D01*
X032808Y015282D01*
X032823Y015297D01*
X032840Y015309D01*
X032859Y015318D01*
X032879Y015323D01*
X032900Y015325D01*
X021900Y015325D02*
X021900Y015715D01*
X021900Y015325D02*
X021900Y015085D01*
X021900Y014695D01*
X021900Y015085D02*
X021879Y015087D01*
X021859Y015092D01*
X021840Y015101D01*
X021823Y015113D01*
X021808Y015128D01*
X021796Y015145D01*
X021787Y015164D01*
X021782Y015184D01*
X021780Y015205D01*
X021782Y015226D01*
X021787Y015246D01*
X021796Y015265D01*
X021808Y015282D01*
X021823Y015297D01*
X021840Y015309D01*
X021859Y015318D01*
X021879Y015323D01*
X021900Y015325D01*
X019770Y013715D02*
X019770Y013315D01*
X018460Y014695D02*
X018460Y015715D01*
X011900Y015715D02*
X011900Y015325D01*
X011900Y015085D01*
X011900Y014695D01*
X011900Y015085D02*
X011879Y015087D01*
X011859Y015092D01*
X011840Y015101D01*
X011823Y015113D01*
X011808Y015128D01*
X011796Y015145D01*
X011787Y015164D01*
X011782Y015184D01*
X011780Y015205D01*
X011782Y015226D01*
X011787Y015246D01*
X011796Y015265D01*
X011808Y015282D01*
X011823Y015297D01*
X011840Y015309D01*
X011859Y015318D01*
X011879Y015323D01*
X011900Y015325D01*
X009770Y013715D02*
X009770Y013315D01*
X008460Y014695D02*
X008460Y015715D01*
X021710Y023735D02*
X021710Y024162D01*
X021924Y024376D01*
X022137Y024162D01*
X022137Y023735D01*
X022355Y023735D02*
X022675Y023735D01*
X022782Y023842D01*
X022675Y023949D01*
X022461Y023949D01*
X022355Y024055D01*
X022461Y024162D01*
X022782Y024162D01*
X022999Y024055D02*
X023106Y024162D01*
X023319Y024162D01*
X023426Y024055D01*
X023426Y023735D01*
X023644Y023735D02*
X023857Y023735D01*
X023750Y023735D02*
X023750Y024376D01*
X023644Y024376D01*
X024073Y024055D02*
X024180Y024162D01*
X024394Y024162D01*
X024500Y024055D01*
X024500Y023949D01*
X024073Y023949D01*
X024073Y024055D02*
X024073Y023842D01*
X024180Y023735D01*
X024394Y023735D01*
X024718Y023842D02*
X024825Y023735D01*
X025145Y023735D01*
X025145Y023628D02*
X025038Y023521D01*
X024931Y023521D01*
X025145Y023628D02*
X025145Y024162D01*
X024718Y024162D02*
X024718Y023842D01*
X026007Y023842D02*
X026114Y023735D01*
X026221Y023735D01*
X026327Y023842D01*
X026327Y024376D01*
X026221Y024376D02*
X026434Y024376D01*
X026652Y023842D02*
X026758Y023842D01*
X026758Y023735D01*
X026652Y023735D01*
X026652Y023842D01*
X027618Y023949D02*
X027939Y023949D01*
X028045Y024055D01*
X028045Y024269D01*
X027939Y024376D01*
X027618Y024376D01*
X027618Y023735D01*
X027832Y023949D02*
X028045Y023735D01*
X028263Y023842D02*
X028370Y023735D01*
X028583Y023735D01*
X028690Y023842D01*
X028690Y024055D01*
X028583Y024162D01*
X028370Y024162D01*
X028263Y024055D01*
X028263Y023842D01*
X028907Y023735D02*
X028907Y024376D01*
X028907Y024162D02*
X029228Y024162D01*
X029335Y024055D01*
X029335Y023842D01*
X029228Y023735D01*
X028907Y023735D01*
X029552Y023735D02*
X029766Y023735D01*
X029659Y023735D02*
X029659Y024162D01*
X029552Y024162D01*
X029659Y024376D02*
X029659Y024482D01*
X029982Y024162D02*
X030302Y024162D01*
X030409Y024055D01*
X030409Y023735D01*
X030626Y023735D02*
X030947Y023735D01*
X031053Y023842D01*
X030947Y023949D01*
X030733Y023949D01*
X030626Y024055D01*
X030733Y024162D01*
X031053Y024162D01*
X031271Y024055D02*
X031378Y024162D01*
X031591Y024162D01*
X031698Y024055D01*
X031698Y023842D01*
X031591Y023735D01*
X031378Y023735D01*
X031271Y023842D01*
X031271Y024055D01*
X031915Y024162D02*
X031915Y023735D01*
X032342Y023735D02*
X032342Y024055D01*
X032236Y024162D01*
X031915Y024162D01*
X029982Y024162D02*
X029982Y023735D01*
X030213Y025235D02*
X030426Y025662D01*
X030644Y025662D02*
X030644Y025235D01*
X030644Y025555D02*
X031071Y025555D01*
X031071Y025662D02*
X031071Y025235D01*
X031071Y025662D02*
X030857Y025876D01*
X030644Y025662D01*
X030213Y025235D02*
X029999Y025662D01*
X029782Y025555D02*
X029782Y025449D01*
X029355Y025449D01*
X029355Y025555D02*
X029355Y025342D01*
X029461Y025235D01*
X029675Y025235D01*
X029782Y025555D02*
X029675Y025662D01*
X029461Y025662D01*
X029355Y025555D01*
X029137Y025555D02*
X029030Y025449D01*
X028710Y025449D01*
X028924Y025449D02*
X029137Y025235D01*
X029137Y025555D02*
X029137Y025769D01*
X029030Y025876D01*
X028710Y025876D01*
X028710Y025235D01*
X026864Y025342D02*
X026757Y025449D01*
X026543Y025449D01*
X026437Y025555D01*
X026543Y025662D01*
X026864Y025662D01*
X026864Y025342D02*
X026757Y025235D01*
X026437Y025235D01*
X026219Y025235D02*
X026219Y025662D01*
X025792Y025662D02*
X025792Y025342D01*
X025899Y025235D01*
X026219Y025235D01*
X025575Y025342D02*
X025575Y025555D01*
X025468Y025662D01*
X025254Y025662D01*
X025148Y025555D01*
X025148Y025342D01*
X025254Y025235D01*
X025468Y025235D01*
X025575Y025342D01*
X024931Y025128D02*
X024931Y025662D01*
X024931Y025876D02*
X024931Y025982D01*
X024500Y025555D02*
X024394Y025662D01*
X024180Y025662D01*
X024180Y025449D02*
X024500Y025449D01*
X024500Y025555D02*
X024500Y025235D01*
X024180Y025235D01*
X024073Y025342D01*
X024180Y025449D01*
X023856Y025342D02*
X023749Y025449D01*
X023536Y025449D01*
X023429Y025555D01*
X023536Y025662D01*
X023856Y025662D01*
X023856Y025342D02*
X023749Y025235D01*
X023429Y025235D01*
X023211Y025342D02*
X023105Y025449D01*
X022891Y025449D01*
X022784Y025555D01*
X022891Y025662D01*
X023211Y025662D01*
X023211Y025342D02*
X023105Y025235D01*
X022784Y025235D01*
X022568Y025235D02*
X022355Y025235D01*
X022461Y025235D02*
X022461Y025662D01*
X022355Y025662D01*
X022461Y025876D02*
X022461Y025982D01*
X021710Y025876D02*
X021710Y025235D01*
X022137Y025235D01*
X022999Y024376D02*
X022999Y023735D01*
X022137Y024055D02*
X021710Y024055D01*
X024718Y025021D02*
X024825Y025021D01*
X024931Y025128D01*
X032710Y025342D02*
X032817Y025235D01*
X032924Y025235D01*
X033030Y025342D01*
X033030Y025876D01*
X032924Y025876D02*
X033137Y025876D01*
X033461Y025662D02*
X033675Y025662D01*
X033782Y025555D01*
X033782Y025235D01*
X033461Y025235D01*
X033355Y025342D01*
X033461Y025449D01*
X033782Y025449D01*
X033999Y025235D02*
X033999Y025662D01*
X034319Y025662D01*
X034426Y025555D01*
X034426Y025235D01*
X035288Y025235D02*
X035715Y025662D01*
X035715Y025769D01*
X035608Y025876D01*
X035395Y025876D01*
X035288Y025769D01*
X035288Y025235D02*
X035715Y025235D01*
X035933Y025342D02*
X036360Y025769D01*
X036360Y025342D01*
X036253Y025235D01*
X036040Y025235D01*
X035933Y025342D01*
X035933Y025769D01*
X036040Y025876D01*
X036253Y025876D01*
X036360Y025769D01*
X036577Y025662D02*
X036791Y025876D01*
X036791Y025235D01*
X037004Y025235D02*
X036577Y025235D01*
X037222Y025342D02*
X037222Y025555D01*
X037542Y025555D01*
X037649Y025449D01*
X037649Y025342D01*
X037542Y025235D01*
X037329Y025235D01*
X037222Y025342D01*
X037222Y025555D02*
X037435Y025769D01*
X037649Y025876D01*
D12*
X033257Y016490D02*
X032943Y016176D01*
X032943Y016333D02*
X033257Y016333D01*
X033257Y016176D02*
X032943Y016490D01*
X033100Y016490D02*
X033100Y016176D01*
X022257Y016176D02*
X021943Y016490D01*
X021943Y016333D02*
X022257Y016333D01*
X022257Y016490D02*
X021943Y016176D01*
X022100Y016176D02*
X022100Y016490D01*
X012257Y016490D02*
X011943Y016176D01*
X011943Y016333D02*
X012257Y016333D01*
X012257Y016176D02*
X011943Y016490D01*
X012100Y016490D02*
X012100Y016176D01*
D13*
X012593Y015525D02*
X012470Y015402D01*
X012470Y015155D01*
X012593Y015031D01*
X013211Y015031D01*
X013087Y014770D02*
X013211Y014647D01*
X013211Y014400D01*
X013087Y014276D01*
X012964Y014276D01*
X012470Y014770D01*
X012470Y014276D01*
X012593Y014015D02*
X013087Y013521D01*
X012593Y013521D01*
X012470Y013645D01*
X012470Y013891D01*
X012593Y014015D01*
X013087Y014015D01*
X013211Y013891D01*
X013211Y013645D01*
X013087Y013521D01*
X012964Y013260D02*
X013211Y013013D01*
X012470Y013013D01*
X012470Y013260D02*
X012470Y012766D01*
X012593Y015525D02*
X013211Y015525D01*
X022470Y015400D02*
X023211Y015400D01*
X022840Y015770D01*
X022840Y015276D01*
X022593Y015015D02*
X023087Y014521D01*
X022593Y014521D01*
X022470Y014645D01*
X022470Y014891D01*
X022593Y015015D01*
X023087Y015015D01*
X023211Y014891D01*
X023211Y014645D01*
X023087Y014521D01*
X022964Y014260D02*
X023211Y014013D01*
X022470Y014013D01*
X022470Y014260D02*
X022470Y013766D01*
X022593Y016031D02*
X023211Y016031D01*
X022593Y016031D02*
X022470Y016155D01*
X022470Y016402D01*
X022593Y016525D01*
X023211Y016525D01*
X033970Y014902D02*
X033970Y014655D01*
X034093Y014531D01*
X034711Y014531D01*
X034464Y014270D02*
X034711Y014023D01*
X033970Y014023D01*
X033970Y014270D02*
X033970Y013776D01*
X034093Y013515D02*
X034587Y013021D01*
X034093Y013021D01*
X033970Y013145D01*
X033970Y013391D01*
X034093Y013515D01*
X034587Y013515D01*
X034711Y013391D01*
X034711Y013145D01*
X034587Y013021D01*
X034464Y012760D02*
X034711Y012513D01*
X033970Y012513D01*
X033970Y012760D02*
X033970Y012266D01*
X033970Y014902D02*
X034093Y015025D01*
X034711Y015025D01*
D14*
X033875Y015860D02*
X033725Y015860D01*
X033725Y015935D01*
X033750Y015960D01*
X033800Y015960D01*
X033825Y015935D01*
X033825Y015860D01*
X033825Y015910D02*
X033875Y015960D01*
X033875Y016007D02*
X033875Y016107D01*
X033875Y016057D02*
X033725Y016057D01*
X033775Y016007D01*
X033750Y016155D02*
X033725Y016180D01*
X033725Y016230D01*
X033750Y016255D01*
X033850Y016155D01*
X033875Y016180D01*
X033875Y016230D01*
X033850Y016255D01*
X033750Y016255D01*
X033750Y016302D02*
X033775Y016302D01*
X033800Y016327D01*
X033800Y016377D01*
X033825Y016402D01*
X033850Y016402D01*
X033875Y016377D01*
X033875Y016327D01*
X033850Y016302D01*
X033825Y016302D01*
X033800Y016327D01*
X033800Y016377D02*
X033775Y016402D01*
X033750Y016402D01*
X033725Y016377D01*
X033725Y016327D01*
X033750Y016302D01*
X033750Y016155D02*
X033850Y016155D01*
X036485Y016168D02*
X036535Y016118D01*
X036560Y016071D02*
X036585Y016046D01*
X036585Y015971D01*
X036585Y016021D02*
X036635Y016071D01*
X036635Y016118D02*
X036635Y016218D01*
X036635Y016168D02*
X036485Y016168D01*
X036510Y016071D02*
X036560Y016071D01*
X036510Y016071D02*
X036485Y016046D01*
X036485Y015971D01*
X036635Y015971D01*
X036610Y016265D02*
X036510Y016365D01*
X036610Y016365D01*
X036635Y016340D01*
X036635Y016290D01*
X036610Y016265D01*
X036510Y016265D01*
X036485Y016290D01*
X036485Y016340D01*
X036510Y016365D01*
X036485Y016413D02*
X036485Y016513D01*
X036510Y016513D01*
X036610Y016413D01*
X036635Y016413D01*
X035850Y018360D02*
X035875Y018385D01*
X035875Y018435D01*
X035850Y018460D01*
X035875Y018507D02*
X035875Y018607D01*
X035875Y018557D02*
X035725Y018557D01*
X035775Y018507D01*
X035750Y018460D02*
X035725Y018435D01*
X035725Y018385D01*
X035750Y018360D01*
X035850Y018360D01*
X035850Y018655D02*
X035750Y018755D01*
X035850Y018755D01*
X035875Y018730D01*
X035875Y018680D01*
X035850Y018655D01*
X035750Y018655D01*
X035725Y018680D01*
X035725Y018730D01*
X035750Y018755D01*
X035750Y018802D02*
X035725Y018827D01*
X035725Y018877D01*
X035750Y018902D01*
X035775Y018902D01*
X035875Y018802D01*
X035875Y018902D01*
X034635Y018938D02*
X034635Y018988D01*
X034610Y019013D01*
X034510Y019013D01*
X034485Y018988D01*
X034485Y018938D01*
X034510Y018913D01*
X034535Y018913D01*
X034560Y018938D01*
X034560Y019013D01*
X034635Y018938D02*
X034610Y018913D01*
X034610Y018865D02*
X034635Y018840D01*
X034635Y018790D01*
X034610Y018765D01*
X034510Y018865D01*
X034610Y018865D01*
X034610Y018765D02*
X034510Y018765D01*
X034485Y018790D01*
X034485Y018840D01*
X034510Y018865D01*
X034635Y018718D02*
X034635Y018618D01*
X034635Y018571D02*
X034585Y018521D01*
X034585Y018546D02*
X034585Y018471D01*
X034635Y018471D02*
X034485Y018471D01*
X034485Y018546D01*
X034510Y018571D01*
X034560Y018571D01*
X034585Y018546D01*
X034535Y018618D02*
X034485Y018668D01*
X034635Y018668D01*
X032635Y018668D02*
X032485Y018668D01*
X032535Y018618D01*
X032510Y018571D02*
X032485Y018546D01*
X032485Y018496D01*
X032510Y018471D01*
X032610Y018471D01*
X032635Y018496D01*
X032635Y018546D01*
X032610Y018571D01*
X032635Y018618D02*
X032635Y018718D01*
X032610Y018765D02*
X032635Y018790D01*
X032635Y018840D01*
X032610Y018865D01*
X032510Y018865D01*
X032610Y018765D01*
X032510Y018765D01*
X032485Y018790D01*
X032485Y018840D01*
X032510Y018865D01*
X032510Y018913D02*
X032485Y018938D01*
X032485Y018988D01*
X032510Y019013D01*
X032535Y019013D01*
X032560Y018988D01*
X032585Y019013D01*
X032610Y019013D01*
X032635Y018988D01*
X032635Y018938D01*
X032610Y018913D01*
X032560Y018963D02*
X032560Y018988D01*
X030635Y019013D02*
X030635Y018913D01*
X030635Y018963D02*
X030485Y018963D01*
X030535Y018913D01*
X030510Y018865D02*
X030610Y018765D01*
X030635Y018790D01*
X030635Y018840D01*
X030610Y018865D01*
X030510Y018865D01*
X030485Y018840D01*
X030485Y018790D01*
X030510Y018765D01*
X030610Y018765D01*
X030610Y018718D02*
X030635Y018693D01*
X030635Y018643D01*
X030610Y018618D01*
X030610Y018571D02*
X030635Y018546D01*
X030635Y018496D01*
X030610Y018471D01*
X030510Y018471D01*
X030485Y018496D01*
X030485Y018546D01*
X030510Y018571D01*
X030510Y018618D02*
X030485Y018643D01*
X030485Y018693D01*
X030510Y018718D01*
X030535Y018718D01*
X030560Y018693D01*
X030585Y018718D01*
X030610Y018718D01*
X030560Y018693D02*
X030560Y018668D01*
X028635Y018668D02*
X028485Y018668D01*
X028535Y018618D01*
X028510Y018571D02*
X028485Y018546D01*
X028485Y018496D01*
X028510Y018471D01*
X028610Y018471D01*
X028635Y018496D01*
X028635Y018546D01*
X028610Y018571D01*
X028635Y018618D02*
X028635Y018718D01*
X028610Y018765D02*
X028510Y018865D01*
X028610Y018865D01*
X028635Y018840D01*
X028635Y018790D01*
X028610Y018765D01*
X028510Y018765D01*
X028485Y018790D01*
X028485Y018840D01*
X028510Y018865D01*
X028560Y018913D02*
X028560Y019013D01*
X028635Y018988D02*
X028485Y018988D01*
X028560Y018913D01*
X026635Y018938D02*
X026610Y018913D01*
X026635Y018938D02*
X026635Y018988D01*
X026610Y019013D01*
X026560Y019013D01*
X026535Y018988D01*
X026535Y018963D01*
X026560Y018913D01*
X026485Y018913D01*
X026485Y019013D01*
X026510Y018865D02*
X026610Y018765D01*
X026635Y018790D01*
X026635Y018840D01*
X026610Y018865D01*
X026510Y018865D01*
X026485Y018840D01*
X026485Y018790D01*
X026510Y018765D01*
X026610Y018765D01*
X026610Y018718D02*
X026635Y018693D01*
X026635Y018643D01*
X026610Y018618D01*
X026560Y018618D02*
X026535Y018668D01*
X026535Y018693D01*
X026560Y018718D01*
X026610Y018718D01*
X026560Y018618D02*
X026485Y018618D01*
X026485Y018718D01*
X026510Y018571D02*
X026560Y018571D01*
X026585Y018546D01*
X026585Y018471D01*
X026585Y018521D02*
X026635Y018571D01*
X026635Y018471D02*
X026485Y018471D01*
X026485Y018546D01*
X026510Y018571D01*
X024635Y018546D02*
X024610Y018571D01*
X024635Y018546D02*
X024635Y018496D01*
X024610Y018471D01*
X024510Y018471D01*
X024485Y018496D01*
X024485Y018546D01*
X024510Y018571D01*
X024485Y018618D02*
X024560Y018618D01*
X024535Y018668D01*
X024535Y018693D01*
X024560Y018718D01*
X024610Y018718D01*
X024635Y018693D01*
X024635Y018643D01*
X024610Y018618D01*
X024485Y018618D02*
X024485Y018718D01*
X024510Y018765D02*
X024485Y018790D01*
X024485Y018840D01*
X024510Y018865D01*
X024610Y018765D01*
X024635Y018790D01*
X024635Y018840D01*
X024610Y018865D01*
X024510Y018865D01*
X024510Y018913D02*
X024485Y018938D01*
X024485Y018988D01*
X024510Y019013D01*
X024535Y019013D01*
X024635Y018913D01*
X024635Y019013D01*
X024610Y018765D02*
X024510Y018765D01*
X021875Y018730D02*
X021875Y018680D01*
X021850Y018655D01*
X021750Y018755D01*
X021850Y018755D01*
X021875Y018730D01*
X021875Y018802D02*
X021775Y018902D01*
X021750Y018902D01*
X021725Y018877D01*
X021725Y018827D01*
X021750Y018802D01*
X021750Y018755D02*
X021725Y018730D01*
X021725Y018680D01*
X021750Y018655D01*
X021850Y018655D01*
X021850Y018607D02*
X021875Y018582D01*
X021875Y018532D01*
X021850Y018507D01*
X021800Y018507D02*
X021775Y018557D01*
X021775Y018582D01*
X021800Y018607D01*
X021850Y018607D01*
X021800Y018507D02*
X021725Y018507D01*
X021725Y018607D01*
X021750Y018460D02*
X021800Y018460D01*
X021825Y018435D01*
X021825Y018360D01*
X021875Y018360D02*
X021725Y018360D01*
X021725Y018435D01*
X021750Y018460D01*
X021825Y018410D02*
X021875Y018460D01*
X021875Y018802D02*
X021875Y018902D01*
X020635Y018938D02*
X020610Y018913D01*
X020635Y018938D02*
X020635Y018988D01*
X020610Y019013D01*
X020585Y019013D01*
X020560Y018988D01*
X020560Y018963D01*
X020560Y018988D02*
X020535Y019013D01*
X020510Y019013D01*
X020485Y018988D01*
X020485Y018938D01*
X020510Y018913D01*
X020510Y018865D02*
X020610Y018765D01*
X020635Y018790D01*
X020635Y018840D01*
X020610Y018865D01*
X020510Y018865D01*
X020485Y018840D01*
X020485Y018790D01*
X020510Y018765D01*
X020610Y018765D01*
X020610Y018718D02*
X020635Y018693D01*
X020635Y018643D01*
X020610Y018618D01*
X020610Y018571D02*
X020635Y018546D01*
X020635Y018496D01*
X020610Y018471D01*
X020510Y018471D01*
X020485Y018496D01*
X020485Y018546D01*
X020510Y018571D01*
X020510Y018618D02*
X020485Y018643D01*
X020485Y018693D01*
X020510Y018718D01*
X020535Y018718D01*
X020560Y018693D01*
X020585Y018718D01*
X020610Y018718D01*
X020560Y018693D02*
X020560Y018668D01*
X020585Y020971D02*
X020585Y021046D01*
X020560Y021071D01*
X020510Y021071D01*
X020485Y021046D01*
X020485Y020971D01*
X020635Y020971D01*
X020585Y021021D02*
X020635Y021071D01*
X020610Y021118D02*
X020635Y021143D01*
X020635Y021193D01*
X020610Y021218D01*
X020560Y021218D01*
X020535Y021193D01*
X020535Y021168D01*
X020560Y021118D01*
X020485Y021118D01*
X020485Y021218D01*
X020510Y021265D02*
X020485Y021290D01*
X020485Y021340D01*
X020510Y021365D01*
X020610Y021265D01*
X020635Y021290D01*
X020635Y021340D01*
X020610Y021365D01*
X020510Y021365D01*
X020535Y021413D02*
X020485Y021463D01*
X020635Y021463D01*
X020635Y021413D02*
X020635Y021513D01*
X020610Y021265D02*
X020510Y021265D01*
X018635Y021290D02*
X018610Y021265D01*
X018510Y021365D01*
X018610Y021365D01*
X018635Y021340D01*
X018635Y021290D01*
X018610Y021265D02*
X018510Y021265D01*
X018485Y021290D01*
X018485Y021340D01*
X018510Y021365D01*
X018560Y021413D02*
X018560Y021513D01*
X018635Y021488D02*
X018485Y021488D01*
X018560Y021413D01*
X018560Y021218D02*
X018560Y021118D01*
X018485Y021193D01*
X018635Y021193D01*
X018635Y021071D02*
X018585Y021021D01*
X018585Y021046D02*
X018585Y020971D01*
X018635Y020971D02*
X018485Y020971D01*
X018485Y021046D01*
X018510Y021071D01*
X018560Y021071D01*
X018585Y021046D01*
X017085Y022621D02*
X017085Y022696D01*
X017060Y022721D01*
X016960Y022721D01*
X016935Y022696D01*
X016935Y022621D01*
X017085Y022621D01*
X017010Y022768D02*
X017010Y022868D01*
X017060Y022915D02*
X016960Y023015D01*
X017060Y023015D01*
X017085Y022990D01*
X017085Y022940D01*
X017060Y022915D01*
X016960Y022915D01*
X016935Y022940D01*
X016935Y022990D01*
X016960Y023015D01*
X016985Y023063D02*
X016935Y023113D01*
X017085Y023113D01*
X017085Y023063D02*
X017085Y023163D01*
X017085Y022843D02*
X016935Y022843D01*
X017010Y022768D01*
X018485Y023471D02*
X018485Y023546D01*
X018510Y023571D01*
X018560Y023571D01*
X018585Y023546D01*
X018585Y023471D01*
X018585Y023521D02*
X018635Y023571D01*
X018560Y023618D02*
X018560Y023718D01*
X018610Y023765D02*
X018510Y023865D01*
X018610Y023865D01*
X018635Y023840D01*
X018635Y023790D01*
X018610Y023765D01*
X018510Y023765D01*
X018485Y023790D01*
X018485Y023840D01*
X018510Y023865D01*
X018560Y023913D02*
X018560Y023988D01*
X018585Y024013D01*
X018610Y024013D01*
X018635Y023988D01*
X018635Y023938D01*
X018610Y023913D01*
X018560Y023913D01*
X018510Y023963D01*
X018485Y024013D01*
X018485Y023693D02*
X018560Y023618D01*
X018635Y023693D02*
X018485Y023693D01*
X018485Y023471D02*
X018635Y023471D01*
X022485Y021488D02*
X022510Y021513D01*
X022535Y021513D01*
X022560Y021488D01*
X022585Y021513D01*
X022610Y021513D01*
X022635Y021488D01*
X022635Y021438D01*
X022610Y021413D01*
X022610Y021365D02*
X022635Y021340D01*
X022635Y021290D01*
X022610Y021265D01*
X022510Y021365D01*
X022610Y021365D01*
X022610Y021265D02*
X022510Y021265D01*
X022485Y021290D01*
X022485Y021340D01*
X022510Y021365D01*
X022510Y021413D02*
X022485Y021438D01*
X022485Y021488D01*
X022560Y021488D02*
X022560Y021463D01*
X022560Y021218D02*
X022610Y021218D01*
X022635Y021193D01*
X022635Y021143D01*
X022610Y021118D01*
X022610Y021071D02*
X022635Y021046D01*
X022635Y020996D01*
X022610Y020971D01*
X022510Y020971D01*
X022485Y020996D01*
X022485Y021046D01*
X022510Y021071D01*
X022485Y021118D02*
X022560Y021118D01*
X022535Y021168D01*
X022535Y021193D01*
X022560Y021218D01*
X022485Y021218D02*
X022485Y021118D01*
X026485Y021118D02*
X026560Y021118D01*
X026535Y021168D01*
X026535Y021193D01*
X026560Y021218D01*
X026610Y021218D01*
X026635Y021193D01*
X026635Y021143D01*
X026610Y021118D01*
X026635Y021071D02*
X026585Y021021D01*
X026585Y021046D02*
X026585Y020971D01*
X026635Y020971D02*
X026485Y020971D01*
X026485Y021046D01*
X026510Y021071D01*
X026560Y021071D01*
X026585Y021046D01*
X026485Y021118D02*
X026485Y021218D01*
X026510Y021265D02*
X026485Y021290D01*
X026485Y021340D01*
X026510Y021365D01*
X026610Y021265D01*
X026635Y021290D01*
X026635Y021340D01*
X026610Y021365D01*
X026510Y021365D01*
X026560Y021413D02*
X026560Y021513D01*
X026635Y021488D02*
X026485Y021488D01*
X026560Y021413D01*
X026610Y021265D02*
X026510Y021265D01*
X028485Y021315D02*
X028635Y021315D01*
X028635Y021265D02*
X028635Y021365D01*
X028635Y021413D02*
X028635Y021513D01*
X028635Y021463D02*
X028485Y021463D01*
X028535Y021413D01*
X028485Y021315D02*
X028535Y021265D01*
X028485Y021168D02*
X028635Y021168D01*
X028635Y021118D02*
X028635Y021218D01*
X028535Y021118D02*
X028485Y021168D01*
X028510Y021071D02*
X028560Y021071D01*
X028585Y021046D01*
X028585Y020971D01*
X028585Y021021D02*
X028635Y021071D01*
X028635Y020971D02*
X028485Y020971D01*
X028485Y021046D01*
X028510Y021071D01*
X029725Y021057D02*
X029875Y021057D01*
X029875Y021007D02*
X029875Y021107D01*
X029850Y021155D02*
X029750Y021255D01*
X029850Y021255D01*
X029875Y021230D01*
X029875Y021180D01*
X029850Y021155D01*
X029750Y021155D01*
X029725Y021180D01*
X029725Y021230D01*
X029750Y021255D01*
X029725Y021302D02*
X029800Y021302D01*
X029775Y021352D01*
X029775Y021377D01*
X029800Y021402D01*
X029850Y021402D01*
X029875Y021377D01*
X029875Y021327D01*
X029850Y021302D01*
X029725Y021302D02*
X029725Y021402D01*
X029725Y021057D02*
X029775Y021007D01*
X029750Y020960D02*
X029725Y020935D01*
X029725Y020885D01*
X029750Y020860D01*
X029850Y020860D01*
X029875Y020885D01*
X029875Y020935D01*
X029850Y020960D01*
X034485Y020971D02*
X034485Y021046D01*
X034510Y021071D01*
X034560Y021071D01*
X034585Y021046D01*
X034585Y020971D01*
X034585Y021021D02*
X034635Y021071D01*
X034635Y021118D02*
X034635Y021218D01*
X034635Y021265D02*
X034635Y021365D01*
X034635Y021315D02*
X034485Y021315D01*
X034535Y021265D01*
X034485Y021168D02*
X034635Y021168D01*
X034535Y021118D02*
X034485Y021168D01*
X034485Y020971D02*
X034635Y020971D01*
X034610Y021413D02*
X034510Y021513D01*
X034610Y021513D01*
X034635Y021488D01*
X034635Y021438D01*
X034610Y021413D01*
X034510Y021413D01*
X034485Y021438D01*
X034485Y021488D01*
X034510Y021513D01*
X036485Y014013D02*
X036510Y013963D01*
X036560Y013913D01*
X036560Y013988D01*
X036585Y014013D01*
X036610Y014013D01*
X036635Y013988D01*
X036635Y013938D01*
X036610Y013913D01*
X036560Y013913D01*
X036610Y013865D02*
X036635Y013840D01*
X036635Y013790D01*
X036610Y013765D01*
X036510Y013865D01*
X036610Y013865D01*
X036610Y013765D02*
X036510Y013765D01*
X036485Y013790D01*
X036485Y013840D01*
X036510Y013865D01*
X036635Y013718D02*
X036635Y013618D01*
X036635Y013571D02*
X036585Y013521D01*
X036585Y013546D02*
X036585Y013471D01*
X036635Y013471D02*
X036485Y013471D01*
X036485Y013546D01*
X036510Y013571D01*
X036560Y013571D01*
X036585Y013546D01*
X036535Y013618D02*
X036485Y013668D01*
X036635Y013668D01*
X036635Y011513D02*
X036635Y011413D01*
X036635Y011463D02*
X036485Y011463D01*
X036535Y011413D01*
X036510Y011365D02*
X036610Y011265D01*
X036635Y011290D01*
X036635Y011340D01*
X036610Y011365D01*
X036510Y011365D01*
X036485Y011340D01*
X036485Y011290D01*
X036510Y011265D01*
X036610Y011265D01*
X036635Y011218D02*
X036635Y011118D01*
X036635Y011071D02*
X036585Y011021D01*
X036585Y011046D02*
X036585Y010971D01*
X036635Y010971D02*
X036485Y010971D01*
X036485Y011046D01*
X036510Y011071D01*
X036560Y011071D01*
X036585Y011046D01*
X036535Y011118D02*
X036485Y011168D01*
X036635Y011168D01*
X038485Y011168D02*
X038635Y011168D01*
X038635Y011118D02*
X038635Y011218D01*
X038610Y011265D02*
X038510Y011365D01*
X038610Y011365D01*
X038635Y011340D01*
X038635Y011290D01*
X038610Y011265D01*
X038510Y011265D01*
X038485Y011290D01*
X038485Y011340D01*
X038510Y011365D01*
X038560Y011413D02*
X038560Y011513D01*
X038635Y011488D02*
X038485Y011488D01*
X038560Y011413D01*
X038485Y011168D02*
X038535Y011118D01*
X038560Y011071D02*
X038585Y011046D01*
X038585Y010971D01*
X038585Y011021D02*
X038635Y011071D01*
X038560Y011071D02*
X038510Y011071D01*
X038485Y011046D01*
X038485Y010971D01*
X038635Y010971D01*
X035875Y008877D02*
X035875Y008827D01*
X035850Y008802D01*
X035850Y008755D02*
X035875Y008730D01*
X035875Y008680D01*
X035850Y008655D01*
X035750Y008755D01*
X035850Y008755D01*
X035750Y008755D02*
X035725Y008730D01*
X035725Y008680D01*
X035750Y008655D01*
X035850Y008655D01*
X035875Y008607D02*
X035875Y008507D01*
X035875Y008460D02*
X035825Y008410D01*
X035825Y008435D02*
X035825Y008360D01*
X035875Y008360D02*
X035725Y008360D01*
X035725Y008435D01*
X035750Y008460D01*
X035800Y008460D01*
X035825Y008435D01*
X035775Y008507D02*
X035725Y008557D01*
X035875Y008557D01*
X035750Y008802D02*
X035725Y008827D01*
X035725Y008877D01*
X035750Y008902D01*
X035775Y008902D01*
X035800Y008877D01*
X035825Y008902D01*
X035850Y008902D01*
X035875Y008877D01*
X035800Y008877D02*
X035800Y008852D01*
X033875Y008827D02*
X033850Y008802D01*
X033875Y008827D02*
X033875Y008877D01*
X033850Y008902D01*
X033825Y008902D01*
X033800Y008877D01*
X033800Y008852D01*
X033800Y008877D02*
X033775Y008902D01*
X033750Y008902D01*
X033725Y008877D01*
X033725Y008827D01*
X033750Y008802D01*
X033750Y008755D02*
X033850Y008655D01*
X033875Y008680D01*
X033875Y008730D01*
X033850Y008755D01*
X033750Y008755D01*
X033725Y008730D01*
X033725Y008680D01*
X033750Y008655D01*
X033850Y008655D01*
X033800Y008607D02*
X033800Y008507D01*
X033725Y008582D01*
X033875Y008582D01*
X033875Y008460D02*
X033825Y008410D01*
X033825Y008435D02*
X033825Y008360D01*
X033875Y008360D02*
X033725Y008360D01*
X033725Y008435D01*
X033750Y008460D01*
X033800Y008460D01*
X033825Y008435D01*
X031875Y008460D02*
X031825Y008410D01*
X031825Y008435D02*
X031825Y008360D01*
X031875Y008360D02*
X031725Y008360D01*
X031725Y008435D01*
X031750Y008460D01*
X031800Y008460D01*
X031825Y008435D01*
X031800Y008507D02*
X031800Y008607D01*
X031850Y008655D02*
X031750Y008755D01*
X031850Y008755D01*
X031875Y008730D01*
X031875Y008680D01*
X031850Y008655D01*
X031750Y008655D01*
X031725Y008680D01*
X031725Y008730D01*
X031750Y008755D01*
X031725Y008802D02*
X031800Y008802D01*
X031775Y008852D01*
X031775Y008877D01*
X031800Y008902D01*
X031850Y008902D01*
X031875Y008877D01*
X031875Y008827D01*
X031850Y008802D01*
X031725Y008802D02*
X031725Y008902D01*
X031725Y008582D02*
X031800Y008507D01*
X031875Y008582D02*
X031725Y008582D01*
X030635Y008546D02*
X030610Y008571D01*
X030635Y008546D02*
X030635Y008496D01*
X030610Y008471D01*
X030510Y008471D01*
X030485Y008496D01*
X030485Y008546D01*
X030510Y008571D01*
X030560Y008618D02*
X030560Y008718D01*
X030610Y008765D02*
X030510Y008865D01*
X030610Y008865D01*
X030635Y008840D01*
X030635Y008790D01*
X030610Y008765D01*
X030510Y008765D01*
X030485Y008790D01*
X030485Y008840D01*
X030510Y008865D01*
X030535Y008913D02*
X030485Y008963D01*
X030635Y008963D01*
X030635Y008913D02*
X030635Y009013D01*
X030635Y008693D02*
X030485Y008693D01*
X030560Y008618D01*
X028635Y008571D02*
X028585Y008521D01*
X028585Y008546D02*
X028585Y008471D01*
X028635Y008471D02*
X028485Y008471D01*
X028485Y008546D01*
X028510Y008571D01*
X028560Y008571D01*
X028585Y008546D01*
X028560Y008618D02*
X028560Y008718D01*
X028610Y008765D02*
X028510Y008865D01*
X028610Y008865D01*
X028635Y008840D01*
X028635Y008790D01*
X028610Y008765D01*
X028510Y008765D01*
X028485Y008790D01*
X028485Y008840D01*
X028510Y008865D01*
X028510Y008913D02*
X028485Y008938D01*
X028485Y008988D01*
X028510Y009013D01*
X028535Y009013D01*
X028635Y008913D01*
X028635Y009013D01*
X028635Y008693D02*
X028485Y008693D01*
X028560Y008618D01*
X031725Y010860D02*
X031725Y010935D01*
X031750Y010960D01*
X031800Y010960D01*
X031825Y010935D01*
X031825Y010860D01*
X031875Y010860D02*
X031725Y010860D01*
X031825Y010910D02*
X031875Y010960D01*
X031875Y011007D02*
X031875Y011107D01*
X031875Y011057D02*
X031725Y011057D01*
X031775Y011007D01*
X031750Y011155D02*
X031725Y011180D01*
X031725Y011230D01*
X031750Y011255D01*
X031850Y011155D01*
X031875Y011180D01*
X031875Y011230D01*
X031850Y011255D01*
X031750Y011255D01*
X031725Y011302D02*
X031800Y011302D01*
X031775Y011352D01*
X031775Y011377D01*
X031800Y011402D01*
X031850Y011402D01*
X031875Y011377D01*
X031875Y011327D01*
X031850Y011302D01*
X031725Y011302D02*
X031725Y011402D01*
X031750Y011155D02*
X031850Y011155D01*
X030635Y011143D02*
X030610Y011118D01*
X030635Y011143D02*
X030635Y011193D01*
X030610Y011218D01*
X030585Y011218D01*
X030560Y011193D01*
X030560Y011168D01*
X030560Y011193D02*
X030535Y011218D01*
X030510Y011218D01*
X030485Y011193D01*
X030485Y011143D01*
X030510Y011118D01*
X030510Y011071D02*
X030485Y011046D01*
X030485Y010996D01*
X030510Y010971D01*
X030610Y010971D01*
X030635Y010996D01*
X030635Y011046D01*
X030610Y011071D01*
X030610Y011265D02*
X030510Y011365D01*
X030610Y011365D01*
X030635Y011340D01*
X030635Y011290D01*
X030610Y011265D01*
X030510Y011265D01*
X030485Y011290D01*
X030485Y011340D01*
X030510Y011365D01*
X030560Y011413D02*
X030560Y011513D01*
X030635Y011488D02*
X030485Y011488D01*
X030560Y011413D01*
X028635Y011413D02*
X028635Y011513D01*
X028635Y011463D02*
X028485Y011463D01*
X028535Y011413D01*
X028510Y011365D02*
X028610Y011265D01*
X028635Y011290D01*
X028635Y011340D01*
X028610Y011365D01*
X028510Y011365D01*
X028485Y011340D01*
X028485Y011290D01*
X028510Y011265D01*
X028610Y011265D01*
X028560Y011218D02*
X028560Y011118D01*
X028485Y011193D01*
X028635Y011193D01*
X028635Y011071D02*
X028585Y011021D01*
X028585Y011046D02*
X028585Y010971D01*
X028635Y010971D02*
X028485Y010971D01*
X028485Y011046D01*
X028510Y011071D01*
X028560Y011071D01*
X028585Y011046D01*
X023875Y013360D02*
X023725Y013360D01*
X023725Y013435D01*
X023750Y013460D01*
X023800Y013460D01*
X023825Y013435D01*
X023825Y013360D01*
X023825Y013410D02*
X023875Y013460D01*
X023850Y013507D02*
X023875Y013532D01*
X023875Y013582D01*
X023850Y013607D01*
X023800Y013607D01*
X023775Y013582D01*
X023775Y013557D01*
X023800Y013507D01*
X023725Y013507D01*
X023725Y013607D01*
X023750Y013655D02*
X023725Y013680D01*
X023725Y013730D01*
X023750Y013755D01*
X023850Y013655D01*
X023875Y013680D01*
X023875Y013730D01*
X023850Y013755D01*
X023750Y013755D01*
X023800Y013802D02*
X023800Y013877D01*
X023825Y013902D01*
X023850Y013902D01*
X023875Y013877D01*
X023875Y013827D01*
X023850Y013802D01*
X023800Y013802D01*
X023750Y013852D01*
X023725Y013902D01*
X023750Y013655D02*
X023850Y013655D01*
X018635Y011513D02*
X018635Y011413D01*
X018535Y011513D01*
X018510Y011513D01*
X018485Y011488D01*
X018485Y011438D01*
X018510Y011413D01*
X018510Y011365D02*
X018610Y011265D01*
X018635Y011290D01*
X018635Y011340D01*
X018610Y011365D01*
X018510Y011365D01*
X018485Y011340D01*
X018485Y011290D01*
X018510Y011265D01*
X018610Y011265D01*
X018560Y011218D02*
X018560Y011118D01*
X018485Y011193D01*
X018635Y011193D01*
X018610Y011071D02*
X018635Y011046D01*
X018635Y010996D01*
X018610Y010971D01*
X018510Y010971D01*
X018485Y010996D01*
X018485Y011046D01*
X018510Y011071D01*
X015875Y011107D02*
X015875Y011007D01*
X015775Y011107D01*
X015750Y011107D01*
X015725Y011082D01*
X015725Y011032D01*
X015750Y011007D01*
X015750Y010960D02*
X015800Y010960D01*
X015825Y010935D01*
X015825Y010860D01*
X015875Y010860D02*
X015725Y010860D01*
X015725Y010935D01*
X015750Y010960D01*
X015825Y010910D02*
X015875Y010960D01*
X015850Y011155D02*
X015750Y011255D01*
X015850Y011255D01*
X015875Y011230D01*
X015875Y011180D01*
X015850Y011155D01*
X015750Y011155D01*
X015725Y011180D01*
X015725Y011230D01*
X015750Y011255D01*
X015800Y011302D02*
X015750Y011352D01*
X015725Y011402D01*
X015800Y011377D02*
X015800Y011302D01*
X015850Y011302D01*
X015875Y011327D01*
X015875Y011377D01*
X015850Y011402D01*
X015825Y011402D01*
X015800Y011377D01*
X014635Y011340D02*
X014635Y011290D01*
X014610Y011265D01*
X014510Y011365D01*
X014610Y011365D01*
X014635Y011340D01*
X014610Y011413D02*
X014635Y011438D01*
X014635Y011488D01*
X014610Y011513D01*
X014585Y011513D01*
X014560Y011488D01*
X014560Y011463D01*
X014560Y011488D02*
X014535Y011513D01*
X014510Y011513D01*
X014485Y011488D01*
X014485Y011438D01*
X014510Y011413D01*
X014510Y011365D02*
X014485Y011340D01*
X014485Y011290D01*
X014510Y011265D01*
X014610Y011265D01*
X014635Y011218D02*
X014635Y011118D01*
X014535Y011218D01*
X014510Y011218D01*
X014485Y011193D01*
X014485Y011143D01*
X014510Y011118D01*
X014510Y011071D02*
X014560Y011071D01*
X014585Y011046D01*
X014585Y010971D01*
X014585Y011021D02*
X014635Y011071D01*
X014635Y010971D02*
X014485Y010971D01*
X014485Y011046D01*
X014510Y011071D01*
X011875Y011107D02*
X011875Y011007D01*
X011775Y011107D01*
X011750Y011107D01*
X011725Y011082D01*
X011725Y011032D01*
X011750Y011007D01*
X011750Y010960D02*
X011725Y010935D01*
X011725Y010885D01*
X011750Y010860D01*
X011850Y010860D01*
X011875Y010885D01*
X011875Y010935D01*
X011850Y010960D01*
X011850Y011155D02*
X011750Y011255D01*
X011850Y011255D01*
X011875Y011230D01*
X011875Y011180D01*
X011850Y011155D01*
X011750Y011155D01*
X011725Y011180D01*
X011725Y011230D01*
X011750Y011255D01*
X011775Y011302D02*
X011725Y011352D01*
X011875Y011352D01*
X011875Y011302D02*
X011875Y011402D01*
X010635Y011438D02*
X010610Y011413D01*
X010635Y011438D02*
X010635Y011488D01*
X010610Y011513D01*
X010560Y011513D01*
X010535Y011488D01*
X010535Y011463D01*
X010560Y011413D01*
X010485Y011413D01*
X010485Y011513D01*
X010510Y011365D02*
X010610Y011265D01*
X010635Y011290D01*
X010635Y011340D01*
X010610Y011365D01*
X010510Y011365D01*
X010485Y011340D01*
X010485Y011290D01*
X010510Y011265D01*
X010610Y011265D01*
X010610Y011218D02*
X010635Y011193D01*
X010635Y011143D01*
X010610Y011118D01*
X010610Y011071D02*
X010635Y011046D01*
X010635Y010996D01*
X010610Y010971D01*
X010510Y010971D01*
X010485Y010996D01*
X010485Y011046D01*
X010510Y011071D01*
X010510Y011118D02*
X010485Y011143D01*
X010485Y011193D01*
X010510Y011218D01*
X010535Y011218D01*
X010560Y011193D01*
X010585Y011218D01*
X010610Y011218D01*
X010560Y011193D02*
X010560Y011168D01*
X007875Y011180D02*
X007850Y011155D01*
X007750Y011255D01*
X007850Y011255D01*
X007875Y011230D01*
X007875Y011180D01*
X007850Y011155D02*
X007750Y011155D01*
X007725Y011180D01*
X007725Y011230D01*
X007750Y011255D01*
X007750Y011302D02*
X007775Y011302D01*
X007800Y011327D01*
X007800Y011377D01*
X007825Y011402D01*
X007850Y011402D01*
X007875Y011377D01*
X007875Y011327D01*
X007850Y011302D01*
X007825Y011302D01*
X007800Y011327D01*
X007800Y011377D02*
X007775Y011402D01*
X007750Y011402D01*
X007725Y011377D01*
X007725Y011327D01*
X007750Y011302D01*
X007725Y011107D02*
X007725Y011007D01*
X007800Y011007D01*
X007775Y011057D01*
X007775Y011082D01*
X007800Y011107D01*
X007850Y011107D01*
X007875Y011082D01*
X007875Y011032D01*
X007850Y011007D01*
X007875Y010960D02*
X007825Y010910D01*
X007825Y010935D02*
X007825Y010860D01*
X007875Y010860D02*
X007725Y010860D01*
X007725Y010935D01*
X007750Y010960D01*
X007800Y010960D01*
X007825Y010935D01*
X006635Y010971D02*
X006485Y010971D01*
X006485Y011046D01*
X006510Y011071D01*
X006560Y011071D01*
X006585Y011046D01*
X006585Y010971D01*
X006585Y011021D02*
X006635Y011071D01*
X006610Y011118D02*
X006635Y011143D01*
X006635Y011193D01*
X006610Y011218D01*
X006560Y011218D01*
X006535Y011193D01*
X006535Y011168D01*
X006560Y011118D01*
X006485Y011118D01*
X006485Y011218D01*
X006510Y011265D02*
X006485Y011290D01*
X006485Y011340D01*
X006510Y011365D01*
X006610Y011265D01*
X006635Y011290D01*
X006635Y011340D01*
X006610Y011365D01*
X006510Y011365D01*
X006510Y011413D02*
X006535Y011413D01*
X006560Y011438D01*
X006560Y011513D01*
X006610Y011513D02*
X006510Y011513D01*
X006485Y011488D01*
X006485Y011438D01*
X006510Y011413D01*
X006610Y011413D02*
X006635Y011438D01*
X006635Y011488D01*
X006610Y011513D01*
X006610Y011265D02*
X006510Y011265D01*
X006560Y009013D02*
X006560Y008913D01*
X006485Y008988D01*
X006635Y008988D01*
X006610Y008865D02*
X006635Y008840D01*
X006635Y008790D01*
X006610Y008765D01*
X006510Y008865D01*
X006610Y008865D01*
X006610Y008765D02*
X006510Y008765D01*
X006485Y008790D01*
X006485Y008840D01*
X006510Y008865D01*
X006485Y008718D02*
X006485Y008618D01*
X006560Y008618D01*
X006535Y008668D01*
X006535Y008693D01*
X006560Y008718D01*
X006610Y008718D01*
X006635Y008693D01*
X006635Y008643D01*
X006610Y008618D01*
X006610Y008571D02*
X006635Y008546D01*
X006635Y008496D01*
X006610Y008471D01*
X006510Y008471D01*
X006485Y008496D01*
X006485Y008546D01*
X006510Y008571D01*
X007725Y008607D02*
X007725Y008507D01*
X007800Y008507D01*
X007775Y008557D01*
X007775Y008582D01*
X007800Y008607D01*
X007850Y008607D01*
X007875Y008582D01*
X007875Y008532D01*
X007850Y008507D01*
X007850Y008460D02*
X007875Y008435D01*
X007875Y008385D01*
X007850Y008360D01*
X007750Y008360D01*
X007725Y008385D01*
X007725Y008435D01*
X007750Y008460D01*
X007750Y008655D02*
X007725Y008680D01*
X007725Y008730D01*
X007750Y008755D01*
X007850Y008655D01*
X007875Y008680D01*
X007875Y008730D01*
X007850Y008755D01*
X007750Y008755D01*
X007725Y008802D02*
X007800Y008802D01*
X007775Y008852D01*
X007775Y008877D01*
X007800Y008902D01*
X007850Y008902D01*
X007875Y008877D01*
X007875Y008827D01*
X007850Y008802D01*
X007725Y008802D02*
X007725Y008902D01*
X007750Y008655D02*
X007850Y008655D01*
X012485Y008618D02*
X012560Y008618D01*
X012535Y008668D01*
X012535Y008693D01*
X012560Y008718D01*
X012610Y008718D01*
X012635Y008693D01*
X012635Y008643D01*
X012610Y008618D01*
X012635Y008571D02*
X012585Y008521D01*
X012585Y008546D02*
X012585Y008471D01*
X012635Y008471D02*
X012485Y008471D01*
X012485Y008546D01*
X012510Y008571D01*
X012560Y008571D01*
X012585Y008546D01*
X012485Y008618D02*
X012485Y008718D01*
X012510Y008765D02*
X012485Y008790D01*
X012485Y008840D01*
X012510Y008865D01*
X012610Y008765D01*
X012635Y008790D01*
X012635Y008840D01*
X012610Y008865D01*
X012510Y008865D01*
X012485Y008913D02*
X012485Y009013D01*
X012510Y009013D01*
X012610Y008913D01*
X012635Y008913D01*
X012610Y008765D02*
X012510Y008765D01*
X013725Y008730D02*
X013750Y008755D01*
X013850Y008655D01*
X013875Y008680D01*
X013875Y008730D01*
X013850Y008755D01*
X013750Y008755D01*
X013725Y008730D02*
X013725Y008680D01*
X013750Y008655D01*
X013850Y008655D01*
X013875Y008607D02*
X013875Y008507D01*
X013775Y008607D01*
X013750Y008607D01*
X013725Y008582D01*
X013725Y008532D01*
X013750Y008507D01*
X013750Y008460D02*
X013800Y008460D01*
X013825Y008435D01*
X013825Y008360D01*
X013875Y008360D02*
X013725Y008360D01*
X013725Y008435D01*
X013750Y008460D01*
X013825Y008410D02*
X013875Y008460D01*
X013875Y008802D02*
X013875Y008902D01*
X013875Y008852D02*
X013725Y008852D01*
X013775Y008802D01*
X015725Y008802D02*
X015725Y008902D01*
X015750Y008902D01*
X015850Y008802D01*
X015875Y008802D01*
X015850Y008755D02*
X015750Y008755D01*
X015850Y008655D01*
X015875Y008680D01*
X015875Y008730D01*
X015850Y008755D01*
X015750Y008755D02*
X015725Y008730D01*
X015725Y008680D01*
X015750Y008655D01*
X015850Y008655D01*
X015875Y008607D02*
X015875Y008507D01*
X015775Y008607D01*
X015750Y008607D01*
X015725Y008582D01*
X015725Y008532D01*
X015750Y008507D01*
X015750Y008460D02*
X015800Y008460D01*
X015825Y008435D01*
X015825Y008360D01*
X015875Y008360D02*
X015725Y008360D01*
X015725Y008435D01*
X015750Y008460D01*
X015825Y008410D02*
X015875Y008460D01*
X020485Y008496D02*
X020510Y008471D01*
X020610Y008471D01*
X020635Y008496D01*
X020635Y008546D01*
X020610Y008571D01*
X020610Y008618D02*
X020635Y008643D01*
X020635Y008693D01*
X020610Y008718D01*
X020585Y008718D01*
X020560Y008693D01*
X020560Y008668D01*
X020560Y008693D02*
X020535Y008718D01*
X020510Y008718D01*
X020485Y008693D01*
X020485Y008643D01*
X020510Y008618D01*
X020510Y008571D02*
X020485Y008546D01*
X020485Y008496D01*
X020510Y008765D02*
X020485Y008790D01*
X020485Y008840D01*
X020510Y008865D01*
X020610Y008765D01*
X020635Y008790D01*
X020635Y008840D01*
X020610Y008865D01*
X020510Y008865D01*
X020560Y008913D02*
X020560Y008988D01*
X020585Y009013D01*
X020610Y009013D01*
X020635Y008988D01*
X020635Y008938D01*
X020610Y008913D01*
X020560Y008913D01*
X020510Y008963D01*
X020485Y009013D01*
X020510Y008765D02*
X020610Y008765D01*
X016635Y013471D02*
X016485Y013471D01*
X016485Y013546D01*
X016510Y013571D01*
X016560Y013571D01*
X016585Y013546D01*
X016585Y013471D01*
X016585Y013521D02*
X016635Y013571D01*
X016560Y013618D02*
X016560Y013718D01*
X016610Y013765D02*
X016510Y013865D01*
X016610Y013865D01*
X016635Y013840D01*
X016635Y013790D01*
X016610Y013765D01*
X016510Y013765D01*
X016485Y013790D01*
X016485Y013840D01*
X016510Y013865D01*
X016485Y013913D02*
X016485Y014013D01*
X016510Y014013D01*
X016610Y013913D01*
X016635Y013913D01*
X016635Y013693D02*
X016485Y013693D01*
X016560Y013618D01*
X014635Y013618D02*
X014535Y013718D01*
X014510Y013718D01*
X014485Y013693D01*
X014485Y013643D01*
X014510Y013618D01*
X014510Y013571D02*
X014560Y013571D01*
X014585Y013546D01*
X014585Y013471D01*
X014585Y013521D02*
X014635Y013571D01*
X014635Y013618D02*
X014635Y013718D01*
X014610Y013765D02*
X014510Y013865D01*
X014610Y013865D01*
X014635Y013840D01*
X014635Y013790D01*
X014610Y013765D01*
X014510Y013765D01*
X014485Y013790D01*
X014485Y013840D01*
X014510Y013865D01*
X014560Y013913D02*
X014560Y014013D01*
X014635Y013988D02*
X014485Y013988D01*
X014560Y013913D01*
X014510Y013571D02*
X014485Y013546D01*
X014485Y013471D01*
X014635Y013471D01*
X014610Y018471D02*
X014635Y018496D01*
X014635Y018546D01*
X014610Y018571D01*
X014635Y018618D02*
X014535Y018718D01*
X014510Y018718D01*
X014485Y018693D01*
X014485Y018643D01*
X014510Y018618D01*
X014510Y018571D02*
X014485Y018546D01*
X014485Y018496D01*
X014510Y018471D01*
X014610Y018471D01*
X014635Y018618D02*
X014635Y018718D01*
X014610Y018765D02*
X014510Y018865D01*
X014610Y018865D01*
X014635Y018840D01*
X014635Y018790D01*
X014610Y018765D01*
X014510Y018765D01*
X014485Y018790D01*
X014485Y018840D01*
X014510Y018865D01*
X014510Y018913D02*
X014485Y018938D01*
X014485Y018988D01*
X014510Y019013D01*
X014535Y019013D01*
X014635Y018913D01*
X014635Y019013D01*
X011875Y018877D02*
X011875Y018827D01*
X011850Y018802D01*
X011825Y018802D01*
X011800Y018827D01*
X011800Y018877D01*
X011825Y018902D01*
X011850Y018902D01*
X011875Y018877D01*
X011800Y018877D02*
X011775Y018902D01*
X011750Y018902D01*
X011725Y018877D01*
X011725Y018827D01*
X011750Y018802D01*
X011775Y018802D01*
X011800Y018827D01*
X011850Y018755D02*
X011875Y018730D01*
X011875Y018680D01*
X011850Y018655D01*
X011750Y018755D01*
X011850Y018755D01*
X011750Y018755D02*
X011725Y018730D01*
X011725Y018680D01*
X011750Y018655D01*
X011850Y018655D01*
X011875Y018607D02*
X011875Y018507D01*
X011775Y018607D01*
X011750Y018607D01*
X011725Y018582D01*
X011725Y018532D01*
X011750Y018507D01*
X011750Y018460D02*
X011800Y018460D01*
X011825Y018435D01*
X011825Y018360D01*
X011875Y018360D02*
X011725Y018360D01*
X011725Y018435D01*
X011750Y018460D01*
X011825Y018410D02*
X011875Y018460D01*
X007875Y018435D02*
X007850Y018460D01*
X007875Y018435D02*
X007875Y018385D01*
X007850Y018360D01*
X007750Y018360D01*
X007725Y018385D01*
X007725Y018435D01*
X007750Y018460D01*
X007725Y018507D02*
X007800Y018507D01*
X007775Y018557D01*
X007775Y018582D01*
X007800Y018607D01*
X007850Y018607D01*
X007875Y018582D01*
X007875Y018532D01*
X007850Y018507D01*
X007725Y018507D02*
X007725Y018607D01*
X007750Y018655D02*
X007725Y018680D01*
X007725Y018730D01*
X007750Y018755D01*
X007850Y018655D01*
X007875Y018680D01*
X007875Y018730D01*
X007850Y018755D01*
X007750Y018755D01*
X007775Y018802D02*
X007725Y018852D01*
X007875Y018852D01*
X007875Y018802D02*
X007875Y018902D01*
X007850Y018655D02*
X007750Y018655D01*
X007725Y020860D02*
X007725Y020935D01*
X007750Y020960D01*
X007800Y020960D01*
X007825Y020935D01*
X007825Y020860D01*
X007875Y020860D02*
X007725Y020860D01*
X007825Y020910D02*
X007875Y020960D01*
X007875Y021007D02*
X007775Y021107D01*
X007750Y021107D01*
X007725Y021082D01*
X007725Y021032D01*
X007750Y021007D01*
X007875Y021007D02*
X007875Y021107D01*
X007850Y021155D02*
X007750Y021255D01*
X007850Y021255D01*
X007875Y021230D01*
X007875Y021180D01*
X007850Y021155D01*
X007750Y021155D01*
X007725Y021180D01*
X007725Y021230D01*
X007750Y021255D01*
X007725Y021302D02*
X007800Y021302D01*
X007775Y021352D01*
X007775Y021377D01*
X007800Y021402D01*
X007850Y021402D01*
X007875Y021377D01*
X007875Y021327D01*
X007850Y021302D01*
X007725Y021302D02*
X007725Y021402D01*
X010485Y021340D02*
X010510Y021365D01*
X010610Y021265D01*
X010635Y021290D01*
X010635Y021340D01*
X010610Y021365D01*
X010510Y021365D01*
X010485Y021340D02*
X010485Y021290D01*
X010510Y021265D01*
X010610Y021265D01*
X010635Y021218D02*
X010635Y021118D01*
X010535Y021218D01*
X010510Y021218D01*
X010485Y021193D01*
X010485Y021143D01*
X010510Y021118D01*
X010510Y021071D02*
X010485Y021046D01*
X010485Y020996D01*
X010510Y020971D01*
X010610Y020971D01*
X010635Y020996D01*
X010635Y021046D01*
X010610Y021071D01*
X010560Y021413D02*
X010560Y021513D01*
X010635Y021488D02*
X010485Y021488D01*
X010560Y021413D01*
X012485Y021438D02*
X012510Y021413D01*
X012485Y021438D02*
X012485Y021488D01*
X012510Y021513D01*
X012535Y021513D01*
X012635Y021413D01*
X012635Y021513D01*
X012610Y021365D02*
X012635Y021340D01*
X012635Y021290D01*
X012610Y021265D01*
X012510Y021365D01*
X012610Y021365D01*
X012610Y021265D02*
X012510Y021265D01*
X012485Y021290D01*
X012485Y021340D01*
X012510Y021365D01*
X012510Y021218D02*
X012485Y021193D01*
X012485Y021143D01*
X012510Y021118D01*
X012510Y021071D02*
X012485Y021046D01*
X012485Y020996D01*
X012510Y020971D01*
X012610Y020971D01*
X012635Y020996D01*
X012635Y021046D01*
X012610Y021071D01*
X012610Y021118D02*
X012635Y021143D01*
X012635Y021193D01*
X012610Y021218D01*
X012585Y021218D01*
X012560Y021193D01*
X012560Y021168D01*
X012560Y021193D02*
X012535Y021218D01*
X012510Y021218D01*
X014485Y021193D02*
X014485Y021143D01*
X014510Y021118D01*
X014510Y021071D02*
X014560Y021071D01*
X014585Y021046D01*
X014585Y020971D01*
X014585Y021021D02*
X014635Y021071D01*
X014635Y021118D02*
X014535Y021218D01*
X014510Y021218D01*
X014485Y021193D01*
X014510Y021265D02*
X014485Y021290D01*
X014485Y021340D01*
X014510Y021365D01*
X014610Y021265D01*
X014635Y021290D01*
X014635Y021340D01*
X014610Y021365D01*
X014510Y021365D01*
X014510Y021413D02*
X014535Y021413D01*
X014560Y021438D01*
X014560Y021513D01*
X014610Y021513D02*
X014510Y021513D01*
X014485Y021488D01*
X014485Y021438D01*
X014510Y021413D01*
X014610Y021413D02*
X014635Y021438D01*
X014635Y021488D01*
X014610Y021513D01*
X014610Y021265D02*
X014510Y021265D01*
X014635Y021218D02*
X014635Y021118D01*
X014510Y021071D02*
X014485Y021046D01*
X014485Y020971D01*
X014635Y020971D01*
X014635Y023471D02*
X014485Y023471D01*
X014485Y023546D01*
X014510Y023571D01*
X014560Y023571D01*
X014585Y023546D01*
X014585Y023471D01*
X014585Y023521D02*
X014635Y023571D01*
X014635Y023618D02*
X014535Y023718D01*
X014510Y023718D01*
X014485Y023693D01*
X014485Y023643D01*
X014510Y023618D01*
X014635Y023618D02*
X014635Y023718D01*
X014635Y023765D02*
X014635Y023865D01*
X014635Y023815D02*
X014485Y023815D01*
X014535Y023765D01*
X014510Y023913D02*
X014485Y023938D01*
X014485Y023988D01*
X014510Y024013D01*
X014610Y023913D01*
X014635Y023938D01*
X014635Y023988D01*
X014610Y024013D01*
X014510Y024013D01*
X014510Y023913D02*
X014610Y023913D01*
X012635Y023913D02*
X012635Y024013D01*
X012635Y023963D02*
X012485Y023963D01*
X012535Y023913D01*
X012485Y023815D02*
X012635Y023815D01*
X012635Y023765D02*
X012635Y023865D01*
X012535Y023765D02*
X012485Y023815D01*
X012510Y023718D02*
X012485Y023693D01*
X012485Y023643D01*
X012510Y023618D01*
X012510Y023571D02*
X012560Y023571D01*
X012585Y023546D01*
X012585Y023471D01*
X012585Y023521D02*
X012635Y023571D01*
X012635Y023618D02*
X012535Y023718D01*
X012510Y023718D01*
X012635Y023718D02*
X012635Y023618D01*
X012510Y023571D02*
X012485Y023546D01*
X012485Y023471D01*
X012635Y023471D01*
X010635Y023496D02*
X010635Y023546D01*
X010610Y023571D01*
X010635Y023618D02*
X010535Y023718D01*
X010510Y023718D01*
X010485Y023693D01*
X010485Y023643D01*
X010510Y023618D01*
X010510Y023571D02*
X010485Y023546D01*
X010485Y023496D01*
X010510Y023471D01*
X010610Y023471D01*
X010635Y023496D01*
X010635Y023618D02*
X010635Y023718D01*
X010610Y023765D02*
X010510Y023865D01*
X010610Y023865D01*
X010635Y023840D01*
X010635Y023790D01*
X010610Y023765D01*
X010510Y023765D01*
X010485Y023790D01*
X010485Y023840D01*
X010510Y023865D01*
X010485Y023913D02*
X010560Y023913D01*
X010535Y023963D01*
X010535Y023988D01*
X010560Y024013D01*
X010610Y024013D01*
X010635Y023988D01*
X010635Y023938D01*
X010610Y023913D01*
X010485Y023913D02*
X010485Y024013D01*
X008635Y023988D02*
X008635Y023938D01*
X008610Y023913D01*
X008610Y023865D02*
X008635Y023840D01*
X008635Y023790D01*
X008610Y023765D01*
X008510Y023865D01*
X008610Y023865D01*
X008610Y023765D02*
X008510Y023765D01*
X008485Y023790D01*
X008485Y023840D01*
X008510Y023865D01*
X008510Y023913D02*
X008485Y023938D01*
X008485Y023988D01*
X008510Y024013D01*
X008535Y024013D01*
X008560Y023988D01*
X008585Y024013D01*
X008610Y024013D01*
X008635Y023988D01*
X008560Y023988D02*
X008560Y023963D01*
X008535Y023718D02*
X008510Y023718D01*
X008485Y023693D01*
X008485Y023643D01*
X008510Y023618D01*
X008510Y023571D02*
X008485Y023546D01*
X008485Y023496D01*
X008510Y023471D01*
X008610Y023471D01*
X008635Y023496D01*
X008635Y023546D01*
X008610Y023571D01*
X008635Y023618D02*
X008535Y023718D01*
X008635Y023718D02*
X008635Y023618D01*
X006635Y023643D02*
X006610Y023618D01*
X006635Y023643D02*
X006635Y023693D01*
X006610Y023718D01*
X006560Y023718D01*
X006535Y023693D01*
X006535Y023668D01*
X006560Y023618D01*
X006485Y023618D01*
X006485Y023718D01*
X006535Y023765D02*
X006485Y023815D01*
X006635Y023815D01*
X006635Y023765D02*
X006635Y023865D01*
X006610Y023913D02*
X006510Y024013D01*
X006610Y024013D01*
X006635Y023988D01*
X006635Y023938D01*
X006610Y023913D01*
X006510Y023913D01*
X006485Y023938D01*
X006485Y023988D01*
X006510Y024013D01*
X006510Y023571D02*
X006560Y023571D01*
X006585Y023546D01*
X006585Y023471D01*
X006585Y023521D02*
X006635Y023571D01*
X006635Y023471D02*
X006485Y023471D01*
X006485Y023546D01*
X006510Y023571D01*
X003875Y021377D02*
X003850Y021402D01*
X003825Y021402D01*
X003800Y021377D01*
X003800Y021302D01*
X003850Y021302D01*
X003875Y021327D01*
X003875Y021377D01*
X003800Y021302D02*
X003750Y021352D01*
X003725Y021402D01*
X003750Y021255D02*
X003850Y021155D01*
X003875Y021180D01*
X003875Y021230D01*
X003850Y021255D01*
X003750Y021255D01*
X003725Y021230D01*
X003725Y021180D01*
X003750Y021155D01*
X003850Y021155D01*
X003850Y021107D02*
X003875Y021082D01*
X003875Y021032D01*
X003850Y021007D01*
X003850Y020960D02*
X003875Y020935D01*
X003875Y020885D01*
X003850Y020860D01*
X003750Y020860D01*
X003725Y020885D01*
X003725Y020935D01*
X003750Y020960D01*
X003725Y021007D02*
X003800Y021007D01*
X003775Y021057D01*
X003775Y021082D01*
X003800Y021107D01*
X003850Y021107D01*
X003725Y021107D02*
X003725Y021007D01*
X033725Y011352D02*
X033875Y011352D01*
X033875Y011302D02*
X033875Y011402D01*
X033775Y011302D02*
X033725Y011352D01*
X033750Y011255D02*
X033850Y011155D01*
X033875Y011180D01*
X033875Y011230D01*
X033850Y011255D01*
X033750Y011255D01*
X033725Y011230D01*
X033725Y011180D01*
X033750Y011155D01*
X033850Y011155D01*
X033875Y011107D02*
X033875Y011007D01*
X033875Y011057D02*
X033725Y011057D01*
X033775Y011007D01*
X033750Y010960D02*
X033725Y010935D01*
X033725Y010885D01*
X033750Y010860D01*
X033850Y010860D01*
X033875Y010885D01*
X033875Y010935D01*
X033850Y010960D01*
D15*
X032180Y011205D03*
X036180Y011205D03*
X038180Y011205D03*
X036180Y008705D03*
X034180Y008705D03*
X032180Y008705D03*
X028180Y008705D03*
X028180Y011205D03*
X024180Y013705D03*
X016180Y013705D03*
X014180Y013705D03*
X014180Y011205D03*
X016180Y011205D03*
X016180Y008705D03*
X014180Y008705D03*
X012180Y008705D03*
X008180Y011205D03*
X006180Y011205D03*
X012180Y018705D03*
X014180Y021205D03*
X018180Y021205D03*
X020180Y021205D03*
X018180Y023705D03*
X014180Y023705D03*
X012180Y023705D03*
X008180Y021205D03*
X006180Y023705D03*
X022180Y018705D03*
X026180Y018705D03*
X026180Y021205D03*
X028180Y021205D03*
X034180Y021205D03*
X034180Y018705D03*
X034180Y016205D03*
X036180Y016205D03*
X036180Y013705D03*
D16*
X034192Y011205D02*
X034168Y011205D01*
X030192Y011205D02*
X030168Y011205D01*
X030192Y008705D02*
X030168Y008705D01*
X020192Y008705D02*
X020168Y008705D01*
X018192Y011205D02*
X018168Y011205D01*
X012192Y011205D02*
X012168Y011205D01*
X010192Y011205D02*
X010168Y011205D01*
X008192Y008705D02*
X008168Y008705D01*
X006192Y008705D02*
X006168Y008705D01*
X008168Y018705D02*
X008192Y018705D01*
X010168Y021205D02*
X010192Y021205D01*
X012168Y021205D02*
X012192Y021205D01*
X014168Y018705D02*
X014192Y018705D01*
X020168Y018705D02*
X020192Y018705D01*
X024168Y018705D02*
X024192Y018705D01*
X028168Y018705D02*
X028192Y018705D01*
X030168Y018705D02*
X030192Y018705D01*
X032168Y018705D02*
X032192Y018705D01*
X036168Y018705D02*
X036192Y018705D01*
X030192Y021205D02*
X030168Y021205D01*
X022192Y021205D02*
X022168Y021205D01*
X010192Y023705D02*
X010168Y023705D01*
X008192Y023705D02*
X008168Y023705D01*
X004192Y021205D02*
X004168Y021205D01*
D17*
X021109Y004894D02*
X021345Y004894D01*
X021109Y004894D02*
X021109Y004048D01*
X022251Y004048D02*
X022251Y004894D01*
X022015Y004894D01*
X024609Y004894D02*
X024609Y004048D01*
X025751Y004048D02*
X025751Y004894D01*
X025515Y004894D01*
X024845Y004894D02*
X024609Y004894D01*
X028109Y004894D02*
X028109Y004048D01*
X029251Y004048D02*
X029251Y004894D01*
X029015Y004894D01*
X028345Y004894D02*
X028109Y004894D01*
X031609Y004894D02*
X031609Y004048D01*
X032751Y004048D02*
X032751Y004894D01*
X032515Y004894D01*
X031845Y004894D02*
X031609Y004894D01*
D18*
X031410Y004856D02*
X031103Y005163D01*
X031026Y005163D01*
X030950Y005086D01*
X030950Y004933D01*
X031026Y004856D01*
X031026Y004703D02*
X031333Y004396D01*
X031410Y004473D01*
X031410Y004626D01*
X031333Y004703D01*
X031026Y004703D01*
X030950Y004626D01*
X030950Y004473D01*
X031026Y004396D01*
X031333Y004396D01*
X031410Y004242D02*
X031410Y003935D01*
X031410Y003782D02*
X031257Y003628D01*
X031257Y003705D02*
X031257Y003475D01*
X031410Y003475D02*
X030950Y003475D01*
X030950Y003705D01*
X031026Y003782D01*
X031180Y003782D01*
X031257Y003705D01*
X031103Y003935D02*
X030950Y004089D01*
X031410Y004089D01*
X031410Y004856D02*
X031410Y005163D01*
X027910Y005086D02*
X027910Y004933D01*
X027833Y004856D01*
X027833Y004703D02*
X027910Y004626D01*
X027910Y004473D01*
X027833Y004396D01*
X027526Y004703D01*
X027833Y004703D01*
X027526Y004703D02*
X027450Y004626D01*
X027450Y004473D01*
X027526Y004396D01*
X027833Y004396D01*
X027833Y004242D02*
X027680Y004242D01*
X027603Y004166D01*
X027603Y004089D01*
X027680Y003935D01*
X027450Y003935D01*
X027450Y004242D01*
X027833Y004242D02*
X027910Y004166D01*
X027910Y004012D01*
X027833Y003935D01*
X027910Y003782D02*
X027757Y003628D01*
X027757Y003705D02*
X027757Y003475D01*
X027910Y003475D02*
X027450Y003475D01*
X027450Y003705D01*
X027526Y003782D01*
X027680Y003782D01*
X027757Y003705D01*
X027526Y004856D02*
X027450Y004933D01*
X027450Y005086D01*
X027526Y005163D01*
X027603Y005163D01*
X027680Y005086D01*
X027757Y005163D01*
X027833Y005163D01*
X027910Y005086D01*
X027680Y005086D02*
X027680Y005010D01*
X024410Y005086D02*
X024410Y004933D01*
X024333Y004856D01*
X024257Y004856D01*
X024180Y004933D01*
X024180Y005086D01*
X024257Y005163D01*
X024333Y005163D01*
X024410Y005086D01*
X024180Y005086D02*
X024103Y005163D01*
X024026Y005163D01*
X023950Y005086D01*
X023950Y004933D01*
X024026Y004856D01*
X024103Y004856D01*
X024180Y004933D01*
X024333Y004703D02*
X024410Y004626D01*
X024410Y004473D01*
X024333Y004396D01*
X024026Y004703D01*
X024333Y004703D01*
X024026Y004703D02*
X023950Y004626D01*
X023950Y004473D01*
X024026Y004396D01*
X024333Y004396D01*
X024180Y004242D02*
X024180Y003935D01*
X023950Y004166D01*
X024410Y004166D01*
X024410Y003782D02*
X024257Y003628D01*
X024257Y003705D02*
X024257Y003475D01*
X024410Y003475D02*
X023950Y003475D01*
X023950Y003705D01*
X024026Y003782D01*
X024180Y003782D01*
X024257Y003705D01*
X020910Y003782D02*
X020757Y003628D01*
X020757Y003705D02*
X020757Y003475D01*
X020910Y003475D02*
X020450Y003475D01*
X020450Y003705D01*
X020526Y003782D01*
X020680Y003782D01*
X020757Y003705D01*
X020910Y003935D02*
X020603Y004242D01*
X020526Y004242D01*
X020450Y004166D01*
X020450Y004012D01*
X020526Y003935D01*
X020910Y003935D02*
X020910Y004242D01*
X020833Y004396D02*
X020526Y004396D01*
X020450Y004473D01*
X020450Y004626D01*
X020526Y004703D01*
X020833Y004396D01*
X020910Y004473D01*
X020910Y004626D01*
X020833Y004703D01*
X020526Y004703D01*
X020526Y004856D02*
X020450Y004933D01*
X020450Y005086D01*
X020526Y005163D01*
X020603Y005163D01*
X020910Y004856D01*
X020910Y005163D01*
X026950Y007710D02*
X027026Y007633D01*
X027333Y007633D01*
X027410Y007710D01*
X027410Y007864D01*
X027333Y007940D01*
X027026Y007940D01*
X026950Y007864D01*
X026950Y007710D01*
X027257Y007787D02*
X027410Y007940D01*
X027180Y008094D02*
X027180Y008401D01*
X027333Y008554D02*
X027026Y008554D01*
X026950Y008631D01*
X026950Y008784D01*
X027026Y008861D01*
X027333Y008554D01*
X027410Y008631D01*
X027410Y008784D01*
X027333Y008861D01*
X027026Y008861D01*
X027103Y009015D02*
X026950Y009168D01*
X027410Y009168D01*
X027410Y009015D02*
X027410Y009322D01*
X027410Y008324D02*
X026950Y008324D01*
X027180Y008094D01*
X009410Y008052D02*
X009333Y007975D01*
X009026Y007975D01*
X008950Y008052D01*
X008950Y008205D01*
X009026Y008282D01*
X009333Y008282D01*
X009410Y008205D01*
X009410Y008052D01*
X009257Y008128D02*
X009410Y008282D01*
X009333Y008435D02*
X009410Y008512D01*
X009410Y008666D01*
X009333Y008742D01*
X009180Y008742D01*
X009103Y008666D01*
X009103Y008589D01*
X009180Y008435D01*
X008950Y008435D01*
X008950Y008742D01*
X009026Y008896D02*
X008950Y008973D01*
X008950Y009126D01*
X009026Y009203D01*
X009333Y008896D01*
X009410Y008973D01*
X009410Y009126D01*
X009333Y009203D01*
X009026Y009203D01*
X009026Y009356D02*
X008950Y009433D01*
X008950Y009586D01*
X009026Y009663D01*
X009103Y009663D01*
X009180Y009586D01*
X009257Y009663D01*
X009333Y009663D01*
X009410Y009586D01*
X009410Y009433D01*
X009333Y009356D01*
X009180Y009510D02*
X009180Y009586D01*
X009333Y008896D02*
X009026Y008896D01*
X006797Y017475D02*
X006490Y017475D01*
X006643Y017475D02*
X006643Y017935D01*
X006490Y017782D01*
X006336Y017859D02*
X006029Y017552D01*
X006106Y017475D01*
X006259Y017475D01*
X006336Y017552D01*
X006336Y017859D01*
X006259Y017935D01*
X006106Y017935D01*
X006029Y017859D01*
X006029Y017552D01*
X005876Y017552D02*
X005799Y017475D01*
X005646Y017475D01*
X005569Y017552D01*
X005569Y017705D02*
X005722Y017782D01*
X005799Y017782D01*
X005876Y017705D01*
X005876Y017552D01*
X005569Y017705D02*
X005569Y017935D01*
X005876Y017935D01*
X005415Y017859D02*
X005415Y017552D01*
X005339Y017475D01*
X005185Y017475D01*
X005108Y017552D01*
X005108Y017859D01*
X005185Y017935D01*
X005339Y017935D01*
X005415Y017859D01*
X005262Y017628D02*
X005415Y017475D01*
X022950Y020552D02*
X023026Y020475D01*
X023333Y020475D01*
X023410Y020552D01*
X023410Y020705D01*
X023333Y020782D01*
X023026Y020782D01*
X022950Y020705D01*
X022950Y020552D01*
X023257Y020628D02*
X023410Y020782D01*
X023333Y020935D02*
X023410Y021012D01*
X023410Y021166D01*
X023333Y021242D01*
X023180Y021242D01*
X023103Y021166D01*
X023103Y021089D01*
X023180Y020935D01*
X022950Y020935D01*
X022950Y021242D01*
X023026Y021396D02*
X022950Y021473D01*
X022950Y021626D01*
X023026Y021703D01*
X023333Y021396D01*
X023410Y021473D01*
X023410Y021626D01*
X023333Y021703D01*
X023026Y021703D01*
X023026Y021856D02*
X022950Y021933D01*
X022950Y022086D01*
X023026Y022163D01*
X023103Y022163D01*
X023410Y021856D01*
X023410Y022163D01*
X023333Y021396D02*
X023026Y021396D01*
D19*
X016810Y020703D02*
X016729Y020703D01*
X015550Y020703D01*
X015550Y023697D01*
X015729Y023697D01*
X016810Y023697D01*
X016810Y020703D01*
X016729Y020703D02*
X016706Y020703D01*
X016355Y022330D02*
X016005Y022330D01*
X016180Y022480D01*
X016355Y022330D01*
X016355Y022480D02*
X016005Y022480D01*
X015729Y023697D02*
X015631Y023697D01*
M02*
