G75*
%MOIN*%
%OFA0B0*%
%FSLAX24Y24*%
%IPPOS*%
%LPD*%
%AMOC8*
5,1,8,0,0,1.08239X$1,22.5*
%
%ADD10C,0.0000*%
%ADD11R,0.0220X0.0780*%
%ADD12R,0.0394X0.0433*%
%ADD13R,0.0591X0.0630*%
%ADD14R,0.0472X0.0472*%
%ADD15R,0.0551X0.0394*%
%ADD16R,0.1000X0.1000*%
%ADD17R,0.0394X0.0551*%
%ADD18C,0.1500*%
%ADD19C,0.0160*%
%ADD20C,0.0356*%
%ADD21C,0.0320*%
D10*
X000680Y000705D02*
X039680Y000705D01*
X039680Y026705D01*
X000680Y026705D01*
X000680Y026701D02*
X000680Y000705D01*
D11*
X008680Y014235D03*
X009180Y014235D03*
X009680Y014235D03*
X010180Y014235D03*
X010680Y014235D03*
X011180Y014235D03*
X011680Y014235D03*
X011680Y016175D03*
X011180Y016175D03*
X010680Y016175D03*
X010180Y016175D03*
X009680Y016175D03*
X009180Y016175D03*
X008680Y016175D03*
X018680Y016175D03*
X019180Y016175D03*
X019680Y016175D03*
X020180Y016175D03*
X020680Y016175D03*
X021180Y016175D03*
X021680Y016175D03*
X021680Y014235D03*
X021180Y014235D03*
X020680Y014235D03*
X020180Y014235D03*
X019680Y014235D03*
X019180Y014235D03*
X018680Y014235D03*
X029680Y014235D03*
X030180Y014235D03*
X030680Y014235D03*
X031180Y014235D03*
X031680Y014235D03*
X032180Y014235D03*
X032680Y014235D03*
X032680Y016175D03*
X032180Y016175D03*
X031680Y016175D03*
X031180Y016175D03*
X030680Y016175D03*
X030180Y016175D03*
X029680Y016175D03*
D12*
X030180Y018370D03*
X030180Y019040D03*
X028180Y019040D03*
X028180Y018370D03*
X026180Y018370D03*
X026180Y019040D03*
X024180Y019040D03*
X024180Y018370D03*
X022180Y018370D03*
X022180Y019040D03*
X020180Y019040D03*
X020180Y018370D03*
X020180Y020870D03*
X020180Y021540D03*
X022180Y021540D03*
X022180Y020870D03*
X018180Y020870D03*
X018180Y021540D03*
X018180Y023370D03*
X018180Y024040D03*
X014180Y024040D03*
X014180Y023370D03*
X012180Y023370D03*
X012180Y024040D03*
X010180Y024040D03*
X010180Y023370D03*
X008180Y023370D03*
X008180Y024040D03*
X006180Y024040D03*
X006180Y023370D03*
X004180Y021540D03*
X004180Y020870D03*
X008180Y020870D03*
X008180Y021540D03*
X010180Y021540D03*
X010180Y020870D03*
X012180Y020870D03*
X012180Y021540D03*
X014180Y021540D03*
X014180Y020870D03*
X014180Y019040D03*
X014180Y018370D03*
X012180Y018370D03*
X012180Y019040D03*
X008180Y019040D03*
X008180Y018370D03*
X014180Y014040D03*
X014180Y013370D03*
X016180Y013370D03*
X016180Y014040D03*
X016180Y011540D03*
X016180Y010870D03*
X014180Y010870D03*
X014180Y011540D03*
X012180Y011540D03*
X012180Y010870D03*
X010180Y010870D03*
X010180Y011540D03*
X008180Y011540D03*
X008180Y010870D03*
X006180Y010870D03*
X006180Y011540D03*
X006180Y009040D03*
X006180Y008370D03*
X008180Y008370D03*
X008180Y009040D03*
X012180Y009040D03*
X012180Y008370D03*
X014180Y008370D03*
X014180Y009040D03*
X016180Y009040D03*
X016180Y008370D03*
X020180Y008370D03*
X020180Y009040D03*
X018180Y010870D03*
X018180Y011540D03*
X024180Y013370D03*
X024180Y014040D03*
X028180Y011540D03*
X028180Y010870D03*
X030180Y010870D03*
X030180Y011540D03*
X032180Y011540D03*
X032180Y010870D03*
X034180Y010870D03*
X034180Y011540D03*
X036180Y011540D03*
X036180Y010870D03*
X038180Y010870D03*
X038180Y011540D03*
X036180Y013370D03*
X036180Y014040D03*
X036180Y015870D03*
X036180Y016540D03*
X034180Y016540D03*
X034180Y015870D03*
X034180Y018370D03*
X034180Y019040D03*
X032180Y019040D03*
X032180Y018370D03*
X036180Y018370D03*
X036180Y019040D03*
X034180Y020870D03*
X034180Y021540D03*
X030180Y021540D03*
X030180Y020870D03*
X028180Y020870D03*
X028180Y021540D03*
X026180Y021540D03*
X026180Y020870D03*
X028180Y009040D03*
X028180Y008370D03*
X030180Y008370D03*
X030180Y009040D03*
X032180Y009040D03*
X032180Y008370D03*
X034180Y008370D03*
X034180Y009040D03*
X036180Y009040D03*
X036180Y008370D03*
D13*
X032180Y004796D03*
X028680Y004796D03*
X025180Y004796D03*
X021680Y004796D03*
D14*
X021286Y003486D03*
X022074Y003486D03*
X024786Y003486D03*
X025574Y003486D03*
X028286Y003486D03*
X029074Y003486D03*
X031786Y003486D03*
X032574Y003486D03*
D15*
X025747Y008331D03*
X026613Y008705D03*
X025747Y009079D03*
X010613Y009079D03*
X009747Y008705D03*
X010613Y008331D03*
X024613Y020831D03*
X024613Y021579D03*
X023747Y021205D03*
D16*
X016180Y021280D03*
X016180Y023130D03*
D17*
X006554Y019138D03*
X005806Y019138D03*
X006180Y018272D03*
D18*
X006680Y003205D03*
X010680Y003205D03*
X014680Y003205D03*
X018680Y003205D03*
X002680Y003205D03*
D19*
X002680Y021205D01*
X004180Y022705D01*
X004180Y021540D01*
X003680Y021469D02*
X003241Y021469D01*
X003399Y021627D02*
X003680Y021627D01*
X003680Y021786D02*
X003558Y021786D01*
X003680Y021908D02*
X003680Y014705D01*
X003970Y014705D01*
X003970Y012118D01*
X005428Y010660D01*
X005853Y010660D01*
X005853Y010600D01*
X005929Y010524D01*
X006431Y010524D01*
X006507Y010600D01*
X006507Y011141D01*
X006443Y011205D01*
X006507Y011269D01*
X006507Y011330D01*
X007853Y011330D01*
X007853Y011269D01*
X007917Y011205D01*
X007853Y011141D01*
X007853Y010600D01*
X007929Y010524D01*
X007970Y010524D01*
X007970Y009386D01*
X007929Y009386D01*
X007853Y009310D01*
X007853Y009250D01*
X006507Y009250D01*
X006507Y009310D01*
X006431Y009386D01*
X005929Y009386D01*
X005853Y009310D01*
X005853Y008769D01*
X005917Y008705D01*
X005853Y008641D01*
X005853Y008100D01*
X005929Y008024D01*
X005970Y008024D01*
X005970Y005618D01*
X006093Y005495D01*
X006267Y005495D01*
X006390Y005618D01*
X006390Y006198D01*
X006593Y005995D01*
X011454Y005995D01*
X011505Y005944D01*
X011619Y005897D01*
X011741Y005897D01*
X011855Y005944D01*
X011941Y006030D01*
X011988Y006144D01*
X011988Y006266D01*
X011941Y006380D01*
X011855Y006466D01*
X011741Y006513D01*
X011619Y006513D01*
X011505Y006466D01*
X011454Y006415D01*
X006767Y006415D01*
X006390Y006792D01*
X006390Y008024D01*
X006431Y008024D01*
X006507Y008100D01*
X006507Y008641D01*
X006443Y008705D01*
X006507Y008769D01*
X006507Y008830D01*
X006970Y008830D01*
X006970Y007618D01*
X007470Y007118D01*
X007593Y006995D01*
X011767Y006995D01*
X012267Y007495D01*
X012390Y007618D01*
X012390Y008024D01*
X012431Y008024D01*
X012507Y008100D01*
X012507Y008641D01*
X012443Y008705D01*
X012507Y008769D01*
X012507Y009310D01*
X012470Y009347D01*
X012470Y009915D01*
X013075Y009915D01*
X013119Y009897D01*
X013241Y009897D01*
X013355Y009944D01*
X013441Y010030D01*
X013488Y010144D01*
X013488Y010266D01*
X013441Y010380D01*
X013355Y010466D01*
X013241Y010513D01*
X013119Y010513D01*
X013075Y010495D01*
X012470Y010495D01*
X012470Y010563D01*
X012507Y010600D01*
X012507Y011141D01*
X012443Y011205D01*
X012507Y011269D01*
X012507Y011330D01*
X013853Y011330D01*
X013853Y011269D01*
X013917Y011205D01*
X013853Y011141D01*
X013853Y010600D01*
X013929Y010524D01*
X013970Y010524D01*
X013970Y009386D01*
X013929Y009386D01*
X013853Y009310D01*
X013853Y009250D01*
X013428Y009250D01*
X013093Y008915D01*
X012970Y008792D01*
X012970Y007618D01*
X013093Y007495D01*
X013093Y007495D01*
X015470Y005118D01*
X015593Y004995D01*
X015680Y004995D01*
X015680Y000885D01*
X000860Y000885D01*
X000860Y026525D01*
X003680Y026525D01*
X003680Y022502D01*
X002470Y021292D01*
X002470Y004071D01*
X002182Y003951D01*
X001934Y003703D01*
X001800Y003380D01*
X001800Y003030D01*
X001934Y002707D01*
X002182Y002459D01*
X002505Y002325D01*
X002855Y002325D01*
X003178Y002459D01*
X003426Y002707D01*
X003560Y003030D01*
X003560Y003380D01*
X003426Y003703D01*
X003178Y003951D01*
X002890Y004071D01*
X002890Y021118D01*
X003680Y021908D01*
X003439Y022261D02*
X000860Y022261D01*
X000860Y022103D02*
X003281Y022103D01*
X003122Y021944D02*
X000860Y021944D01*
X000860Y021786D02*
X002964Y021786D01*
X002805Y021627D02*
X000860Y021627D01*
X000860Y021469D02*
X002647Y021469D01*
X002488Y021310D02*
X000860Y021310D01*
X000860Y021152D02*
X002470Y021152D01*
X002470Y020993D02*
X000860Y020993D01*
X000860Y020835D02*
X002470Y020835D01*
X002470Y020676D02*
X000860Y020676D01*
X000860Y020518D02*
X002470Y020518D01*
X002470Y020359D02*
X000860Y020359D01*
X000860Y020201D02*
X002470Y020201D01*
X002470Y020042D02*
X000860Y020042D01*
X000860Y019884D02*
X002470Y019884D01*
X002470Y019725D02*
X000860Y019725D01*
X000860Y019567D02*
X002470Y019567D01*
X002470Y019408D02*
X000860Y019408D01*
X000860Y019250D02*
X002470Y019250D01*
X002470Y019091D02*
X000860Y019091D01*
X000860Y018933D02*
X002470Y018933D01*
X002470Y018774D02*
X000860Y018774D01*
X000860Y018616D02*
X002470Y018616D01*
X002470Y018457D02*
X000860Y018457D01*
X000860Y018299D02*
X002470Y018299D01*
X002470Y018140D02*
X000860Y018140D01*
X000860Y017982D02*
X002470Y017982D01*
X002470Y017823D02*
X000860Y017823D01*
X000860Y017665D02*
X002470Y017665D01*
X002470Y017506D02*
X000860Y017506D01*
X000860Y017348D02*
X002470Y017348D01*
X002470Y017189D02*
X000860Y017189D01*
X000860Y017031D02*
X002470Y017031D01*
X002470Y016872D02*
X000860Y016872D01*
X000860Y016714D02*
X002470Y016714D01*
X002470Y016555D02*
X000860Y016555D01*
X000860Y016397D02*
X002470Y016397D01*
X002470Y016238D02*
X000860Y016238D01*
X000860Y016080D02*
X002470Y016080D01*
X002470Y015921D02*
X000860Y015921D01*
X000860Y015763D02*
X002470Y015763D01*
X002470Y015604D02*
X000860Y015604D01*
X000860Y015446D02*
X002470Y015446D01*
X002470Y015287D02*
X000860Y015287D01*
X000860Y015129D02*
X002470Y015129D01*
X002470Y014970D02*
X000860Y014970D01*
X000860Y014812D02*
X002470Y014812D01*
X002470Y014653D02*
X000860Y014653D01*
X000860Y014495D02*
X002470Y014495D01*
X002470Y014336D02*
X000860Y014336D01*
X000860Y014178D02*
X002470Y014178D01*
X002470Y014019D02*
X000860Y014019D01*
X000860Y013861D02*
X002470Y013861D01*
X002470Y013702D02*
X000860Y013702D01*
X000860Y013544D02*
X002470Y013544D01*
X002470Y013385D02*
X000860Y013385D01*
X000860Y013227D02*
X002470Y013227D01*
X002470Y013068D02*
X000860Y013068D01*
X000860Y012910D02*
X002470Y012910D01*
X002470Y012751D02*
X000860Y012751D01*
X000860Y012593D02*
X002470Y012593D01*
X002470Y012434D02*
X000860Y012434D01*
X000860Y012276D02*
X002470Y012276D01*
X002470Y012117D02*
X000860Y012117D01*
X000860Y011959D02*
X002470Y011959D01*
X002470Y011800D02*
X000860Y011800D01*
X000860Y011642D02*
X002470Y011642D01*
X002470Y011483D02*
X000860Y011483D01*
X000860Y011325D02*
X002470Y011325D01*
X002470Y011166D02*
X000860Y011166D01*
X000860Y011008D02*
X002470Y011008D01*
X002470Y010849D02*
X000860Y010849D01*
X000860Y010691D02*
X002470Y010691D01*
X002470Y010532D02*
X000860Y010532D01*
X000860Y010374D02*
X002470Y010374D01*
X002470Y010215D02*
X000860Y010215D01*
X000860Y010057D02*
X002470Y010057D01*
X002470Y009898D02*
X000860Y009898D01*
X000860Y009740D02*
X002470Y009740D01*
X002470Y009581D02*
X000860Y009581D01*
X000860Y009423D02*
X002470Y009423D01*
X002470Y009264D02*
X000860Y009264D01*
X000860Y009106D02*
X002470Y009106D01*
X002470Y008947D02*
X000860Y008947D01*
X000860Y008789D02*
X002470Y008789D01*
X002470Y008630D02*
X000860Y008630D01*
X000860Y008472D02*
X002470Y008472D01*
X002470Y008313D02*
X000860Y008313D01*
X000860Y008155D02*
X002470Y008155D01*
X002470Y007996D02*
X000860Y007996D01*
X000860Y007838D02*
X002470Y007838D01*
X002470Y007679D02*
X000860Y007679D01*
X000860Y007521D02*
X002470Y007521D01*
X002470Y007362D02*
X000860Y007362D01*
X000860Y007204D02*
X002470Y007204D01*
X002470Y007045D02*
X000860Y007045D01*
X000860Y006887D02*
X002470Y006887D01*
X002470Y006728D02*
X000860Y006728D01*
X000860Y006570D02*
X002470Y006570D01*
X002470Y006411D02*
X000860Y006411D01*
X000860Y006253D02*
X002470Y006253D01*
X002470Y006094D02*
X000860Y006094D01*
X000860Y005936D02*
X002470Y005936D01*
X002470Y005777D02*
X000860Y005777D01*
X000860Y005619D02*
X002470Y005619D01*
X002470Y005460D02*
X000860Y005460D01*
X000860Y005302D02*
X002470Y005302D01*
X002470Y005143D02*
X000860Y005143D01*
X000860Y004985D02*
X002470Y004985D01*
X002470Y004826D02*
X000860Y004826D01*
X000860Y004668D02*
X002470Y004668D01*
X002470Y004509D02*
X000860Y004509D01*
X000860Y004351D02*
X002470Y004351D01*
X002470Y004192D02*
X000860Y004192D01*
X000860Y004034D02*
X002381Y004034D01*
X002105Y003875D02*
X000860Y003875D01*
X000860Y003717D02*
X001947Y003717D01*
X001874Y003558D02*
X000860Y003558D01*
X000860Y003400D02*
X001808Y003400D01*
X001800Y003241D02*
X000860Y003241D01*
X000860Y003083D02*
X001800Y003083D01*
X001844Y002924D02*
X000860Y002924D01*
X000860Y002766D02*
X001910Y002766D01*
X002033Y002607D02*
X000860Y002607D01*
X000860Y002449D02*
X002207Y002449D01*
X003153Y002449D02*
X006207Y002449D01*
X006182Y002459D02*
X006505Y002325D01*
X006855Y002325D01*
X007178Y002459D01*
X007426Y002707D01*
X007560Y003030D01*
X007560Y003380D01*
X007426Y003703D01*
X007178Y003951D01*
X006855Y004085D01*
X006505Y004085D01*
X006182Y003951D01*
X005934Y003703D01*
X005800Y003380D01*
X005800Y003030D01*
X005934Y002707D01*
X006182Y002459D01*
X006033Y002607D02*
X003327Y002607D01*
X003450Y002766D02*
X005910Y002766D01*
X005844Y002924D02*
X003516Y002924D01*
X003560Y003083D02*
X005800Y003083D01*
X005800Y003241D02*
X003560Y003241D01*
X003552Y003400D02*
X005808Y003400D01*
X005874Y003558D02*
X003486Y003558D01*
X003413Y003717D02*
X005947Y003717D01*
X006105Y003875D02*
X003255Y003875D01*
X002979Y004034D02*
X006381Y004034D01*
X006979Y004034D02*
X010257Y004034D01*
X010229Y004020D02*
X010141Y003965D01*
X010059Y003900D01*
X009985Y003826D01*
X009920Y003744D01*
X009865Y003656D01*
X009819Y003561D01*
X009785Y003463D01*
X009762Y003361D01*
X009753Y003285D01*
X010600Y003285D01*
X010600Y004132D01*
X010524Y004123D01*
X010422Y004100D01*
X010324Y004066D01*
X010229Y004020D01*
X010035Y003875D02*
X007255Y003875D01*
X007413Y003717D02*
X009903Y003717D01*
X009818Y003558D02*
X007486Y003558D01*
X007552Y003400D02*
X009770Y003400D01*
X009753Y003125D02*
X009762Y003049D01*
X009785Y002947D01*
X009819Y002849D01*
X009865Y002754D01*
X009920Y002666D01*
X009985Y002584D01*
X010059Y002510D01*
X010141Y002445D01*
X010229Y002390D01*
X010324Y002344D01*
X010422Y002310D01*
X010524Y002287D01*
X010600Y002278D01*
X010600Y003125D01*
X010760Y003125D01*
X010760Y003285D01*
X011607Y003285D01*
X011598Y003361D01*
X011575Y003463D01*
X011541Y003561D01*
X011495Y003656D01*
X011440Y003744D01*
X011375Y003826D01*
X011301Y003900D01*
X011219Y003965D01*
X011131Y004020D01*
X011036Y004066D01*
X010938Y004100D01*
X010836Y004123D01*
X010760Y004132D01*
X010760Y003285D01*
X010600Y003285D01*
X010600Y003125D01*
X009753Y003125D01*
X009758Y003083D02*
X007560Y003083D01*
X007560Y003241D02*
X010600Y003241D01*
X010600Y003083D02*
X010760Y003083D01*
X010760Y003125D02*
X010760Y002278D01*
X010836Y002287D01*
X010938Y002310D01*
X011036Y002344D01*
X011131Y002390D01*
X011219Y002445D01*
X011301Y002510D01*
X011375Y002584D01*
X011440Y002666D01*
X011495Y002754D01*
X011541Y002849D01*
X011575Y002947D01*
X011598Y003049D01*
X011607Y003125D01*
X010760Y003125D01*
X010760Y003241D02*
X013800Y003241D01*
X013800Y003380D02*
X013800Y003030D01*
X013934Y002707D01*
X014182Y002459D01*
X014505Y002325D01*
X014855Y002325D01*
X015178Y002459D01*
X015426Y002707D01*
X015560Y003030D01*
X015560Y003380D01*
X015426Y003703D01*
X015178Y003951D01*
X014970Y004037D01*
X014970Y005263D01*
X014926Y005369D01*
X012959Y007336D01*
X012941Y007380D01*
X012855Y007466D01*
X012741Y007513D01*
X012619Y007513D01*
X012505Y007466D01*
X012419Y007380D01*
X012372Y007266D01*
X012372Y007144D01*
X012419Y007030D01*
X012505Y006944D01*
X012549Y006926D01*
X014390Y005085D01*
X014390Y004037D01*
X014182Y003951D01*
X013934Y003703D01*
X013800Y003380D01*
X013808Y003400D02*
X011590Y003400D01*
X011542Y003558D02*
X013874Y003558D01*
X013947Y003717D02*
X011457Y003717D01*
X011325Y003875D02*
X014105Y003875D01*
X014381Y004034D02*
X011103Y004034D01*
X010760Y004034D02*
X010600Y004034D01*
X010600Y003875D02*
X010760Y003875D01*
X010760Y003717D02*
X010600Y003717D01*
X010600Y003558D02*
X010760Y003558D01*
X010760Y003400D02*
X010600Y003400D01*
X010600Y002924D02*
X010760Y002924D01*
X010760Y002766D02*
X010600Y002766D01*
X010600Y002607D02*
X010760Y002607D01*
X010760Y002449D02*
X010600Y002449D01*
X010600Y002290D02*
X010760Y002290D01*
X010851Y002290D02*
X015680Y002290D01*
X015680Y002132D02*
X000860Y002132D01*
X000860Y002290D02*
X010509Y002290D01*
X010137Y002449D02*
X007153Y002449D01*
X007327Y002607D02*
X009967Y002607D01*
X009859Y002766D02*
X007450Y002766D01*
X007516Y002924D02*
X009793Y002924D01*
X011223Y002449D02*
X014207Y002449D01*
X014033Y002607D02*
X011393Y002607D01*
X011501Y002766D02*
X013910Y002766D01*
X013844Y002924D02*
X011567Y002924D01*
X011602Y003083D02*
X013800Y003083D01*
X015153Y002449D02*
X015680Y002449D01*
X015680Y002607D02*
X015327Y002607D01*
X015450Y002766D02*
X015680Y002766D01*
X015680Y002924D02*
X015516Y002924D01*
X015560Y003083D02*
X015680Y003083D01*
X015680Y003241D02*
X015560Y003241D01*
X015552Y003400D02*
X015680Y003400D01*
X015680Y003558D02*
X015486Y003558D01*
X015413Y003717D02*
X015680Y003717D01*
X015680Y003875D02*
X015255Y003875D01*
X014979Y004034D02*
X015680Y004034D01*
X015680Y004192D02*
X014970Y004192D01*
X014970Y004351D02*
X015680Y004351D01*
X015680Y004509D02*
X014970Y004509D01*
X014970Y004668D02*
X015680Y004668D01*
X015680Y004826D02*
X014970Y004826D01*
X014970Y004985D02*
X015680Y004985D01*
X015680Y005205D02*
X021271Y005205D01*
X021680Y004796D01*
X022074Y004402D01*
X022074Y003486D01*
X022440Y003558D02*
X022970Y003558D01*
X022970Y003400D02*
X022440Y003400D01*
X022440Y003241D02*
X022919Y003241D01*
X022970Y003292D02*
X022593Y002915D01*
X021767Y002915D01*
X021562Y003120D01*
X021576Y003120D01*
X021653Y003196D01*
X021653Y003777D01*
X021576Y003853D01*
X020996Y003853D01*
X020920Y003777D01*
X020920Y003196D01*
X020996Y003120D01*
X021076Y003120D01*
X021076Y003012D01*
X021470Y002618D01*
X021593Y002495D01*
X022767Y002495D01*
X023267Y002995D01*
X023390Y003118D01*
X023390Y005292D01*
X022890Y005792D01*
X022767Y005915D01*
X016267Y005915D01*
X016180Y006002D01*
X016180Y007205D01*
X017883Y007205D01*
X017691Y007013D01*
X017619Y007013D01*
X017505Y006966D01*
X017419Y006880D01*
X017372Y006766D01*
X017372Y006644D01*
X017419Y006530D01*
X017505Y006444D01*
X017619Y006397D01*
X017741Y006397D01*
X017855Y006444D01*
X017941Y006530D01*
X017988Y006644D01*
X017988Y006716D01*
X018390Y007118D01*
X018390Y007205D01*
X019383Y007205D01*
X019970Y006618D01*
X020093Y006495D01*
X024093Y006495D01*
X024970Y005618D01*
X024970Y005241D01*
X024831Y005241D01*
X024755Y005164D01*
X024755Y004427D01*
X024831Y004351D01*
X025529Y004351D01*
X025605Y004427D01*
X025605Y005164D01*
X025529Y005241D01*
X025390Y005241D01*
X025390Y005792D01*
X025267Y005915D01*
X024267Y006915D01*
X020267Y006915D01*
X019977Y007205D01*
X025457Y007205D01*
X025457Y006580D01*
X025501Y006474D01*
X026390Y005585D01*
X026390Y003776D01*
X025940Y003776D01*
X025940Y003777D01*
X025864Y003853D01*
X025284Y003853D01*
X025207Y003777D01*
X025207Y003196D01*
X025284Y003120D01*
X025864Y003120D01*
X025940Y003196D01*
X025940Y003196D01*
X027920Y003196D01*
X027996Y003120D01*
X028576Y003120D01*
X028653Y003196D01*
X028653Y003777D01*
X028576Y003853D01*
X027996Y003853D01*
X027920Y003777D01*
X027920Y003776D01*
X026970Y003776D01*
X026970Y005763D01*
X026926Y005869D01*
X026844Y005951D01*
X026037Y006758D01*
X026037Y007205D01*
X034180Y007205D01*
X034180Y007908D01*
X034296Y008024D01*
X034431Y008024D01*
X034507Y008100D01*
X034507Y008641D01*
X034443Y008705D01*
X034507Y008769D01*
X034507Y009310D01*
X034470Y009347D01*
X034470Y010563D01*
X034507Y010600D01*
X034507Y011141D01*
X034443Y011205D01*
X034507Y011269D01*
X034507Y011330D01*
X034758Y011330D01*
X034970Y011118D01*
X034970Y008618D01*
X035093Y008495D01*
X035428Y008160D01*
X035853Y008160D01*
X035853Y008100D01*
X035929Y008024D01*
X036431Y008024D01*
X036507Y008100D01*
X036507Y008641D01*
X036443Y008705D01*
X036507Y008769D01*
X036507Y009310D01*
X036431Y009386D01*
X036390Y009386D01*
X036390Y009698D01*
X036970Y009118D01*
X036970Y008292D01*
X036093Y007415D01*
X034502Y007415D01*
X034379Y007292D01*
X032328Y005241D01*
X031831Y005241D01*
X031755Y005164D01*
X031755Y004427D01*
X031831Y004351D01*
X032328Y004351D01*
X032470Y004209D01*
X032470Y003853D01*
X032284Y003853D01*
X032207Y003777D01*
X032207Y003196D01*
X032284Y003120D01*
X032864Y003120D01*
X032940Y003196D01*
X032940Y003777D01*
X032890Y003826D01*
X032890Y004383D01*
X032605Y004667D01*
X032605Y004924D01*
X034676Y006995D01*
X036267Y006995D01*
X037267Y007995D01*
X037390Y008118D01*
X037390Y009292D01*
X036390Y010292D01*
X036390Y010524D01*
X036431Y010524D01*
X036507Y010600D01*
X036507Y011141D01*
X036443Y011205D01*
X036507Y011269D01*
X036507Y011330D01*
X036758Y011330D01*
X037428Y010660D01*
X037853Y010660D01*
X037853Y010600D01*
X037929Y010524D01*
X037970Y010524D01*
X037970Y005292D01*
X035593Y002915D01*
X032267Y002915D01*
X032062Y003120D01*
X032076Y003120D01*
X032153Y003196D01*
X032153Y003777D01*
X032076Y003853D01*
X031496Y003853D01*
X031420Y003777D01*
X031420Y003196D01*
X031496Y003120D01*
X031576Y003120D01*
X031576Y003012D01*
X032093Y002495D01*
X035767Y002495D01*
X038267Y004995D01*
X038390Y005118D01*
X038390Y010524D01*
X038431Y010524D01*
X038507Y010600D01*
X038507Y011141D01*
X038443Y011205D01*
X038507Y011269D01*
X038507Y011810D01*
X038431Y011886D01*
X038130Y011886D01*
X037725Y012292D01*
X037602Y012415D01*
X037406Y012415D01*
X037355Y012466D01*
X037241Y012513D01*
X037119Y012513D01*
X037005Y012466D01*
X036919Y012380D01*
X036872Y012266D01*
X036872Y012144D01*
X036919Y012030D01*
X037005Y011944D01*
X037119Y011897D01*
X037241Y011897D01*
X037355Y011944D01*
X037406Y011995D01*
X037428Y011995D01*
X037853Y011570D01*
X037853Y011269D01*
X037917Y011205D01*
X037853Y011141D01*
X037853Y011080D01*
X037602Y011080D01*
X036932Y011750D01*
X036507Y011750D01*
X036507Y011810D01*
X036431Y011886D01*
X036390Y011886D01*
X036390Y013024D01*
X036431Y013024D01*
X036507Y013100D01*
X036507Y013641D01*
X036443Y013705D01*
X036507Y013769D01*
X036507Y014310D01*
X036431Y014386D01*
X036390Y014386D01*
X036390Y015524D01*
X036431Y015524D01*
X036507Y015600D01*
X036507Y016141D01*
X036443Y016205D01*
X036507Y016269D01*
X036507Y016810D01*
X036431Y016886D01*
X036390Y016886D01*
X036390Y018024D01*
X036431Y018024D01*
X036507Y018100D01*
X036507Y018641D01*
X036443Y018705D01*
X036507Y018769D01*
X036507Y019310D01*
X036431Y019386D01*
X035929Y019386D01*
X035853Y019310D01*
X035853Y019250D01*
X035428Y019250D01*
X034758Y018580D01*
X034507Y018580D01*
X034507Y018641D01*
X034443Y018705D01*
X034507Y018769D01*
X034507Y019310D01*
X034431Y019386D01*
X034390Y019386D01*
X034390Y020524D01*
X034431Y020524D01*
X034507Y020600D01*
X034507Y021141D01*
X034443Y021205D01*
X034507Y021269D01*
X034507Y021810D01*
X034431Y021886D01*
X034390Y021886D01*
X034390Y022292D01*
X033767Y022915D01*
X032906Y022915D01*
X032855Y022966D01*
X032741Y023013D01*
X032619Y023013D01*
X032505Y022966D01*
X032419Y022880D01*
X032372Y022766D01*
X032372Y022644D01*
X032419Y022530D01*
X032505Y022444D01*
X032619Y022397D01*
X032741Y022397D01*
X032855Y022444D01*
X032906Y022495D01*
X033593Y022495D01*
X033970Y022118D01*
X033970Y021886D01*
X033929Y021886D01*
X033853Y021810D01*
X033853Y021269D01*
X033917Y021205D01*
X033853Y021141D01*
X033853Y020600D01*
X033929Y020524D01*
X033970Y020524D01*
X033970Y019386D01*
X033929Y019386D01*
X033853Y019310D01*
X033853Y018769D01*
X033917Y018705D01*
X033853Y018641D01*
X033853Y018580D01*
X033758Y018580D01*
X032593Y017415D01*
X032470Y017292D01*
X032470Y016649D01*
X032440Y016619D01*
X032440Y016385D01*
X032420Y016385D01*
X032420Y016619D01*
X032344Y016695D01*
X032016Y016695D01*
X031940Y016619D01*
X031940Y015742D01*
X031920Y015762D01*
X031920Y016619D01*
X031890Y016649D01*
X031890Y017783D01*
X032130Y018024D01*
X032431Y018024D01*
X032507Y018100D01*
X032507Y018641D01*
X032443Y018705D01*
X032507Y018769D01*
X032507Y019310D01*
X032470Y019347D01*
X032470Y019600D01*
X032488Y019644D01*
X032488Y019766D01*
X032441Y019880D01*
X032355Y019966D01*
X032241Y020013D01*
X032119Y020013D01*
X032005Y019966D01*
X031919Y019880D01*
X031872Y019766D01*
X031872Y019644D01*
X031890Y019600D01*
X031890Y019347D01*
X031853Y019310D01*
X031853Y018769D01*
X031917Y018705D01*
X031853Y018641D01*
X031853Y018340D01*
X031470Y017957D01*
X031470Y016649D01*
X031457Y016636D01*
X031434Y016676D01*
X031401Y016709D01*
X031359Y016733D01*
X031314Y016745D01*
X031180Y016745D01*
X031180Y016175D01*
X031180Y016175D01*
X031180Y016745D01*
X031046Y016745D01*
X031001Y016733D01*
X030959Y016709D01*
X030926Y016676D01*
X030903Y016636D01*
X030890Y016649D01*
X030890Y016792D01*
X029390Y018292D01*
X029390Y021330D01*
X029853Y021330D01*
X029853Y021269D01*
X029917Y021205D01*
X029853Y021141D01*
X029853Y020600D01*
X029890Y020563D01*
X029890Y019347D01*
X029853Y019310D01*
X029853Y018769D01*
X029885Y018738D01*
X029873Y018731D01*
X029839Y018697D01*
X029815Y018656D01*
X029803Y018611D01*
X029803Y018389D01*
X030162Y018389D01*
X030162Y018352D01*
X030198Y018352D01*
X030198Y017974D01*
X030401Y017974D01*
X030446Y017986D01*
X030487Y018010D01*
X030521Y018043D01*
X030545Y018084D01*
X030557Y018130D01*
X030557Y018352D01*
X030198Y018352D01*
X030198Y018389D01*
X030557Y018389D01*
X030557Y018611D01*
X030545Y018656D01*
X030521Y018697D01*
X030487Y018731D01*
X030475Y018738D01*
X030507Y018769D01*
X030507Y019310D01*
X030470Y019347D01*
X030470Y020563D01*
X030487Y020580D01*
X031410Y020580D01*
X031453Y020562D01*
X031576Y020562D01*
X031689Y020609D01*
X031776Y020696D01*
X031823Y020809D01*
X031823Y020932D01*
X031805Y020975D01*
X031805Y022928D01*
X031760Y023035D01*
X030926Y023869D01*
X030844Y023951D01*
X030738Y023995D01*
X026622Y023995D01*
X026516Y023951D01*
X025560Y022995D01*
X021785Y022995D01*
X021741Y023013D01*
X021619Y023013D01*
X021505Y022966D01*
X021419Y022880D01*
X021372Y022766D01*
X021372Y022644D01*
X021419Y022530D01*
X021505Y022444D01*
X021619Y022397D01*
X021741Y022397D01*
X021785Y022415D01*
X025560Y022415D01*
X025890Y022085D01*
X025890Y021847D01*
X025853Y021810D01*
X025853Y021789D01*
X025019Y021789D01*
X025019Y021830D01*
X024943Y021906D01*
X024284Y021906D01*
X024207Y021830D01*
X024207Y021328D01*
X024284Y021252D01*
X024943Y021252D01*
X025019Y021328D01*
X025019Y021369D01*
X025853Y021369D01*
X025853Y021269D01*
X025917Y021205D01*
X025853Y021141D01*
X025853Y020600D01*
X025929Y020524D01*
X025970Y020524D01*
X025970Y019386D01*
X025929Y019386D01*
X025853Y019310D01*
X025853Y019250D01*
X024507Y019250D01*
X024507Y019310D01*
X024431Y019386D01*
X023961Y019386D01*
X022507Y020840D01*
X022507Y021141D01*
X022443Y021205D01*
X022507Y021269D01*
X022507Y021330D01*
X022758Y021330D01*
X023093Y020995D01*
X023341Y020995D01*
X023341Y020954D01*
X023417Y020878D01*
X023470Y020878D01*
X023470Y020431D01*
X023419Y020380D01*
X023372Y020266D01*
X023372Y020144D01*
X023419Y020030D01*
X023505Y019944D01*
X023619Y019897D01*
X023741Y019897D01*
X023855Y019944D01*
X023941Y020030D01*
X023988Y020144D01*
X023988Y020266D01*
X023941Y020380D01*
X023890Y020431D01*
X023890Y020878D01*
X024076Y020878D01*
X024153Y020954D01*
X024153Y021456D01*
X024076Y021532D01*
X023417Y021532D01*
X023341Y021456D01*
X023341Y021415D01*
X023267Y021415D01*
X022932Y021750D01*
X022507Y021750D01*
X022507Y021810D01*
X022431Y021886D01*
X021929Y021886D01*
X021853Y021810D01*
X021853Y021269D01*
X021917Y021205D01*
X021853Y021141D01*
X021853Y020600D01*
X021929Y020524D01*
X022230Y020524D01*
X023853Y018900D01*
X023853Y018769D01*
X023917Y018705D01*
X023853Y018641D01*
X023853Y018580D01*
X023602Y018580D01*
X022932Y019250D01*
X022507Y019250D01*
X022507Y019310D01*
X022431Y019386D01*
X021929Y019386D01*
X021853Y019310D01*
X021853Y018769D01*
X021917Y018705D01*
X021853Y018641D01*
X021853Y018580D01*
X021390Y018580D01*
X021390Y019957D01*
X020507Y020840D01*
X020507Y021141D01*
X020443Y021205D01*
X020507Y021269D01*
X020507Y021810D01*
X020431Y021886D01*
X020390Y021886D01*
X020390Y022118D01*
X021267Y022995D01*
X021390Y023118D01*
X021390Y023792D01*
X021267Y023915D01*
X019767Y025415D01*
X011593Y025415D01*
X011470Y025292D01*
X011191Y025013D01*
X011119Y025013D01*
X011005Y024966D01*
X010919Y024880D01*
X010872Y024766D01*
X010872Y024644D01*
X010919Y024530D01*
X011005Y024444D01*
X011119Y024397D01*
X011241Y024397D01*
X011355Y024444D01*
X011441Y024530D01*
X011488Y024644D01*
X011488Y024716D01*
X011767Y024995D01*
X019593Y024995D01*
X020970Y023618D01*
X020970Y023292D01*
X019970Y022292D01*
X019970Y021886D01*
X019929Y021886D01*
X019853Y021810D01*
X019853Y021269D01*
X019917Y021205D01*
X019853Y021141D01*
X019853Y020600D01*
X019929Y020524D01*
X020230Y020524D01*
X020970Y019783D01*
X020970Y017810D01*
X020941Y017880D01*
X020855Y017966D01*
X020741Y018013D01*
X020619Y018013D01*
X020505Y017966D01*
X020419Y017880D01*
X020372Y017766D01*
X020372Y017644D01*
X020419Y017530D01*
X020470Y017479D01*
X020470Y016649D01*
X020457Y016636D01*
X020434Y016676D01*
X020401Y016709D01*
X020359Y016733D01*
X020314Y016745D01*
X020180Y016745D01*
X020180Y016175D01*
X020180Y016175D01*
X020180Y016745D01*
X020046Y016745D01*
X020001Y016733D01*
X019959Y016709D01*
X019926Y016676D01*
X019903Y016636D01*
X019844Y016695D01*
X019516Y016695D01*
X019440Y016619D01*
X019440Y015731D01*
X019466Y015705D01*
X019394Y015705D01*
X019420Y015731D01*
X019420Y016619D01*
X019390Y016649D01*
X019390Y017292D01*
X019267Y017415D01*
X018390Y018292D01*
X018390Y020524D01*
X018431Y020524D01*
X018507Y020600D01*
X018507Y021141D01*
X018443Y021205D01*
X018507Y021269D01*
X018507Y021735D01*
X020169Y023397D01*
X020241Y023397D01*
X020355Y023444D01*
X020441Y023530D01*
X020488Y023644D01*
X020488Y023766D01*
X020441Y023880D01*
X020355Y023966D01*
X020241Y024013D01*
X020119Y024013D01*
X020005Y023966D01*
X019954Y023915D01*
X019267Y023915D01*
X018932Y024250D01*
X018507Y024250D01*
X018507Y024310D01*
X018431Y024386D01*
X017929Y024386D01*
X017853Y024310D01*
X017853Y024250D01*
X017003Y024250D01*
X016513Y023760D01*
X015626Y023760D01*
X015550Y023684D01*
X015550Y022576D01*
X015626Y022500D01*
X016734Y022500D01*
X016810Y022576D01*
X016810Y023463D01*
X017177Y023830D01*
X017853Y023830D01*
X017853Y023769D01*
X017917Y023705D01*
X017853Y023641D01*
X017853Y023175D01*
X017093Y022415D01*
X016970Y022292D01*
X016970Y020431D01*
X016919Y020380D01*
X016872Y020266D01*
X016872Y020144D01*
X016919Y020030D01*
X017005Y019944D01*
X017119Y019897D01*
X017241Y019897D01*
X017355Y019944D01*
X017441Y020030D01*
X017488Y020144D01*
X017488Y020266D01*
X017441Y020380D01*
X017390Y020431D01*
X017390Y022118D01*
X018296Y023024D01*
X018431Y023024D01*
X018507Y023100D01*
X018507Y023641D01*
X018443Y023705D01*
X018507Y023769D01*
X018507Y023830D01*
X018758Y023830D01*
X019093Y023495D01*
X019673Y023495D01*
X018064Y021886D01*
X017929Y021886D01*
X017853Y021810D01*
X017853Y021269D01*
X017917Y021205D01*
X017853Y021141D01*
X017853Y020600D01*
X017929Y020524D01*
X017970Y020524D01*
X017970Y018118D01*
X018970Y017118D01*
X018970Y016649D01*
X018940Y016619D01*
X018940Y015731D01*
X018966Y015705D01*
X018894Y015705D01*
X018920Y015731D01*
X018920Y016619D01*
X018890Y016649D01*
X018890Y016792D01*
X016390Y019292D01*
X016390Y020650D01*
X016734Y020650D01*
X016810Y020726D01*
X016810Y021834D01*
X016734Y021910D01*
X015626Y021910D01*
X015550Y021834D01*
X015550Y020726D01*
X015626Y020650D01*
X015970Y020650D01*
X015970Y020310D01*
X015941Y020380D01*
X015855Y020466D01*
X015741Y020513D01*
X015619Y020513D01*
X015505Y020466D01*
X015419Y020380D01*
X015372Y020266D01*
X015372Y020144D01*
X015390Y020100D01*
X015390Y015705D01*
X011894Y015705D01*
X011920Y015731D01*
X011920Y015965D01*
X013737Y015965D01*
X014267Y016495D01*
X014390Y016618D01*
X014390Y018024D01*
X014431Y018024D01*
X014507Y018100D01*
X014507Y018235D01*
X015267Y018995D01*
X015390Y019118D01*
X015390Y019957D01*
X014507Y020840D01*
X014507Y021141D01*
X014443Y021205D01*
X014507Y021269D01*
X014507Y021810D01*
X014431Y021886D01*
X014390Y021886D01*
X014390Y023024D01*
X014431Y023024D01*
X014507Y023100D01*
X014507Y023641D01*
X014443Y023705D01*
X014507Y023769D01*
X014507Y024310D01*
X014431Y024386D01*
X013929Y024386D01*
X013853Y024310D01*
X013853Y024250D01*
X013428Y024250D01*
X012758Y023580D01*
X012507Y023580D01*
X012507Y023641D01*
X012443Y023705D01*
X012507Y023769D01*
X012507Y024310D01*
X012431Y024386D01*
X011929Y024386D01*
X011853Y024310D01*
X011853Y024250D01*
X011428Y024250D01*
X010758Y023580D01*
X010507Y023580D01*
X010507Y023641D01*
X010443Y023705D01*
X010507Y023769D01*
X010507Y024310D01*
X010470Y024347D01*
X010470Y024600D01*
X010488Y024644D01*
X010488Y024766D01*
X010441Y024880D01*
X010355Y024966D01*
X010241Y025013D01*
X010119Y025013D01*
X010005Y024966D01*
X009919Y024880D01*
X009872Y024766D01*
X009872Y024644D01*
X009890Y024600D01*
X009890Y024347D01*
X009873Y024330D01*
X009457Y024330D01*
X009350Y024285D01*
X009180Y024115D01*
X009010Y024285D01*
X008903Y024330D01*
X008487Y024330D01*
X008431Y024386D01*
X007929Y024386D01*
X007873Y024330D01*
X006487Y024330D01*
X006431Y024386D01*
X005929Y024386D01*
X005853Y024310D01*
X005853Y023769D01*
X005917Y023705D01*
X005853Y023641D01*
X005853Y023580D01*
X004758Y023580D01*
X004180Y023002D01*
X004180Y026525D01*
X039500Y026525D01*
X039500Y000885D01*
X016180Y000885D01*
X016180Y004995D01*
X021184Y004995D01*
X021255Y004924D01*
X021255Y004427D01*
X021331Y004351D01*
X021828Y004351D01*
X021864Y004315D01*
X021864Y003853D01*
X021784Y003853D01*
X021707Y003777D01*
X021707Y003196D01*
X021784Y003120D01*
X022364Y003120D01*
X022440Y003196D01*
X022440Y003777D01*
X022364Y003853D01*
X022284Y003853D01*
X022284Y004489D01*
X022105Y004667D01*
X022105Y005164D01*
X022029Y005241D01*
X021532Y005241D01*
X021358Y005415D01*
X016180Y005415D01*
X016180Y005495D01*
X022593Y005495D01*
X022970Y005118D01*
X022970Y003292D01*
X023180Y003205D02*
X023180Y005205D01*
X022680Y005705D01*
X016180Y005705D01*
X014180Y007705D01*
X014180Y008370D01*
X014845Y008370D01*
X015180Y008705D01*
X015180Y011205D01*
X015180Y011705D01*
X014180Y012705D01*
X014180Y013370D01*
X012545Y013370D01*
X011680Y014235D01*
X011180Y014235D02*
X011180Y012540D01*
X012180Y011540D01*
X014180Y011540D01*
X013853Y011325D02*
X012507Y011325D01*
X012482Y011166D02*
X013878Y011166D01*
X013853Y011008D02*
X012507Y011008D01*
X012507Y010849D02*
X013853Y010849D01*
X013853Y010691D02*
X012507Y010691D01*
X012470Y010532D02*
X013921Y010532D01*
X013970Y010374D02*
X013444Y010374D01*
X013488Y010215D02*
X013970Y010215D01*
X013970Y010057D02*
X013452Y010057D01*
X013244Y009898D02*
X013970Y009898D01*
X013970Y009740D02*
X012470Y009740D01*
X012470Y009898D02*
X013116Y009898D01*
X012470Y009581D02*
X013970Y009581D01*
X013970Y009423D02*
X012470Y009423D01*
X012507Y009264D02*
X013853Y009264D01*
X014180Y009040D02*
X013515Y009040D01*
X013180Y008705D01*
X013180Y007705D01*
X015680Y005205D01*
X015470Y005118D02*
X015470Y005118D01*
X015445Y005143D02*
X014970Y005143D01*
X014954Y005302D02*
X015287Y005302D01*
X015128Y005460D02*
X014835Y005460D01*
X014970Y005619D02*
X014677Y005619D01*
X014811Y005777D02*
X014518Y005777D01*
X014653Y005936D02*
X014360Y005936D01*
X014494Y006094D02*
X014201Y006094D01*
X014336Y006253D02*
X014043Y006253D01*
X014177Y006411D02*
X013884Y006411D01*
X014019Y006570D02*
X013726Y006570D01*
X013860Y006728D02*
X013567Y006728D01*
X013702Y006887D02*
X013409Y006887D01*
X013543Y007045D02*
X013250Y007045D01*
X013385Y007204D02*
X013092Y007204D01*
X013226Y007362D02*
X012948Y007362D01*
X013068Y007521D02*
X012292Y007521D01*
X012390Y007679D02*
X012970Y007679D01*
X012970Y007838D02*
X012390Y007838D01*
X012390Y007996D02*
X012970Y007996D01*
X012970Y008155D02*
X012507Y008155D01*
X012507Y008313D02*
X012970Y008313D01*
X012970Y008472D02*
X012507Y008472D01*
X012507Y008630D02*
X012970Y008630D01*
X012970Y008789D02*
X012507Y008789D01*
X012507Y008947D02*
X013125Y008947D01*
X013284Y009106D02*
X012507Y009106D01*
X012180Y009040D02*
X012141Y009079D01*
X011890Y009369D02*
X010979Y009369D01*
X010943Y009406D01*
X010284Y009406D01*
X010207Y009330D01*
X010207Y008828D01*
X010284Y008752D01*
X010943Y008752D01*
X010979Y008789D01*
X011853Y008789D01*
X011853Y008769D01*
X011917Y008705D01*
X011853Y008641D01*
X011853Y008100D01*
X011929Y008024D01*
X011970Y008024D01*
X011970Y007792D01*
X011593Y007415D01*
X010785Y007415D01*
X010855Y007444D01*
X010941Y007530D01*
X010988Y007644D01*
X010988Y007766D01*
X010941Y007880D01*
X010855Y007966D01*
X010823Y007979D01*
X010823Y008004D01*
X010943Y008004D01*
X011019Y008080D01*
X011019Y008582D01*
X010943Y008658D01*
X010284Y008658D01*
X010207Y008582D01*
X010207Y008080D01*
X010284Y008004D01*
X010403Y008004D01*
X010403Y007842D01*
X010372Y007766D01*
X010372Y007644D01*
X010419Y007530D01*
X010505Y007444D01*
X010575Y007415D01*
X007767Y007415D01*
X007390Y007792D01*
X007390Y008830D01*
X007853Y008830D01*
X007853Y008769D01*
X007917Y008705D01*
X007853Y008641D01*
X007853Y008100D01*
X007929Y008024D01*
X008431Y008024D01*
X008507Y008100D01*
X008507Y008160D01*
X009499Y008160D01*
X009717Y008378D01*
X010076Y008378D01*
X010153Y008454D01*
X010153Y008956D01*
X010076Y009032D01*
X009717Y009032D01*
X009390Y009359D01*
X009390Y012618D01*
X009890Y013118D01*
X009890Y013761D01*
X009903Y013774D01*
X009926Y013734D01*
X009959Y013701D01*
X010001Y013677D01*
X010046Y013665D01*
X010180Y013665D01*
X010314Y013665D01*
X010359Y013677D01*
X010401Y013701D01*
X010434Y013734D01*
X010457Y013774D01*
X010516Y013715D01*
X010844Y013715D01*
X010920Y013791D01*
X010920Y014648D01*
X010940Y014668D01*
X010940Y013791D01*
X010970Y013761D01*
X010970Y012453D01*
X011853Y011570D01*
X011853Y011269D01*
X011917Y011205D01*
X011873Y011160D01*
X010487Y011160D01*
X010475Y011172D01*
X010487Y011179D01*
X010521Y011213D01*
X010545Y011254D01*
X010557Y011299D01*
X010557Y011521D01*
X010198Y011521D01*
X010198Y011558D01*
X010162Y011558D01*
X010162Y011936D01*
X009959Y011936D01*
X009914Y011924D01*
X009873Y011900D01*
X009839Y011867D01*
X009815Y011826D01*
X009803Y011780D01*
X009803Y011558D01*
X010162Y011558D01*
X010162Y011521D01*
X009803Y011521D01*
X009803Y011299D01*
X009815Y011254D01*
X009839Y011213D01*
X009873Y011179D01*
X009885Y011172D01*
X009853Y011141D01*
X009853Y010600D01*
X009890Y010563D01*
X009890Y009810D01*
X009872Y009766D01*
X009872Y009644D01*
X009919Y009530D01*
X010005Y009444D01*
X010119Y009397D01*
X010241Y009397D01*
X010355Y009444D01*
X010441Y009530D01*
X010488Y009644D01*
X010488Y009766D01*
X010470Y009810D01*
X010470Y010563D01*
X010487Y010580D01*
X011873Y010580D01*
X011890Y010563D01*
X011890Y009369D01*
X011890Y009423D02*
X010303Y009423D01*
X010207Y009264D02*
X009485Y009264D01*
X009390Y009423D02*
X010057Y009423D01*
X009898Y009581D02*
X009390Y009581D01*
X009390Y009740D02*
X009872Y009740D01*
X009890Y009898D02*
X009390Y009898D01*
X009390Y010057D02*
X009890Y010057D01*
X009890Y010215D02*
X009390Y010215D01*
X009390Y010374D02*
X009890Y010374D01*
X009890Y010532D02*
X009390Y010532D01*
X009390Y010691D02*
X009853Y010691D01*
X009853Y010849D02*
X009390Y010849D01*
X009390Y011008D02*
X009853Y011008D01*
X009878Y011166D02*
X009390Y011166D01*
X009390Y011325D02*
X009803Y011325D01*
X009803Y011483D02*
X009390Y011483D01*
X009390Y011642D02*
X009803Y011642D01*
X009809Y011800D02*
X009390Y011800D01*
X009390Y011959D02*
X011464Y011959D01*
X011306Y012117D02*
X009390Y012117D01*
X009390Y012276D02*
X011147Y012276D01*
X010989Y012434D02*
X009390Y012434D01*
X009390Y012593D02*
X010970Y012593D01*
X010970Y012751D02*
X009523Y012751D01*
X009682Y012910D02*
X010970Y012910D01*
X010970Y013068D02*
X009840Y013068D01*
X009890Y013227D02*
X010970Y013227D01*
X010970Y013385D02*
X009890Y013385D01*
X009890Y013544D02*
X010970Y013544D01*
X010970Y013702D02*
X010402Y013702D01*
X010180Y013702D02*
X010180Y013702D01*
X010180Y013665D02*
X010180Y014235D01*
X010180Y013665D01*
X010180Y013861D02*
X010180Y013861D01*
X010180Y014019D02*
X010180Y014019D01*
X010180Y014178D02*
X010180Y014178D01*
X010180Y014235D02*
X010180Y014235D01*
X009680Y014235D02*
X009680Y013205D01*
X009180Y012705D01*
X009180Y009272D01*
X009747Y008705D01*
X009412Y008370D01*
X008180Y008370D01*
X007853Y008313D02*
X007390Y008313D01*
X007390Y008155D02*
X007853Y008155D01*
X007853Y008472D02*
X007390Y008472D01*
X007390Y008630D02*
X007853Y008630D01*
X007853Y008789D02*
X007390Y008789D01*
X007180Y009040D02*
X007180Y007705D01*
X007680Y007205D01*
X011680Y007205D01*
X012180Y007705D01*
X012180Y008370D01*
X012180Y008205D01*
X011970Y007996D02*
X010823Y007996D01*
X010959Y007838D02*
X011970Y007838D01*
X011857Y007679D02*
X010988Y007679D01*
X010931Y007521D02*
X011699Y007521D01*
X011975Y007204D02*
X012372Y007204D01*
X012412Y007362D02*
X012134Y007362D01*
X012413Y007045D02*
X011817Y007045D01*
X011910Y006411D02*
X013064Y006411D01*
X013222Y006253D02*
X011988Y006253D01*
X011968Y006094D02*
X013381Y006094D01*
X013539Y005936D02*
X011835Y005936D01*
X011525Y005936D02*
X006390Y005936D01*
X006390Y006094D02*
X006494Y006094D01*
X006680Y006205D02*
X006180Y006705D01*
X006180Y005705D01*
X006390Y005777D02*
X013698Y005777D01*
X013856Y005619D02*
X006390Y005619D01*
X005970Y005619D02*
X002890Y005619D01*
X002890Y005777D02*
X005970Y005777D01*
X005970Y005936D02*
X002890Y005936D01*
X002890Y006094D02*
X005970Y006094D01*
X005970Y006253D02*
X002890Y006253D01*
X002890Y006411D02*
X005970Y006411D01*
X005970Y006570D02*
X002890Y006570D01*
X002890Y006728D02*
X005970Y006728D01*
X005970Y006887D02*
X002890Y006887D01*
X002890Y007045D02*
X005970Y007045D01*
X005970Y007204D02*
X002890Y007204D01*
X002890Y007362D02*
X005970Y007362D01*
X005970Y007521D02*
X002890Y007521D01*
X002890Y007679D02*
X005970Y007679D01*
X005970Y007838D02*
X002890Y007838D01*
X002890Y007996D02*
X005970Y007996D01*
X005853Y008155D02*
X002890Y008155D01*
X002890Y008313D02*
X005853Y008313D01*
X005853Y008472D02*
X002890Y008472D01*
X002890Y008630D02*
X005853Y008630D01*
X005853Y008789D02*
X002890Y008789D01*
X002890Y008947D02*
X005853Y008947D01*
X005853Y009106D02*
X002890Y009106D01*
X002890Y009264D02*
X005853Y009264D01*
X006180Y009040D02*
X007180Y009040D01*
X008180Y009040D01*
X008180Y010870D01*
X007853Y010849D02*
X006507Y010849D01*
X006507Y010691D02*
X007853Y010691D01*
X007921Y010532D02*
X006439Y010532D01*
X006180Y010870D02*
X005515Y010870D01*
X004180Y012205D01*
X004180Y014705D01*
X004180Y020870D01*
X003680Y020835D02*
X002890Y020835D01*
X002890Y020993D02*
X003680Y020993D01*
X003680Y021152D02*
X002924Y021152D01*
X003082Y021310D02*
X003680Y021310D01*
X003680Y020676D02*
X002890Y020676D01*
X002890Y020518D02*
X003680Y020518D01*
X003680Y020359D02*
X002890Y020359D01*
X002890Y020201D02*
X003680Y020201D01*
X003680Y020042D02*
X002890Y020042D01*
X002890Y019884D02*
X003680Y019884D01*
X003680Y019725D02*
X002890Y019725D01*
X002890Y019567D02*
X003680Y019567D01*
X003680Y019408D02*
X002890Y019408D01*
X002890Y019250D02*
X003680Y019250D01*
X003680Y019091D02*
X002890Y019091D01*
X002890Y018933D02*
X003680Y018933D01*
X003680Y018774D02*
X002890Y018774D01*
X002890Y018616D02*
X003680Y018616D01*
X003680Y018457D02*
X002890Y018457D01*
X002890Y018299D02*
X003680Y018299D01*
X003680Y018140D02*
X002890Y018140D01*
X002890Y017982D02*
X003680Y017982D01*
X003680Y017823D02*
X002890Y017823D01*
X002890Y017665D02*
X003680Y017665D01*
X003680Y017506D02*
X002890Y017506D01*
X002890Y017348D02*
X003680Y017348D01*
X003680Y017189D02*
X002890Y017189D01*
X002890Y017031D02*
X003680Y017031D01*
X003680Y016872D02*
X002890Y016872D01*
X002890Y016714D02*
X003680Y016714D01*
X003680Y016555D02*
X002890Y016555D01*
X002890Y016397D02*
X003680Y016397D01*
X003680Y016238D02*
X002890Y016238D01*
X002890Y016080D02*
X003680Y016080D01*
X003680Y015921D02*
X002890Y015921D01*
X002890Y015763D02*
X003680Y015763D01*
X003680Y015604D02*
X002890Y015604D01*
X002890Y015446D02*
X003680Y015446D01*
X003680Y015287D02*
X002890Y015287D01*
X002890Y015129D02*
X003680Y015129D01*
X003680Y014970D02*
X002890Y014970D01*
X002890Y014812D02*
X003680Y014812D01*
X003970Y014653D02*
X002890Y014653D01*
X002890Y014495D02*
X003970Y014495D01*
X003970Y014336D02*
X002890Y014336D01*
X002890Y014178D02*
X003970Y014178D01*
X003970Y014019D02*
X002890Y014019D01*
X002890Y013861D02*
X003970Y013861D01*
X003970Y013702D02*
X002890Y013702D01*
X002890Y013544D02*
X003970Y013544D01*
X003970Y013385D02*
X002890Y013385D01*
X002890Y013227D02*
X003970Y013227D01*
X003970Y013068D02*
X002890Y013068D01*
X002890Y012910D02*
X003970Y012910D01*
X003970Y012751D02*
X002890Y012751D01*
X002890Y012593D02*
X003970Y012593D01*
X003970Y012434D02*
X002890Y012434D01*
X002890Y012276D02*
X003970Y012276D01*
X003971Y012117D02*
X002890Y012117D01*
X002890Y011959D02*
X004129Y011959D01*
X004288Y011800D02*
X002890Y011800D01*
X002890Y011642D02*
X004446Y011642D01*
X004605Y011483D02*
X002890Y011483D01*
X002890Y011325D02*
X004763Y011325D01*
X004922Y011166D02*
X002890Y011166D01*
X002890Y011008D02*
X005080Y011008D01*
X005239Y010849D02*
X002890Y010849D01*
X002890Y010691D02*
X005397Y010691D01*
X005921Y010532D02*
X002890Y010532D01*
X002890Y010374D02*
X007970Y010374D01*
X007970Y010215D02*
X002890Y010215D01*
X002890Y010057D02*
X007970Y010057D01*
X007970Y009898D02*
X002890Y009898D01*
X002890Y009740D02*
X007970Y009740D01*
X007970Y009581D02*
X002890Y009581D01*
X002890Y009423D02*
X007970Y009423D01*
X007853Y009264D02*
X006507Y009264D01*
X006507Y008789D02*
X006970Y008789D01*
X006970Y008630D02*
X006507Y008630D01*
X006507Y008472D02*
X006970Y008472D01*
X006970Y008313D02*
X006507Y008313D01*
X006507Y008155D02*
X006970Y008155D01*
X006970Y007996D02*
X006390Y007996D01*
X006390Y007838D02*
X006970Y007838D01*
X006970Y007679D02*
X006390Y007679D01*
X006390Y007521D02*
X007068Y007521D01*
X007226Y007362D02*
X006390Y007362D01*
X006390Y007204D02*
X007385Y007204D01*
X007543Y007045D02*
X006390Y007045D01*
X006390Y006887D02*
X012588Y006887D01*
X012747Y006728D02*
X006454Y006728D01*
X006612Y006570D02*
X012905Y006570D01*
X011680Y006205D02*
X006680Y006205D01*
X006180Y006705D02*
X006180Y008370D01*
X007390Y007996D02*
X010403Y007996D01*
X010401Y007838D02*
X007390Y007838D01*
X007503Y007679D02*
X010372Y007679D01*
X010429Y007521D02*
X007661Y007521D01*
X008507Y008155D02*
X010207Y008155D01*
X010207Y008313D02*
X009652Y008313D01*
X010153Y008472D02*
X010207Y008472D01*
X010256Y008630D02*
X010153Y008630D01*
X010153Y008789D02*
X010247Y008789D01*
X010207Y008947D02*
X010153Y008947D01*
X010207Y009106D02*
X009643Y009106D01*
X010462Y009581D02*
X011890Y009581D01*
X011890Y009740D02*
X010488Y009740D01*
X010470Y009898D02*
X011890Y009898D01*
X011890Y010057D02*
X010470Y010057D01*
X010470Y010215D02*
X011890Y010215D01*
X011890Y010374D02*
X010470Y010374D01*
X010470Y010532D02*
X011890Y010532D01*
X011878Y011166D02*
X010482Y011166D01*
X010557Y011325D02*
X011853Y011325D01*
X011853Y011483D02*
X010557Y011483D01*
X010557Y011558D02*
X010198Y011558D01*
X010198Y011936D01*
X010401Y011936D01*
X010446Y011924D01*
X010487Y011900D01*
X010521Y011867D01*
X010545Y011826D01*
X010557Y011780D01*
X010557Y011558D01*
X010557Y011642D02*
X011781Y011642D01*
X011623Y011800D02*
X010551Y011800D01*
X010198Y011800D02*
X010162Y011800D01*
X010162Y011642D02*
X010198Y011642D01*
X008180Y011540D02*
X008180Y012540D01*
X009180Y013540D01*
X009180Y014235D01*
X008680Y014235D02*
X008650Y014205D01*
X004680Y014205D01*
X004180Y014705D01*
X005180Y016205D02*
X006180Y015205D01*
X011180Y015205D01*
X013680Y015205D01*
X014180Y014705D01*
X014180Y014040D01*
X015180Y013705D02*
X015180Y012705D01*
X015680Y012205D01*
X017180Y012205D01*
X017680Y012205D01*
X018180Y011705D01*
X018180Y011540D01*
X018845Y010870D02*
X019180Y011205D01*
X019180Y014235D01*
X019180Y013705D01*
X018680Y013205D01*
X018515Y013370D01*
X016180Y013370D01*
X015515Y014040D02*
X015180Y013705D01*
X015515Y014040D02*
X016180Y014040D01*
X018485Y014040D01*
X018680Y014235D01*
X018680Y014205D01*
X019680Y014235D02*
X019680Y010205D01*
X019180Y009705D01*
X019180Y007705D01*
X020180Y006705D01*
X024180Y006705D01*
X025180Y005705D01*
X025180Y004796D01*
X025089Y004705D01*
X024755Y004668D02*
X023390Y004668D01*
X023390Y004826D02*
X024755Y004826D01*
X024755Y004985D02*
X023390Y004985D01*
X023390Y005143D02*
X024755Y005143D01*
X024970Y005302D02*
X023380Y005302D01*
X023222Y005460D02*
X024970Y005460D01*
X024970Y005619D02*
X023063Y005619D01*
X022905Y005777D02*
X024811Y005777D01*
X024653Y005936D02*
X016246Y005936D01*
X016180Y006094D02*
X024494Y006094D01*
X024336Y006253D02*
X016180Y006253D01*
X016180Y006411D02*
X017585Y006411D01*
X017775Y006411D02*
X024177Y006411D01*
X024454Y006728D02*
X025457Y006728D01*
X025457Y006887D02*
X024295Y006887D01*
X024612Y006570D02*
X025461Y006570D01*
X025564Y006411D02*
X024771Y006411D01*
X024929Y006253D02*
X025722Y006253D01*
X025881Y006094D02*
X025088Y006094D01*
X025246Y005936D02*
X026039Y005936D01*
X026198Y005777D02*
X025390Y005777D01*
X025390Y005619D02*
X026356Y005619D01*
X026390Y005460D02*
X025390Y005460D01*
X025390Y005302D02*
X026390Y005302D01*
X026390Y005143D02*
X025605Y005143D01*
X025605Y004985D02*
X026390Y004985D01*
X026390Y004826D02*
X025605Y004826D01*
X025605Y004668D02*
X026390Y004668D01*
X026390Y004509D02*
X025605Y004509D01*
X026390Y004351D02*
X023390Y004351D01*
X023390Y004509D02*
X024755Y004509D01*
X024748Y003903D02*
X024526Y003903D01*
X024481Y003890D01*
X024440Y003867D01*
X024406Y003833D01*
X024382Y003792D01*
X024370Y003746D01*
X024370Y003525D01*
X024748Y003525D01*
X024748Y003903D01*
X024748Y003875D02*
X024824Y003875D01*
X024824Y003903D02*
X025046Y003903D01*
X025092Y003890D01*
X025133Y003867D01*
X025167Y003833D01*
X025190Y003792D01*
X025203Y003746D01*
X025203Y003525D01*
X024824Y003525D01*
X024748Y003525D01*
X024748Y003448D01*
X024824Y003448D01*
X024824Y003070D01*
X025046Y003070D01*
X025092Y003083D01*
X025133Y003106D01*
X025167Y003140D01*
X025190Y003181D01*
X025203Y003227D01*
X025203Y003448D01*
X024824Y003448D01*
X024824Y003525D01*
X024824Y003903D01*
X024824Y003717D02*
X024748Y003717D01*
X024748Y003558D02*
X024824Y003558D01*
X024748Y003448D02*
X024370Y003448D01*
X024370Y003227D01*
X024382Y003181D01*
X024406Y003140D01*
X024440Y003106D01*
X024481Y003083D01*
X023354Y003083D01*
X023390Y003241D02*
X024370Y003241D01*
X024370Y003400D02*
X023390Y003400D01*
X023390Y003558D02*
X024370Y003558D01*
X024370Y003717D02*
X023390Y003717D01*
X023390Y003875D02*
X024454Y003875D01*
X023390Y004034D02*
X026390Y004034D01*
X026390Y004192D02*
X023390Y004192D01*
X022970Y004192D02*
X022284Y004192D01*
X022284Y004034D02*
X022970Y004034D01*
X022970Y003875D02*
X022284Y003875D01*
X022440Y003717D02*
X022970Y003717D01*
X023180Y003205D02*
X022680Y002705D01*
X021680Y002705D01*
X021286Y003099D01*
X021286Y003486D01*
X020920Y003558D02*
X019542Y003558D01*
X019541Y003561D02*
X019575Y003463D01*
X019598Y003361D01*
X019607Y003285D01*
X018760Y003285D01*
X018760Y003125D01*
X019607Y003125D01*
X019598Y003049D01*
X019575Y002947D01*
X019541Y002849D01*
X019495Y002754D01*
X019440Y002666D01*
X019375Y002584D01*
X019301Y002510D01*
X019219Y002445D01*
X019131Y002390D01*
X019036Y002344D01*
X018938Y002310D01*
X018836Y002287D01*
X018760Y002278D01*
X018760Y003125D01*
X018600Y003125D01*
X018600Y002278D01*
X018524Y002287D01*
X018422Y002310D01*
X018324Y002344D01*
X018229Y002390D01*
X018141Y002445D01*
X018059Y002510D01*
X017985Y002584D01*
X017920Y002666D01*
X017865Y002754D01*
X017819Y002849D01*
X017785Y002947D01*
X017762Y003049D01*
X017753Y003125D01*
X018600Y003125D01*
X018600Y003285D01*
X018600Y004132D01*
X018524Y004123D01*
X018422Y004100D01*
X018324Y004066D01*
X018229Y004020D01*
X018141Y003965D01*
X018059Y003900D01*
X017985Y003826D01*
X017920Y003744D01*
X017865Y003656D01*
X017819Y003561D01*
X017785Y003463D01*
X017762Y003361D01*
X017753Y003285D01*
X018600Y003285D01*
X018760Y003285D01*
X018760Y004132D01*
X018836Y004123D01*
X018938Y004100D01*
X019036Y004066D01*
X019131Y004020D01*
X019219Y003965D01*
X019301Y003900D01*
X019375Y003826D01*
X019440Y003744D01*
X019495Y003656D01*
X019541Y003561D01*
X019590Y003400D02*
X020920Y003400D01*
X020920Y003241D02*
X018760Y003241D01*
X018760Y003083D02*
X018600Y003083D01*
X018600Y003241D02*
X016180Y003241D01*
X016180Y003083D02*
X017758Y003083D01*
X017793Y002924D02*
X016180Y002924D01*
X016180Y002766D02*
X017859Y002766D01*
X017967Y002607D02*
X016180Y002607D01*
X016180Y002449D02*
X018137Y002449D01*
X018509Y002290D02*
X016180Y002290D01*
X016180Y002132D02*
X039500Y002132D01*
X039500Y002290D02*
X018851Y002290D01*
X018760Y002290D02*
X018600Y002290D01*
X018600Y002449D02*
X018760Y002449D01*
X018760Y002607D02*
X018600Y002607D01*
X018600Y002766D02*
X018760Y002766D01*
X018760Y002924D02*
X018600Y002924D01*
X019393Y002607D02*
X021481Y002607D01*
X021323Y002766D02*
X019501Y002766D01*
X019567Y002924D02*
X021164Y002924D01*
X021076Y003083D02*
X019602Y003083D01*
X019457Y003717D02*
X020920Y003717D01*
X021653Y003717D02*
X021707Y003717D01*
X021707Y003558D02*
X021653Y003558D01*
X021653Y003400D02*
X021707Y003400D01*
X021707Y003241D02*
X021653Y003241D01*
X021599Y003083D02*
X022761Y003083D01*
X022602Y002924D02*
X021758Y002924D01*
X022879Y002607D02*
X031981Y002607D01*
X032180Y002705D02*
X031786Y003099D01*
X031786Y003486D01*
X031420Y003558D02*
X029490Y003558D01*
X029490Y003525D02*
X029490Y003746D01*
X029478Y003792D01*
X029454Y003833D01*
X029420Y003867D01*
X029379Y003890D01*
X029334Y003903D01*
X029112Y003903D01*
X029112Y003525D01*
X029036Y003525D01*
X029036Y003903D01*
X028814Y003903D01*
X028768Y003890D01*
X028727Y003867D01*
X028693Y003833D01*
X028670Y003792D01*
X028657Y003746D01*
X028657Y003525D01*
X029036Y003525D01*
X029036Y003448D01*
X029112Y003448D01*
X029112Y003070D01*
X029334Y003070D01*
X029379Y003083D01*
X031576Y003083D01*
X031664Y002924D02*
X023196Y002924D01*
X023037Y002766D02*
X031823Y002766D01*
X032180Y002705D02*
X035680Y002705D01*
X038180Y005205D01*
X038180Y010870D01*
X037515Y010870D01*
X036845Y011540D01*
X036180Y011540D01*
X036180Y013370D01*
X035515Y013370D01*
X034680Y014205D01*
X032710Y014205D01*
X032680Y014235D01*
X032180Y014235D02*
X032180Y013705D01*
X032680Y013205D01*
X033680Y013205D01*
X034180Y012705D01*
X034180Y011540D01*
X034845Y011540D01*
X035180Y011205D01*
X035180Y008705D01*
X035515Y008370D01*
X036180Y008370D01*
X036507Y008313D02*
X036970Y008313D01*
X036970Y008472D02*
X036507Y008472D01*
X036507Y008630D02*
X036970Y008630D01*
X036970Y008789D02*
X036507Y008789D01*
X036507Y008947D02*
X036970Y008947D01*
X036970Y009106D02*
X036507Y009106D01*
X036507Y009264D02*
X036824Y009264D01*
X036666Y009423D02*
X036390Y009423D01*
X036390Y009581D02*
X036507Y009581D01*
X036942Y009740D02*
X037970Y009740D01*
X037970Y009898D02*
X036784Y009898D01*
X036625Y010057D02*
X037970Y010057D01*
X037970Y010215D02*
X036467Y010215D01*
X036390Y010374D02*
X037970Y010374D01*
X037921Y010532D02*
X036439Y010532D01*
X036507Y010691D02*
X037397Y010691D01*
X037239Y010849D02*
X036507Y010849D01*
X036507Y011008D02*
X037080Y011008D01*
X036922Y011166D02*
X036482Y011166D01*
X036507Y011325D02*
X036763Y011325D01*
X037040Y011642D02*
X037781Y011642D01*
X037853Y011483D02*
X037199Y011483D01*
X037357Y011325D02*
X037853Y011325D01*
X037878Y011166D02*
X037516Y011166D01*
X038180Y011540D02*
X037515Y012205D01*
X037180Y012205D01*
X037387Y012434D02*
X039500Y012434D01*
X039500Y012276D02*
X037741Y012276D01*
X037900Y012117D02*
X039500Y012117D01*
X039500Y011959D02*
X038058Y011959D01*
X037623Y011800D02*
X036507Y011800D01*
X036390Y011959D02*
X036991Y011959D01*
X036883Y012117D02*
X036390Y012117D01*
X036390Y012276D02*
X036876Y012276D01*
X036973Y012434D02*
X036390Y012434D01*
X036390Y012593D02*
X039500Y012593D01*
X039500Y012751D02*
X036390Y012751D01*
X036390Y012910D02*
X039500Y012910D01*
X039500Y013068D02*
X036475Y013068D01*
X036507Y013227D02*
X039500Y013227D01*
X039500Y013385D02*
X036507Y013385D01*
X036507Y013544D02*
X039500Y013544D01*
X039500Y013702D02*
X036446Y013702D01*
X036507Y013861D02*
X039500Y013861D01*
X039500Y014019D02*
X036507Y014019D01*
X036507Y014178D02*
X039500Y014178D01*
X039500Y014336D02*
X036481Y014336D01*
X036390Y014495D02*
X039500Y014495D01*
X039500Y014653D02*
X036390Y014653D01*
X036390Y014812D02*
X039500Y014812D01*
X039500Y014970D02*
X036390Y014970D01*
X036390Y015129D02*
X039500Y015129D01*
X039500Y015287D02*
X036390Y015287D01*
X036390Y015446D02*
X039500Y015446D01*
X039500Y015604D02*
X036507Y015604D01*
X036507Y015763D02*
X039500Y015763D01*
X039500Y015921D02*
X036507Y015921D01*
X036507Y016080D02*
X039500Y016080D01*
X039500Y016238D02*
X036476Y016238D01*
X036507Y016397D02*
X039500Y016397D01*
X039500Y016555D02*
X036507Y016555D01*
X036507Y016714D02*
X039500Y016714D01*
X039500Y016872D02*
X036445Y016872D01*
X036390Y017031D02*
X039500Y017031D01*
X039500Y017189D02*
X036390Y017189D01*
X036390Y017348D02*
X039500Y017348D01*
X039500Y017506D02*
X036390Y017506D01*
X036390Y017665D02*
X039500Y017665D01*
X039500Y017823D02*
X036390Y017823D01*
X036390Y017982D02*
X039500Y017982D01*
X039500Y018140D02*
X036507Y018140D01*
X036507Y018299D02*
X039500Y018299D01*
X039500Y018457D02*
X036507Y018457D01*
X036507Y018616D02*
X039500Y018616D01*
X039500Y018774D02*
X036507Y018774D01*
X036507Y018933D02*
X039500Y018933D01*
X039500Y019091D02*
X036507Y019091D01*
X036507Y019250D02*
X039500Y019250D01*
X039500Y019408D02*
X034390Y019408D01*
X034390Y019567D02*
X039500Y019567D01*
X039500Y019725D02*
X034390Y019725D01*
X034390Y019884D02*
X039500Y019884D01*
X039500Y020042D02*
X034390Y020042D01*
X034390Y020201D02*
X039500Y020201D01*
X039500Y020359D02*
X034390Y020359D01*
X034390Y020518D02*
X039500Y020518D01*
X039500Y020676D02*
X034507Y020676D01*
X034507Y020835D02*
X039500Y020835D01*
X039500Y020993D02*
X034507Y020993D01*
X034496Y021152D02*
X039500Y021152D01*
X039500Y021310D02*
X034507Y021310D01*
X034507Y021469D02*
X039500Y021469D01*
X039500Y021627D02*
X034507Y021627D01*
X034507Y021786D02*
X039500Y021786D01*
X039500Y021944D02*
X034390Y021944D01*
X034390Y022103D02*
X039500Y022103D01*
X039500Y022261D02*
X034390Y022261D01*
X034262Y022420D02*
X039500Y022420D01*
X039500Y022578D02*
X034104Y022578D01*
X033945Y022737D02*
X039500Y022737D01*
X039500Y022895D02*
X033787Y022895D01*
X033680Y022705D02*
X032680Y022705D01*
X032796Y022420D02*
X033668Y022420D01*
X033827Y022261D02*
X031805Y022261D01*
X031805Y022103D02*
X033970Y022103D01*
X033970Y021944D02*
X031805Y021944D01*
X031805Y021786D02*
X033853Y021786D01*
X033853Y021627D02*
X031805Y021627D01*
X031805Y021469D02*
X033853Y021469D01*
X033853Y021310D02*
X031805Y021310D01*
X031805Y021152D02*
X033864Y021152D01*
X033853Y020993D02*
X031805Y020993D01*
X031823Y020835D02*
X033853Y020835D01*
X033853Y020676D02*
X031756Y020676D01*
X031515Y020870D02*
X031345Y020870D01*
X030470Y020518D02*
X033970Y020518D01*
X033970Y020359D02*
X030470Y020359D01*
X030470Y020201D02*
X033970Y020201D01*
X033970Y020042D02*
X030470Y020042D01*
X030470Y019884D02*
X031923Y019884D01*
X031872Y019725D02*
X030470Y019725D01*
X030470Y019567D02*
X031890Y019567D01*
X031890Y019408D02*
X030470Y019408D01*
X030507Y019250D02*
X031853Y019250D01*
X031853Y019091D02*
X030507Y019091D01*
X030507Y018933D02*
X031853Y018933D01*
X031853Y018774D02*
X030507Y018774D01*
X030556Y018616D02*
X031853Y018616D01*
X031853Y018457D02*
X030557Y018457D01*
X030557Y018299D02*
X031811Y018299D01*
X031653Y018140D02*
X030557Y018140D01*
X030429Y017982D02*
X031494Y017982D01*
X031470Y017823D02*
X029859Y017823D01*
X029914Y017986D02*
X029873Y018010D01*
X029839Y018043D01*
X029815Y018084D01*
X029803Y018130D01*
X029803Y018352D01*
X030162Y018352D01*
X030162Y017974D01*
X029959Y017974D01*
X029914Y017986D01*
X029931Y017982D02*
X029700Y017982D01*
X029803Y018140D02*
X029542Y018140D01*
X029390Y018299D02*
X029803Y018299D01*
X029803Y018457D02*
X029390Y018457D01*
X029390Y018616D02*
X029804Y018616D01*
X029853Y018774D02*
X029390Y018774D01*
X029390Y018933D02*
X029853Y018933D01*
X029853Y019091D02*
X029390Y019091D01*
X029390Y019250D02*
X029853Y019250D01*
X029890Y019408D02*
X029390Y019408D01*
X029390Y019567D02*
X029890Y019567D01*
X029890Y019725D02*
X029390Y019725D01*
X029390Y019884D02*
X029890Y019884D01*
X029890Y020042D02*
X029390Y020042D01*
X029390Y020201D02*
X029890Y020201D01*
X029890Y020359D02*
X029390Y020359D01*
X029390Y020518D02*
X029890Y020518D01*
X029853Y020676D02*
X029390Y020676D01*
X029390Y020835D02*
X029853Y020835D01*
X029853Y020993D02*
X029390Y020993D01*
X029390Y021152D02*
X029864Y021152D01*
X029853Y021310D02*
X029390Y021310D01*
X029180Y021540D02*
X029180Y018205D01*
X030680Y016705D01*
X030680Y016175D01*
X030180Y016175D02*
X030180Y015705D01*
X030680Y015205D01*
X030680Y014235D01*
X030440Y014178D02*
X030420Y014178D01*
X030420Y014336D02*
X030440Y014336D01*
X030440Y014495D02*
X030420Y014495D01*
X030420Y014653D02*
X030440Y014653D01*
X030440Y014679D02*
X030440Y013791D01*
X030516Y013715D01*
X030844Y013715D01*
X030903Y013774D01*
X030926Y013734D01*
X030959Y013701D01*
X031001Y013677D01*
X031046Y013665D01*
X031180Y013665D01*
X031314Y013665D01*
X031359Y013677D01*
X031401Y013701D01*
X031434Y013734D01*
X031457Y013774D01*
X031470Y013761D01*
X031470Y012618D01*
X031970Y012118D01*
X031970Y011886D01*
X031929Y011886D01*
X031853Y011810D01*
X031853Y011269D01*
X031917Y011205D01*
X031873Y011160D01*
X030487Y011160D01*
X030475Y011172D01*
X030487Y011179D01*
X030521Y011213D01*
X030545Y011254D01*
X030557Y011299D01*
X030557Y011521D01*
X030198Y011521D01*
X030198Y011558D01*
X030162Y011558D01*
X030162Y011936D01*
X029959Y011936D01*
X029914Y011924D01*
X029873Y011900D01*
X029839Y011867D01*
X029815Y011826D01*
X029803Y011780D01*
X029803Y011558D01*
X030162Y011558D01*
X030162Y011521D01*
X029803Y011521D01*
X029803Y011299D01*
X029815Y011254D01*
X029839Y011213D01*
X029873Y011179D01*
X029885Y011172D01*
X029853Y011141D01*
X029853Y010600D01*
X029890Y010563D01*
X029890Y009995D01*
X029285Y009995D01*
X029241Y010013D01*
X029119Y010013D01*
X029005Y009966D01*
X028919Y009880D01*
X028872Y009766D01*
X028872Y009644D01*
X028919Y009530D01*
X029005Y009444D01*
X029119Y009397D01*
X029241Y009397D01*
X029285Y009415D01*
X029890Y009415D01*
X029890Y009347D01*
X029853Y009310D01*
X029853Y008769D01*
X029917Y008705D01*
X029853Y008641D01*
X029853Y008100D01*
X029929Y008024D01*
X030431Y008024D01*
X030507Y008100D01*
X030507Y008160D01*
X031853Y008160D01*
X031853Y008100D01*
X031929Y008024D01*
X032431Y008024D01*
X032507Y008100D01*
X032507Y008641D01*
X032443Y008705D01*
X032507Y008769D01*
X032507Y009310D01*
X032470Y009347D01*
X032470Y010563D01*
X032487Y010580D01*
X033680Y010580D01*
X033680Y008002D01*
X033593Y007915D01*
X028767Y007915D01*
X028507Y008175D01*
X028507Y008641D01*
X028443Y008705D01*
X028507Y008769D01*
X028507Y009310D01*
X028431Y009386D01*
X028390Y009386D01*
X028390Y010524D01*
X028431Y010524D01*
X028507Y010600D01*
X028507Y011141D01*
X028443Y011205D01*
X028507Y011269D01*
X028507Y011810D01*
X028431Y011886D01*
X028390Y011886D01*
X028390Y013648D01*
X028767Y014025D01*
X029440Y014025D01*
X029440Y013791D01*
X029516Y013715D01*
X029844Y013715D01*
X029920Y013791D01*
X029920Y014668D01*
X029940Y014648D01*
X029940Y013791D01*
X030016Y013715D01*
X030344Y013715D01*
X030420Y013791D01*
X030420Y014679D01*
X030394Y014705D01*
X030466Y014705D01*
X030440Y014679D01*
X030180Y014705D02*
X029680Y015205D01*
X029180Y015205D01*
X028180Y016205D01*
X027180Y016205D01*
X026680Y015705D01*
X026680Y011705D01*
X027515Y010870D01*
X028180Y010870D01*
X028180Y009040D01*
X027853Y009106D02*
X026153Y009106D01*
X026284Y009032D02*
X026207Y008956D01*
X026207Y008454D01*
X026284Y008378D01*
X026403Y008378D01*
X026403Y008185D01*
X026526Y008062D01*
X026883Y007705D01*
X026037Y007705D01*
X026037Y008004D01*
X026076Y008004D01*
X026153Y008080D01*
X026153Y008582D01*
X026076Y008658D01*
X025417Y008658D01*
X025381Y008621D01*
X022659Y008621D01*
X022615Y008639D01*
X022493Y008639D01*
X022449Y008621D01*
X020507Y008621D01*
X020507Y008641D01*
X020475Y008672D01*
X020487Y008679D01*
X020521Y008713D01*
X020545Y008754D01*
X020557Y008799D01*
X020557Y009021D01*
X020198Y009021D01*
X020198Y009058D01*
X020162Y009058D01*
X020162Y009436D01*
X019959Y009436D01*
X019914Y009424D01*
X019873Y009400D01*
X019839Y009367D01*
X019815Y009326D01*
X019803Y009280D01*
X019803Y009058D01*
X020162Y009058D01*
X020162Y009021D01*
X019803Y009021D01*
X019803Y008799D01*
X019815Y008754D01*
X019839Y008713D01*
X019873Y008679D01*
X019885Y008672D01*
X019853Y008641D01*
X019853Y008100D01*
X019929Y008024D01*
X020431Y008024D01*
X020448Y008041D01*
X022449Y008041D01*
X022493Y008023D01*
X022615Y008023D01*
X022659Y008041D01*
X025381Y008041D01*
X025417Y008004D01*
X025457Y008004D01*
X025457Y007705D01*
X019477Y007705D01*
X019390Y007792D01*
X019390Y009618D01*
X019890Y010118D01*
X019890Y013761D01*
X019903Y013774D01*
X019926Y013734D01*
X019959Y013701D01*
X020001Y013677D01*
X020046Y013665D01*
X020180Y013665D01*
X020314Y013665D01*
X020359Y013677D01*
X020401Y013701D01*
X020434Y013734D01*
X020457Y013774D01*
X020470Y013761D01*
X020470Y013118D01*
X020970Y012618D01*
X021093Y012495D01*
X021454Y012495D01*
X021505Y012444D01*
X021619Y012397D01*
X021741Y012397D01*
X021855Y012444D01*
X021941Y012530D01*
X021988Y012644D01*
X021988Y012766D01*
X021941Y012880D01*
X021855Y012966D01*
X021741Y013013D01*
X021619Y013013D01*
X021505Y012966D01*
X021454Y012915D01*
X021267Y012915D01*
X020890Y013292D01*
X020890Y013761D01*
X020920Y013791D01*
X020920Y014679D01*
X020894Y014705D01*
X020966Y014705D01*
X020940Y014679D01*
X020940Y013791D01*
X020970Y013761D01*
X020970Y013618D01*
X021093Y013495D01*
X021428Y013160D01*
X023853Y013160D01*
X023853Y013100D01*
X023929Y013024D01*
X024064Y013024D01*
X024593Y012495D01*
X024767Y012495D01*
X025593Y012495D01*
X025767Y012495D01*
X026267Y012995D01*
X026390Y013118D01*
X026390Y014705D01*
X026470Y014705D01*
X026470Y011618D01*
X026593Y011495D01*
X027428Y010660D01*
X027853Y010660D01*
X027853Y010600D01*
X027929Y010524D01*
X027970Y010524D01*
X027970Y009386D01*
X027929Y009386D01*
X027853Y009310D01*
X027853Y008769D01*
X027917Y008705D01*
X027853Y008641D01*
X027853Y008100D01*
X027929Y008024D01*
X028064Y008024D01*
X028173Y007915D01*
X027267Y007915D01*
X026823Y008359D01*
X026823Y008378D01*
X026943Y008378D01*
X027019Y008454D01*
X027019Y008956D01*
X026943Y009032D01*
X026284Y009032D01*
X026207Y008947D02*
X026153Y008947D01*
X026153Y008828D02*
X026153Y009330D01*
X026076Y009406D01*
X025417Y009406D01*
X025341Y009330D01*
X025341Y009289D01*
X021893Y009289D01*
X020988Y010194D01*
X020988Y010266D01*
X020941Y010380D01*
X020855Y010466D01*
X020741Y010513D01*
X020619Y010513D01*
X020505Y010466D01*
X020419Y010380D01*
X020372Y010266D01*
X020372Y010144D01*
X020419Y010030D01*
X020505Y009944D01*
X020619Y009897D01*
X020691Y009897D01*
X021596Y008992D01*
X021719Y008869D01*
X025341Y008869D01*
X025341Y008828D01*
X025417Y008752D01*
X026076Y008752D01*
X026153Y008828D01*
X026113Y008789D02*
X026207Y008789D01*
X026207Y008630D02*
X026104Y008630D01*
X026153Y008472D02*
X026207Y008472D01*
X026153Y008313D02*
X026403Y008313D01*
X026434Y008155D02*
X026153Y008155D01*
X026037Y007996D02*
X026592Y007996D01*
X026751Y007838D02*
X026037Y007838D01*
X025457Y007838D02*
X019390Y007838D01*
X019390Y007996D02*
X025457Y007996D01*
X025390Y008630D02*
X022637Y008630D01*
X022471Y008630D02*
X020507Y008630D01*
X020554Y008789D02*
X025381Y008789D01*
X025747Y009079D02*
X021806Y009079D01*
X020680Y010205D01*
X020988Y010215D02*
X027970Y010215D01*
X027970Y010057D02*
X021125Y010057D01*
X021284Y009898D02*
X027970Y009898D01*
X027970Y009740D02*
X021442Y009740D01*
X021601Y009581D02*
X027970Y009581D01*
X027970Y009423D02*
X021759Y009423D01*
X021483Y009106D02*
X020557Y009106D01*
X020557Y009058D02*
X020557Y009280D01*
X020545Y009326D01*
X020521Y009367D01*
X020487Y009400D01*
X020446Y009424D01*
X020401Y009436D01*
X020198Y009436D01*
X020198Y009058D01*
X020557Y009058D01*
X020557Y008947D02*
X021641Y008947D01*
X021324Y009264D02*
X020557Y009264D01*
X020449Y009423D02*
X021166Y009423D01*
X021007Y009581D02*
X019390Y009581D01*
X019390Y009423D02*
X019911Y009423D01*
X019803Y009264D02*
X019390Y009264D01*
X019390Y009106D02*
X019803Y009106D01*
X019803Y008947D02*
X019390Y008947D01*
X019390Y008789D02*
X019806Y008789D01*
X019853Y008630D02*
X019390Y008630D01*
X019390Y008472D02*
X019853Y008472D01*
X019853Y008313D02*
X019390Y008313D01*
X019390Y008155D02*
X019853Y008155D01*
X019978Y007204D02*
X025457Y007204D01*
X025457Y007045D02*
X020137Y007045D01*
X019860Y006728D02*
X018000Y006728D01*
X017957Y006570D02*
X020019Y006570D01*
X019702Y006887D02*
X018158Y006887D01*
X018317Y007045D02*
X019543Y007045D01*
X019385Y007204D02*
X018390Y007204D01*
X018180Y007205D02*
X017680Y006705D01*
X017403Y006570D02*
X016180Y006570D01*
X016180Y006728D02*
X017372Y006728D01*
X017426Y006887D02*
X016180Y006887D01*
X016180Y007045D02*
X017723Y007045D01*
X017882Y007204D02*
X016180Y007204D01*
X016180Y008370D02*
X016845Y008370D01*
X017180Y008705D01*
X017180Y009705D01*
X017680Y010205D02*
X017180Y010705D01*
X017180Y012205D01*
X016180Y011540D02*
X015515Y011540D01*
X015180Y011205D01*
X014180Y010870D02*
X014180Y009040D01*
X016180Y009040D02*
X016180Y010870D01*
X016011Y010870D01*
X017680Y010205D02*
X018680Y010205D01*
X018845Y010870D02*
X018180Y010870D01*
X019890Y010849D02*
X027239Y010849D01*
X027397Y010691D02*
X019890Y010691D01*
X019890Y010532D02*
X027921Y010532D01*
X027970Y010374D02*
X020944Y010374D01*
X020416Y010374D02*
X019890Y010374D01*
X019890Y010215D02*
X020372Y010215D01*
X020408Y010057D02*
X019828Y010057D01*
X019670Y009898D02*
X020616Y009898D01*
X020849Y009740D02*
X019511Y009740D01*
X020162Y009423D02*
X020198Y009423D01*
X020198Y009264D02*
X020162Y009264D01*
X020162Y009106D02*
X020198Y009106D01*
X018180Y009205D02*
X018180Y007205D01*
X016180Y005460D02*
X022628Y005460D01*
X022787Y005302D02*
X021471Y005302D01*
X021194Y004985D02*
X016180Y004985D01*
X016180Y004826D02*
X021255Y004826D01*
X021255Y004668D02*
X016180Y004668D01*
X016180Y004509D02*
X021255Y004509D01*
X021828Y004351D02*
X016180Y004351D01*
X016180Y004192D02*
X021864Y004192D01*
X021864Y004034D02*
X019103Y004034D01*
X019325Y003875D02*
X021864Y003875D01*
X022284Y004351D02*
X022970Y004351D01*
X022970Y004509D02*
X022264Y004509D01*
X022105Y004668D02*
X022970Y004668D01*
X022970Y004826D02*
X022105Y004826D01*
X022105Y004985D02*
X022970Y004985D01*
X022945Y005143D02*
X022105Y005143D01*
X024748Y003448D02*
X024748Y003070D01*
X024526Y003070D01*
X024481Y003083D01*
X024748Y003083D02*
X024824Y003083D01*
X024824Y003241D02*
X024748Y003241D01*
X024748Y003400D02*
X024824Y003400D01*
X025203Y003400D02*
X025207Y003400D01*
X025203Y003558D02*
X025207Y003558D01*
X025203Y003717D02*
X025207Y003717D01*
X025119Y003875D02*
X026390Y003875D01*
X026970Y003875D02*
X028741Y003875D01*
X028657Y003717D02*
X028653Y003717D01*
X028653Y003558D02*
X028657Y003558D01*
X028657Y003448D02*
X028657Y003227D01*
X028670Y003181D01*
X028693Y003140D01*
X028727Y003106D01*
X028768Y003083D01*
X028814Y003070D01*
X029036Y003070D01*
X029036Y003448D01*
X028657Y003448D01*
X028653Y003400D02*
X028657Y003400D01*
X028653Y003241D02*
X028657Y003241D01*
X028768Y003083D02*
X025092Y003083D01*
X025203Y003241D02*
X025207Y003241D01*
X026970Y004034D02*
X032470Y004034D01*
X032470Y004192D02*
X026970Y004192D01*
X026970Y004351D02*
X032328Y004351D01*
X032680Y004296D02*
X032180Y004796D01*
X034589Y007205D01*
X036180Y007205D01*
X037180Y008205D01*
X037180Y009205D01*
X036180Y010205D01*
X036180Y010870D01*
X036180Y010205D02*
X036180Y009040D01*
X037101Y009581D02*
X037970Y009581D01*
X037970Y009423D02*
X037259Y009423D01*
X037390Y009264D02*
X037970Y009264D01*
X037970Y009106D02*
X037390Y009106D01*
X037390Y008947D02*
X037970Y008947D01*
X037970Y008789D02*
X037390Y008789D01*
X037390Y008630D02*
X037970Y008630D01*
X037970Y008472D02*
X037390Y008472D01*
X037390Y008313D02*
X037970Y008313D01*
X037970Y008155D02*
X037390Y008155D01*
X037268Y007996D02*
X037970Y007996D01*
X037970Y007838D02*
X037109Y007838D01*
X036951Y007679D02*
X037970Y007679D01*
X037970Y007521D02*
X036792Y007521D01*
X036634Y007362D02*
X037970Y007362D01*
X037970Y007204D02*
X036475Y007204D01*
X036317Y007045D02*
X037970Y007045D01*
X037970Y006887D02*
X034568Y006887D01*
X034409Y006728D02*
X037970Y006728D01*
X037970Y006570D02*
X034251Y006570D01*
X034092Y006411D02*
X037970Y006411D01*
X037970Y006253D02*
X033934Y006253D01*
X033775Y006094D02*
X037970Y006094D01*
X037970Y005936D02*
X033617Y005936D01*
X033458Y005777D02*
X037970Y005777D01*
X037970Y005619D02*
X033300Y005619D01*
X033141Y005460D02*
X037970Y005460D01*
X037970Y005302D02*
X032983Y005302D01*
X032824Y005143D02*
X037821Y005143D01*
X037663Y004985D02*
X032666Y004985D01*
X032605Y004826D02*
X037504Y004826D01*
X037346Y004668D02*
X032605Y004668D01*
X032764Y004509D02*
X037187Y004509D01*
X037029Y004351D02*
X032890Y004351D01*
X032890Y004192D02*
X036870Y004192D01*
X036712Y004034D02*
X032890Y004034D01*
X032890Y003875D02*
X036553Y003875D01*
X036395Y003717D02*
X032940Y003717D01*
X032940Y003558D02*
X036236Y003558D01*
X036078Y003400D02*
X032940Y003400D01*
X032940Y003241D02*
X035919Y003241D01*
X035761Y003083D02*
X032099Y003083D01*
X032153Y003241D02*
X032207Y003241D01*
X032207Y003400D02*
X032153Y003400D01*
X032153Y003558D02*
X032207Y003558D01*
X032207Y003717D02*
X032153Y003717D01*
X032470Y003875D02*
X029406Y003875D01*
X029490Y003717D02*
X031420Y003717D01*
X031420Y003400D02*
X029490Y003400D01*
X029490Y003448D02*
X029112Y003448D01*
X029112Y003525D01*
X029490Y003525D01*
X029490Y003448D02*
X029490Y003227D01*
X029478Y003181D01*
X029454Y003140D01*
X029420Y003106D01*
X029379Y003083D01*
X029490Y003241D02*
X031420Y003241D01*
X032258Y002924D02*
X035602Y002924D01*
X035879Y002607D02*
X039500Y002607D01*
X039500Y002449D02*
X019223Y002449D01*
X018760Y003400D02*
X018600Y003400D01*
X018600Y003558D02*
X018760Y003558D01*
X018760Y003717D02*
X018600Y003717D01*
X018600Y003875D02*
X018760Y003875D01*
X018760Y004034D02*
X018600Y004034D01*
X018257Y004034D02*
X016180Y004034D01*
X016180Y003875D02*
X018035Y003875D01*
X017903Y003717D02*
X016180Y003717D01*
X016180Y003558D02*
X017818Y003558D01*
X017770Y003400D02*
X016180Y003400D01*
X014390Y004192D02*
X002890Y004192D01*
X002890Y004351D02*
X014390Y004351D01*
X014390Y004509D02*
X002890Y004509D01*
X002890Y004668D02*
X014390Y004668D01*
X014390Y004826D02*
X002890Y004826D01*
X002890Y004985D02*
X014390Y004985D01*
X014332Y005143D02*
X002890Y005143D01*
X002890Y005302D02*
X014173Y005302D01*
X014015Y005460D02*
X002890Y005460D01*
X000860Y001973D02*
X015680Y001973D01*
X015680Y001815D02*
X000860Y001815D01*
X000860Y001656D02*
X015680Y001656D01*
X015680Y001498D02*
X000860Y001498D01*
X000860Y001339D02*
X015680Y001339D01*
X015680Y001181D02*
X000860Y001181D01*
X000860Y001022D02*
X015680Y001022D01*
X016180Y001022D02*
X039500Y001022D01*
X039500Y001181D02*
X016180Y001181D01*
X016180Y001339D02*
X039500Y001339D01*
X039500Y001498D02*
X016180Y001498D01*
X016180Y001656D02*
X039500Y001656D01*
X039500Y001815D02*
X016180Y001815D01*
X016180Y001973D02*
X039500Y001973D01*
X039500Y002766D02*
X036037Y002766D01*
X036196Y002924D02*
X039500Y002924D01*
X039500Y003083D02*
X036354Y003083D01*
X036513Y003241D02*
X039500Y003241D01*
X039500Y003400D02*
X036671Y003400D01*
X036830Y003558D02*
X039500Y003558D01*
X039500Y003717D02*
X036988Y003717D01*
X037147Y003875D02*
X039500Y003875D01*
X039500Y004034D02*
X037305Y004034D01*
X037464Y004192D02*
X039500Y004192D01*
X039500Y004351D02*
X037622Y004351D01*
X037781Y004509D02*
X039500Y004509D01*
X039500Y004668D02*
X037939Y004668D01*
X038098Y004826D02*
X039500Y004826D01*
X039500Y004985D02*
X038256Y004985D01*
X038390Y005143D02*
X039500Y005143D01*
X039500Y005302D02*
X038390Y005302D01*
X038390Y005460D02*
X039500Y005460D01*
X039500Y005619D02*
X038390Y005619D01*
X038390Y005777D02*
X039500Y005777D01*
X039500Y005936D02*
X038390Y005936D01*
X038390Y006094D02*
X039500Y006094D01*
X039500Y006253D02*
X038390Y006253D01*
X038390Y006411D02*
X039500Y006411D01*
X039500Y006570D02*
X038390Y006570D01*
X038390Y006728D02*
X039500Y006728D01*
X039500Y006887D02*
X038390Y006887D01*
X038390Y007045D02*
X039500Y007045D01*
X039500Y007204D02*
X038390Y007204D01*
X038390Y007362D02*
X039500Y007362D01*
X039500Y007521D02*
X038390Y007521D01*
X038390Y007679D02*
X039500Y007679D01*
X039500Y007838D02*
X038390Y007838D01*
X038390Y007996D02*
X039500Y007996D01*
X039500Y008155D02*
X038390Y008155D01*
X038390Y008313D02*
X039500Y008313D01*
X039500Y008472D02*
X038390Y008472D01*
X038390Y008630D02*
X039500Y008630D01*
X039500Y008789D02*
X038390Y008789D01*
X038390Y008947D02*
X039500Y008947D01*
X039500Y009106D02*
X038390Y009106D01*
X038390Y009264D02*
X039500Y009264D01*
X039500Y009423D02*
X038390Y009423D01*
X038390Y009581D02*
X039500Y009581D01*
X039500Y009740D02*
X038390Y009740D01*
X038390Y009898D02*
X039500Y009898D01*
X039500Y010057D02*
X038390Y010057D01*
X038390Y010215D02*
X039500Y010215D01*
X039500Y010374D02*
X038390Y010374D01*
X038439Y010532D02*
X039500Y010532D01*
X039500Y010691D02*
X038507Y010691D01*
X038507Y010849D02*
X039500Y010849D01*
X039500Y011008D02*
X038507Y011008D01*
X038482Y011166D02*
X039500Y011166D01*
X039500Y011325D02*
X038507Y011325D01*
X038507Y011483D02*
X039500Y011483D01*
X039500Y011642D02*
X038507Y011642D01*
X038507Y011800D02*
X039500Y011800D01*
X037464Y011959D02*
X037369Y011959D01*
X034922Y011166D02*
X034482Y011166D01*
X034507Y011008D02*
X034970Y011008D01*
X034970Y010849D02*
X034507Y010849D01*
X034507Y010691D02*
X034970Y010691D01*
X034970Y010532D02*
X034470Y010532D01*
X034470Y010374D02*
X034970Y010374D01*
X034970Y010215D02*
X034470Y010215D01*
X034470Y010057D02*
X034970Y010057D01*
X034970Y009898D02*
X034470Y009898D01*
X034470Y009740D02*
X034970Y009740D01*
X034970Y009581D02*
X034470Y009581D01*
X034470Y009423D02*
X034970Y009423D01*
X034970Y009264D02*
X034507Y009264D01*
X034507Y009106D02*
X034970Y009106D01*
X034970Y008947D02*
X034507Y008947D01*
X034507Y008789D02*
X034970Y008789D01*
X034970Y008630D02*
X034507Y008630D01*
X034507Y008472D02*
X035117Y008472D01*
X035275Y008313D02*
X034507Y008313D01*
X034507Y008155D02*
X035853Y008155D01*
X036357Y007679D02*
X034180Y007679D01*
X034180Y007521D02*
X036199Y007521D01*
X036516Y007838D02*
X034180Y007838D01*
X034268Y007996D02*
X036674Y007996D01*
X036833Y008155D02*
X036507Y008155D01*
X034449Y007362D02*
X034180Y007362D01*
X034291Y007204D02*
X026037Y007204D01*
X026037Y007045D02*
X034132Y007045D01*
X033974Y006887D02*
X028934Y006887D01*
X028941Y006880D02*
X028855Y006966D01*
X028741Y007013D01*
X028619Y007013D01*
X028505Y006966D01*
X028419Y006880D01*
X028372Y006766D01*
X028372Y006644D01*
X028419Y006530D01*
X028470Y006479D01*
X028470Y005241D01*
X028331Y005241D01*
X028255Y005164D01*
X028255Y004427D01*
X028331Y004351D01*
X029029Y004351D01*
X029105Y004427D01*
X029105Y005164D01*
X029029Y005241D01*
X028890Y005241D01*
X028890Y006479D01*
X028941Y006530D01*
X028988Y006644D01*
X028988Y006766D01*
X028941Y006880D01*
X028988Y006728D02*
X033815Y006728D01*
X033657Y006570D02*
X028957Y006570D01*
X028890Y006411D02*
X033498Y006411D01*
X033340Y006253D02*
X028890Y006253D01*
X028890Y006094D02*
X033181Y006094D01*
X033023Y005936D02*
X028890Y005936D01*
X028890Y005777D02*
X032864Y005777D01*
X032706Y005619D02*
X028890Y005619D01*
X028890Y005460D02*
X032547Y005460D01*
X032389Y005302D02*
X028890Y005302D01*
X029105Y005143D02*
X031755Y005143D01*
X031755Y004985D02*
X029105Y004985D01*
X029105Y004826D02*
X031755Y004826D01*
X031755Y004668D02*
X029105Y004668D01*
X029105Y004509D02*
X031755Y004509D01*
X032680Y004296D02*
X032680Y003380D01*
X032574Y003486D01*
X029112Y003558D02*
X029036Y003558D01*
X029036Y003400D02*
X029112Y003400D01*
X029112Y003241D02*
X029036Y003241D01*
X029036Y003083D02*
X029112Y003083D01*
X029112Y003717D02*
X029036Y003717D01*
X029036Y003875D02*
X029112Y003875D01*
X028255Y004509D02*
X026970Y004509D01*
X026970Y004668D02*
X028255Y004668D01*
X028255Y004826D02*
X026970Y004826D01*
X026970Y004985D02*
X028255Y004985D01*
X028255Y005143D02*
X026970Y005143D01*
X026970Y005302D02*
X028470Y005302D01*
X028470Y005460D02*
X026970Y005460D01*
X026970Y005619D02*
X028470Y005619D01*
X028470Y005777D02*
X026964Y005777D01*
X026860Y005936D02*
X028470Y005936D01*
X028470Y006094D02*
X026701Y006094D01*
X026543Y006253D02*
X028470Y006253D01*
X028470Y006411D02*
X026384Y006411D01*
X026226Y006570D02*
X028403Y006570D01*
X028372Y006728D02*
X026067Y006728D01*
X026037Y006887D02*
X028426Y006887D01*
X028680Y006705D02*
X028680Y004796D01*
X027920Y003196D02*
X027920Y003196D01*
X034379Y007292D02*
X034379Y007292D01*
X033680Y007705D02*
X034180Y008205D01*
X034180Y008370D01*
X033680Y008313D02*
X032507Y008313D01*
X032507Y008155D02*
X033680Y008155D01*
X033674Y007996D02*
X028686Y007996D01*
X028527Y008155D02*
X029853Y008155D01*
X029853Y008313D02*
X028507Y008313D01*
X028507Y008472D02*
X029853Y008472D01*
X029853Y008630D02*
X028507Y008630D01*
X028507Y008789D02*
X029853Y008789D01*
X029853Y008947D02*
X028507Y008947D01*
X028507Y009106D02*
X029853Y009106D01*
X029853Y009264D02*
X028507Y009264D01*
X028390Y009423D02*
X029057Y009423D01*
X028898Y009581D02*
X028390Y009581D01*
X028390Y009740D02*
X028872Y009740D01*
X028937Y009898D02*
X028390Y009898D01*
X028390Y010057D02*
X029890Y010057D01*
X029890Y010215D02*
X028390Y010215D01*
X028390Y010374D02*
X029890Y010374D01*
X029890Y010532D02*
X028439Y010532D01*
X028507Y010691D02*
X029853Y010691D01*
X029853Y010849D02*
X028507Y010849D01*
X028507Y011008D02*
X029853Y011008D01*
X029878Y011166D02*
X028482Y011166D01*
X028507Y011325D02*
X029803Y011325D01*
X029803Y011483D02*
X028507Y011483D01*
X028507Y011642D02*
X029803Y011642D01*
X029809Y011800D02*
X028507Y011800D01*
X028390Y011959D02*
X031970Y011959D01*
X031970Y012117D02*
X028390Y012117D01*
X028390Y012276D02*
X031812Y012276D01*
X031654Y012434D02*
X028390Y012434D01*
X028390Y012593D02*
X031495Y012593D01*
X031470Y012751D02*
X028390Y012751D01*
X028390Y012910D02*
X031470Y012910D01*
X031470Y013068D02*
X028390Y013068D01*
X028390Y013227D02*
X031470Y013227D01*
X031470Y013385D02*
X028390Y013385D01*
X028390Y013544D02*
X031470Y013544D01*
X031470Y013702D02*
X031402Y013702D01*
X031180Y013702D02*
X031180Y013702D01*
X031180Y013665D02*
X031180Y014235D01*
X031180Y013665D01*
X031180Y013861D02*
X031180Y013861D01*
X031180Y014019D02*
X031180Y014019D01*
X031180Y014178D02*
X031180Y014178D01*
X031180Y014235D02*
X031180Y014235D01*
X031680Y014235D02*
X031680Y012705D01*
X032180Y012205D01*
X033180Y012205D01*
X032180Y012205D02*
X032180Y011540D01*
X031853Y011483D02*
X030557Y011483D01*
X030557Y011558D02*
X030198Y011558D01*
X030198Y011936D01*
X030401Y011936D01*
X030446Y011924D01*
X030487Y011900D01*
X030521Y011867D01*
X030545Y011826D01*
X030557Y011780D01*
X030557Y011558D01*
X030557Y011642D02*
X031853Y011642D01*
X031853Y011800D02*
X030551Y011800D01*
X030198Y011800D02*
X030162Y011800D01*
X030162Y011642D02*
X030198Y011642D01*
X030557Y011325D02*
X031853Y011325D01*
X031878Y011166D02*
X030482Y011166D01*
X032470Y010532D02*
X033680Y010532D01*
X033680Y010374D02*
X032470Y010374D01*
X032470Y010215D02*
X033680Y010215D01*
X033680Y010057D02*
X032470Y010057D01*
X032470Y009898D02*
X033680Y009898D01*
X033680Y009740D02*
X032470Y009740D01*
X032470Y009581D02*
X033680Y009581D01*
X033680Y009423D02*
X032470Y009423D01*
X032507Y009264D02*
X033680Y009264D01*
X033680Y009106D02*
X032507Y009106D01*
X032507Y008947D02*
X033680Y008947D01*
X033680Y008789D02*
X032507Y008789D01*
X032507Y008630D02*
X033680Y008630D01*
X033680Y008472D02*
X032507Y008472D01*
X032180Y008370D02*
X031180Y008370D01*
X031180Y009705D01*
X031180Y008370D02*
X030180Y008370D01*
X030507Y008155D02*
X031853Y008155D01*
X033680Y007705D02*
X028680Y007705D01*
X027180Y007705D01*
X026613Y008272D01*
X026613Y008705D01*
X027019Y008630D02*
X027853Y008630D01*
X027853Y008472D02*
X027019Y008472D01*
X026869Y008313D02*
X027853Y008313D01*
X027853Y008155D02*
X027027Y008155D01*
X027186Y007996D02*
X028092Y007996D01*
X028180Y008205D02*
X028680Y007705D01*
X028180Y008205D02*
X028180Y008370D01*
X027853Y008789D02*
X027019Y008789D01*
X027019Y008947D02*
X027853Y008947D01*
X027853Y009264D02*
X026153Y009264D01*
X027080Y011008D02*
X019890Y011008D01*
X019890Y011166D02*
X026922Y011166D01*
X026763Y011325D02*
X019890Y011325D01*
X019890Y011483D02*
X026605Y011483D01*
X026470Y011642D02*
X019890Y011642D01*
X019890Y011800D02*
X026470Y011800D01*
X026470Y011959D02*
X019890Y011959D01*
X019890Y012117D02*
X026470Y012117D01*
X026470Y012276D02*
X019890Y012276D01*
X019890Y012434D02*
X021529Y012434D01*
X021831Y012434D02*
X026470Y012434D01*
X026470Y012593D02*
X025865Y012593D01*
X025680Y012705D02*
X026180Y013205D01*
X026180Y016705D01*
X026180Y017705D02*
X026180Y018370D01*
X026180Y019040D02*
X026180Y020870D01*
X025853Y020835D02*
X025019Y020835D01*
X025019Y020722D02*
X025019Y021082D01*
X024943Y021158D01*
X024284Y021158D01*
X024207Y021082D01*
X024207Y020580D01*
X024284Y020504D01*
X024643Y020504D01*
X024970Y020177D01*
X024970Y019931D01*
X024919Y019880D01*
X024872Y019766D01*
X024872Y019644D01*
X024919Y019530D01*
X025005Y019444D01*
X025119Y019397D01*
X025241Y019397D01*
X025355Y019444D01*
X025441Y019530D01*
X025488Y019644D01*
X025488Y019766D01*
X025441Y019880D01*
X025390Y019931D01*
X025390Y020351D01*
X025267Y020474D01*
X025019Y020722D01*
X025065Y020676D02*
X025853Y020676D01*
X025970Y020518D02*
X025224Y020518D01*
X025382Y020359D02*
X025970Y020359D01*
X025970Y020201D02*
X025390Y020201D01*
X025390Y020042D02*
X025970Y020042D01*
X025970Y019884D02*
X025437Y019884D01*
X025488Y019725D02*
X025970Y019725D01*
X025970Y019567D02*
X025456Y019567D01*
X025268Y019408D02*
X025970Y019408D01*
X026180Y019040D02*
X024180Y019040D01*
X024011Y019040D01*
X022180Y020870D01*
X021853Y020835D02*
X020513Y020835D01*
X020507Y020993D02*
X021853Y020993D01*
X021864Y021152D02*
X020496Y021152D01*
X020507Y021310D02*
X021853Y021310D01*
X021853Y021469D02*
X020507Y021469D01*
X020507Y021627D02*
X021853Y021627D01*
X021853Y021786D02*
X020507Y021786D01*
X020390Y021944D02*
X025890Y021944D01*
X025872Y022103D02*
X020390Y022103D01*
X020533Y022261D02*
X025714Y022261D01*
X027180Y022205D02*
X027680Y022705D01*
X029180Y022705D01*
X029180Y021540D02*
X028180Y021540D01*
X028180Y020870D02*
X027515Y020870D01*
X027180Y021205D01*
X027180Y022205D01*
X026180Y021540D02*
X026141Y021579D01*
X024613Y021579D01*
X024207Y021627D02*
X023055Y021627D01*
X023213Y021469D02*
X023354Y021469D01*
X023180Y021205D02*
X022845Y021540D01*
X022180Y021540D01*
X022507Y021310D02*
X022778Y021310D01*
X022936Y021152D02*
X022496Y021152D01*
X022507Y020993D02*
X023341Y020993D01*
X023470Y020835D02*
X022513Y020835D01*
X022671Y020676D02*
X023470Y020676D01*
X023470Y020518D02*
X022830Y020518D01*
X022988Y020359D02*
X023410Y020359D01*
X023372Y020201D02*
X023147Y020201D01*
X023305Y020042D02*
X023414Y020042D01*
X023464Y019884D02*
X024923Y019884D01*
X024970Y020042D02*
X023946Y020042D01*
X023988Y020201D02*
X024947Y020201D01*
X024788Y020359D02*
X023950Y020359D01*
X023890Y020518D02*
X024270Y020518D01*
X024207Y020676D02*
X023890Y020676D01*
X023890Y020835D02*
X024207Y020835D01*
X024207Y020993D02*
X024153Y020993D01*
X024153Y021152D02*
X024277Y021152D01*
X024226Y021310D02*
X024153Y021310D01*
X024140Y021469D02*
X024207Y021469D01*
X024207Y021786D02*
X022507Y021786D01*
X023180Y021205D02*
X023747Y021205D01*
X023680Y021205D01*
X023680Y020205D01*
X023622Y019725D02*
X024872Y019725D01*
X024904Y019567D02*
X023781Y019567D01*
X023939Y019408D02*
X025092Y019408D01*
X025180Y019705D02*
X025180Y020264D01*
X024613Y020831D01*
X025019Y020993D02*
X025853Y020993D01*
X025864Y021152D02*
X024949Y021152D01*
X025000Y021310D02*
X025853Y021310D01*
X023747Y021205D02*
X023680Y021138D01*
X023747Y021205D02*
X023680Y021272D01*
X022394Y020359D02*
X020988Y020359D01*
X020830Y020518D02*
X022236Y020518D01*
X021853Y020676D02*
X020671Y020676D01*
X020394Y020359D02*
X019936Y020359D01*
X019778Y020518D02*
X020236Y020518D01*
X020095Y020201D02*
X020553Y020201D01*
X020711Y020042D02*
X020253Y020042D01*
X020412Y019884D02*
X020870Y019884D01*
X020970Y019725D02*
X020470Y019725D01*
X020470Y019763D02*
X020426Y019869D01*
X019459Y020836D01*
X019441Y020880D01*
X019355Y020966D01*
X019241Y021013D01*
X019119Y021013D01*
X019005Y020966D01*
X018919Y020880D01*
X018872Y020766D01*
X018872Y020644D01*
X018919Y020530D01*
X019005Y020444D01*
X019049Y020426D01*
X019890Y019585D01*
X019890Y019347D01*
X019853Y019310D01*
X019853Y018769D01*
X019885Y018738D01*
X019873Y018731D01*
X019839Y018697D01*
X019815Y018656D01*
X019803Y018611D01*
X019803Y018389D01*
X020162Y018389D01*
X020162Y018352D01*
X020198Y018352D01*
X020198Y017974D01*
X020401Y017974D01*
X020446Y017986D01*
X020487Y018010D01*
X020521Y018043D01*
X020545Y018084D01*
X020557Y018130D01*
X020557Y018352D01*
X020198Y018352D01*
X020198Y018389D01*
X020557Y018389D01*
X020557Y018611D01*
X020545Y018656D01*
X020521Y018697D01*
X020487Y018731D01*
X020475Y018738D01*
X020507Y018769D01*
X020507Y019310D01*
X020470Y019347D01*
X020470Y019763D01*
X020470Y019567D02*
X020970Y019567D01*
X020970Y019408D02*
X020470Y019408D01*
X020507Y019250D02*
X020970Y019250D01*
X020970Y019091D02*
X020507Y019091D01*
X020507Y018933D02*
X020970Y018933D01*
X020970Y018774D02*
X020507Y018774D01*
X020556Y018616D02*
X020970Y018616D01*
X020970Y018457D02*
X020557Y018457D01*
X020557Y018299D02*
X020970Y018299D01*
X020970Y018140D02*
X020557Y018140D01*
X020542Y017982D02*
X020429Y017982D01*
X020395Y017823D02*
X018859Y017823D01*
X019017Y017665D02*
X020372Y017665D01*
X020443Y017506D02*
X019176Y017506D01*
X019334Y017348D02*
X020470Y017348D01*
X020470Y017189D02*
X019390Y017189D01*
X019390Y017031D02*
X020470Y017031D01*
X020470Y016872D02*
X019390Y016872D01*
X019390Y016714D02*
X019967Y016714D01*
X020180Y016714D02*
X020180Y016714D01*
X020180Y016555D02*
X020180Y016555D01*
X020180Y016397D02*
X020180Y016397D01*
X020180Y016238D02*
X020180Y016238D01*
X019680Y016175D02*
X019680Y015705D01*
X020180Y015205D01*
X025180Y015205D01*
X026390Y014653D02*
X026470Y014653D01*
X026470Y014495D02*
X026390Y014495D01*
X026390Y014336D02*
X026470Y014336D01*
X026470Y014178D02*
X026390Y014178D01*
X026390Y014019D02*
X026470Y014019D01*
X026470Y013861D02*
X026390Y013861D01*
X026390Y013702D02*
X026470Y013702D01*
X026470Y013544D02*
X026390Y013544D01*
X026390Y013385D02*
X026470Y013385D01*
X026470Y013227D02*
X026390Y013227D01*
X026340Y013068D02*
X026470Y013068D01*
X026470Y012910D02*
X026182Y012910D01*
X026023Y012751D02*
X026470Y012751D01*
X025680Y012705D02*
X024680Y012705D01*
X024180Y013205D01*
X024180Y013370D01*
X021515Y013370D01*
X021180Y013705D01*
X021180Y014235D01*
X021210Y014205D01*
X020940Y014178D02*
X020920Y014178D01*
X020920Y014336D02*
X020940Y014336D01*
X020940Y014495D02*
X020920Y014495D01*
X020920Y014653D02*
X020940Y014653D01*
X020680Y014235D02*
X020680Y013205D01*
X021180Y012705D01*
X021680Y012705D01*
X021967Y012593D02*
X024495Y012593D01*
X024337Y012751D02*
X021988Y012751D01*
X021911Y012910D02*
X024178Y012910D01*
X023885Y013068D02*
X021114Y013068D01*
X020955Y013227D02*
X021361Y013227D01*
X021203Y013385D02*
X020890Y013385D01*
X020890Y013544D02*
X021044Y013544D01*
X020970Y013702D02*
X020890Y013702D01*
X020920Y013861D02*
X020940Y013861D01*
X020940Y014019D02*
X020920Y014019D01*
X020470Y013702D02*
X020402Y013702D01*
X020470Y013544D02*
X019890Y013544D01*
X019890Y013702D02*
X019958Y013702D01*
X020180Y013702D02*
X020180Y013702D01*
X020180Y013665D02*
X020180Y014235D01*
X020180Y013665D01*
X020180Y013861D02*
X020180Y013861D01*
X020180Y014019D02*
X020180Y014019D01*
X020180Y014178D02*
X020180Y014178D01*
X020180Y014235D02*
X020180Y014235D01*
X021680Y014235D02*
X021875Y014040D01*
X024180Y014040D01*
X024845Y014040D01*
X025180Y013705D01*
X027180Y015205D02*
X027680Y015205D01*
X028650Y014235D01*
X028680Y014235D01*
X028180Y013735D01*
X028180Y011540D01*
X028444Y013702D02*
X030958Y013702D01*
X030440Y013861D02*
X030420Y013861D01*
X030420Y014019D02*
X030440Y014019D01*
X030180Y014235D02*
X030180Y014705D01*
X029935Y014653D02*
X029920Y014653D01*
X029920Y014495D02*
X029940Y014495D01*
X029940Y014336D02*
X029920Y014336D01*
X029920Y014178D02*
X029940Y014178D01*
X029940Y014019D02*
X029920Y014019D01*
X029920Y013861D02*
X029940Y013861D01*
X029680Y014235D02*
X028680Y014235D01*
X028761Y014019D02*
X029440Y014019D01*
X029440Y013861D02*
X028603Y013861D01*
X031680Y015705D02*
X032180Y015205D01*
X033680Y015205D01*
X034180Y015705D01*
X034180Y015870D01*
X032680Y016175D02*
X032680Y017205D01*
X033845Y018370D01*
X034180Y018370D01*
X034845Y018370D01*
X035515Y019040D01*
X036180Y019040D01*
X035428Y019250D02*
X034507Y019250D01*
X034507Y019091D02*
X035269Y019091D01*
X035111Y018933D02*
X034507Y018933D01*
X034507Y018774D02*
X034952Y018774D01*
X034794Y018616D02*
X034507Y018616D01*
X033853Y018616D02*
X032507Y018616D01*
X032507Y018774D02*
X033853Y018774D01*
X033853Y018933D02*
X032507Y018933D01*
X032507Y019091D02*
X033853Y019091D01*
X033853Y019250D02*
X032507Y019250D01*
X032470Y019408D02*
X033970Y019408D01*
X033970Y019567D02*
X032470Y019567D01*
X032488Y019725D02*
X033970Y019725D01*
X033970Y019884D02*
X032437Y019884D01*
X034180Y019040D02*
X034180Y020870D01*
X034180Y021540D02*
X034180Y022205D01*
X033680Y022705D01*
X032564Y022420D02*
X031805Y022420D01*
X031805Y022578D02*
X032399Y022578D01*
X032372Y022737D02*
X031805Y022737D01*
X031805Y022895D02*
X032434Y022895D01*
X031742Y023054D02*
X039500Y023054D01*
X039500Y023212D02*
X031583Y023212D01*
X031425Y023371D02*
X039500Y023371D01*
X039500Y023529D02*
X031266Y023529D01*
X031108Y023688D02*
X039500Y023688D01*
X039500Y023846D02*
X030949Y023846D01*
X026411Y023846D02*
X021336Y023846D01*
X021390Y023688D02*
X026252Y023688D01*
X026094Y023529D02*
X021390Y023529D01*
X021390Y023371D02*
X025935Y023371D01*
X025777Y023212D02*
X021390Y023212D01*
X021326Y023054D02*
X025618Y023054D01*
X029180Y021540D02*
X030180Y021540D01*
X028180Y020870D02*
X028180Y019040D01*
X028180Y018370D02*
X028180Y017675D01*
X029680Y016175D01*
X030180Y016175D01*
X030890Y016714D02*
X030967Y016714D01*
X031180Y016714D02*
X031180Y016714D01*
X031180Y016555D02*
X031180Y016555D01*
X031180Y016397D02*
X031180Y016397D01*
X031180Y016238D02*
X031180Y016238D01*
X031680Y016175D02*
X031680Y017870D01*
X032180Y018370D01*
X032507Y018299D02*
X033477Y018299D01*
X033635Y018457D02*
X032507Y018457D01*
X032507Y018140D02*
X033318Y018140D01*
X033160Y017982D02*
X032088Y017982D01*
X031930Y017823D02*
X033001Y017823D01*
X032843Y017665D02*
X031890Y017665D01*
X031890Y017506D02*
X032684Y017506D01*
X032526Y017348D02*
X031890Y017348D01*
X031890Y017189D02*
X032470Y017189D01*
X032470Y017031D02*
X031890Y017031D01*
X031890Y016872D02*
X032470Y016872D01*
X032470Y016714D02*
X031890Y016714D01*
X031920Y016555D02*
X031940Y016555D01*
X031940Y016397D02*
X031920Y016397D01*
X031920Y016238D02*
X031940Y016238D01*
X031940Y016080D02*
X031920Y016080D01*
X031920Y015921D02*
X031940Y015921D01*
X031940Y015763D02*
X031920Y015763D01*
X031680Y015705D02*
X031680Y016175D01*
X032180Y016175D02*
X032680Y016175D01*
X032680Y016205D01*
X032440Y016397D02*
X032420Y016397D01*
X032420Y016555D02*
X032440Y016555D01*
X031470Y016714D02*
X031393Y016714D01*
X031470Y016872D02*
X030810Y016872D01*
X030651Y017031D02*
X031470Y017031D01*
X031470Y017189D02*
X030493Y017189D01*
X030334Y017348D02*
X031470Y017348D01*
X031470Y017506D02*
X030176Y017506D01*
X030017Y017665D02*
X031470Y017665D01*
X030198Y017982D02*
X030162Y017982D01*
X030162Y018140D02*
X030198Y018140D01*
X030198Y018299D02*
X030162Y018299D01*
X034180Y016540D02*
X036180Y016540D01*
X036180Y018370D01*
X036180Y015870D02*
X036180Y014040D01*
X034180Y011705D02*
X034180Y011540D01*
X034507Y011325D02*
X034763Y011325D01*
X023515Y018370D02*
X021680Y016536D01*
X021680Y016175D01*
X021180Y016175D02*
X021180Y018205D01*
X021180Y018370D01*
X021180Y019870D01*
X020180Y020870D01*
X019853Y020835D02*
X019461Y020835D01*
X019619Y020676D02*
X019853Y020676D01*
X019853Y020993D02*
X019290Y020993D01*
X019070Y020993D02*
X018507Y020993D01*
X018507Y020835D02*
X018900Y020835D01*
X018872Y020676D02*
X018507Y020676D01*
X018390Y020518D02*
X018932Y020518D01*
X019116Y020359D02*
X018390Y020359D01*
X018390Y020201D02*
X019274Y020201D01*
X019433Y020042D02*
X018390Y020042D01*
X018390Y019884D02*
X019591Y019884D01*
X019750Y019725D02*
X018390Y019725D01*
X018390Y019567D02*
X019890Y019567D01*
X019890Y019408D02*
X018390Y019408D01*
X018390Y019250D02*
X019853Y019250D01*
X019853Y019091D02*
X018390Y019091D01*
X018390Y018933D02*
X019853Y018933D01*
X019853Y018774D02*
X018390Y018774D01*
X018390Y018616D02*
X019804Y018616D01*
X019803Y018457D02*
X018390Y018457D01*
X018390Y018299D02*
X019803Y018299D01*
X019803Y018352D02*
X019803Y018130D01*
X019815Y018084D01*
X019839Y018043D01*
X019873Y018010D01*
X019914Y017986D01*
X019959Y017974D01*
X020162Y017974D01*
X020162Y018352D01*
X019803Y018352D01*
X019803Y018140D02*
X018542Y018140D01*
X018700Y017982D02*
X019931Y017982D01*
X020162Y017982D02*
X020198Y017982D01*
X020198Y018140D02*
X020162Y018140D01*
X020162Y018299D02*
X020198Y018299D01*
X020818Y017982D02*
X020970Y017982D01*
X020965Y017823D02*
X020970Y017823D01*
X020680Y017705D02*
X020680Y016175D01*
X020470Y016714D02*
X020393Y016714D01*
X019440Y016555D02*
X019420Y016555D01*
X019420Y016397D02*
X019440Y016397D01*
X019440Y016238D02*
X019420Y016238D01*
X019420Y016080D02*
X019440Y016080D01*
X019440Y015921D02*
X019420Y015921D01*
X019420Y015763D02*
X019440Y015763D01*
X018940Y015763D02*
X018920Y015763D01*
X018920Y015921D02*
X018940Y015921D01*
X018940Y016080D02*
X018920Y016080D01*
X018920Y016238D02*
X018940Y016238D01*
X018940Y016397D02*
X018920Y016397D01*
X018920Y016555D02*
X018940Y016555D01*
X018970Y016714D02*
X018890Y016714D01*
X018810Y016872D02*
X018970Y016872D01*
X018970Y017031D02*
X018651Y017031D01*
X018493Y017189D02*
X018899Y017189D01*
X018740Y017348D02*
X018334Y017348D01*
X018176Y017506D02*
X018582Y017506D01*
X018423Y017665D02*
X018017Y017665D01*
X017859Y017823D02*
X018265Y017823D01*
X018106Y017982D02*
X017700Y017982D01*
X017542Y018140D02*
X017970Y018140D01*
X017970Y018299D02*
X017383Y018299D01*
X017225Y018457D02*
X017970Y018457D01*
X017970Y018616D02*
X017066Y018616D01*
X016908Y018774D02*
X017970Y018774D01*
X017970Y018933D02*
X016749Y018933D01*
X016591Y019091D02*
X017970Y019091D01*
X017970Y019250D02*
X016432Y019250D01*
X016390Y019408D02*
X017970Y019408D01*
X017970Y019567D02*
X016390Y019567D01*
X016390Y019725D02*
X017970Y019725D01*
X017970Y019884D02*
X016390Y019884D01*
X016390Y020042D02*
X016914Y020042D01*
X016872Y020201D02*
X016390Y020201D01*
X016390Y020359D02*
X016910Y020359D01*
X016970Y020518D02*
X016390Y020518D01*
X016760Y020676D02*
X016970Y020676D01*
X016970Y020835D02*
X016810Y020835D01*
X016810Y020993D02*
X016970Y020993D01*
X016970Y021152D02*
X016810Y021152D01*
X016810Y021310D02*
X016970Y021310D01*
X016970Y021469D02*
X016810Y021469D01*
X016810Y021627D02*
X016970Y021627D01*
X016970Y021786D02*
X016810Y021786D01*
X016970Y021944D02*
X014390Y021944D01*
X014390Y022103D02*
X016970Y022103D01*
X016970Y022261D02*
X014390Y022261D01*
X014390Y022420D02*
X017098Y022420D01*
X017256Y022578D02*
X016810Y022578D01*
X016810Y022737D02*
X017415Y022737D01*
X017573Y022895D02*
X016810Y022895D01*
X016810Y023054D02*
X017732Y023054D01*
X017853Y023212D02*
X016810Y023212D01*
X016810Y023371D02*
X017853Y023371D01*
X017853Y023529D02*
X016876Y023529D01*
X017035Y023688D02*
X017900Y023688D01*
X018180Y023370D02*
X018180Y023205D01*
X017180Y022205D01*
X017180Y020205D01*
X017488Y020201D02*
X017970Y020201D01*
X017970Y020359D02*
X017450Y020359D01*
X017390Y020518D02*
X017970Y020518D01*
X017853Y020676D02*
X017390Y020676D01*
X017390Y020835D02*
X017853Y020835D01*
X017853Y020993D02*
X017390Y020993D01*
X017390Y021152D02*
X017864Y021152D01*
X017853Y021310D02*
X017390Y021310D01*
X017390Y021469D02*
X017853Y021469D01*
X017853Y021627D02*
X017390Y021627D01*
X017390Y021786D02*
X017853Y021786D01*
X018122Y021944D02*
X017390Y021944D01*
X017390Y022103D02*
X018281Y022103D01*
X018439Y022261D02*
X017533Y022261D01*
X017692Y022420D02*
X018598Y022420D01*
X018756Y022578D02*
X017850Y022578D01*
X018009Y022737D02*
X018915Y022737D01*
X019073Y022895D02*
X018167Y022895D01*
X018460Y023054D02*
X019232Y023054D01*
X019390Y023212D02*
X018507Y023212D01*
X018507Y023371D02*
X019549Y023371D01*
X019826Y023054D02*
X020732Y023054D01*
X020890Y023212D02*
X019984Y023212D01*
X020143Y023371D02*
X020970Y023371D01*
X020970Y023529D02*
X020440Y023529D01*
X020488Y023688D02*
X020900Y023688D01*
X020742Y023846D02*
X020455Y023846D01*
X020583Y024005D02*
X020262Y024005D01*
X020098Y024005D02*
X019177Y024005D01*
X019019Y024163D02*
X020425Y024163D01*
X020266Y024322D02*
X018495Y024322D01*
X018180Y024040D02*
X018845Y024040D01*
X019180Y023705D01*
X020180Y023705D01*
X018180Y021705D01*
X018180Y021540D01*
X018507Y021469D02*
X019853Y021469D01*
X019853Y021627D02*
X018507Y021627D01*
X018558Y021786D02*
X019853Y021786D01*
X019970Y021944D02*
X018716Y021944D01*
X018875Y022103D02*
X019970Y022103D01*
X019970Y022261D02*
X019033Y022261D01*
X019192Y022420D02*
X020098Y022420D01*
X020256Y022578D02*
X019350Y022578D01*
X019509Y022737D02*
X020415Y022737D01*
X020573Y022895D02*
X019667Y022895D01*
X020180Y022205D02*
X021180Y023205D01*
X021180Y023705D01*
X019680Y025205D01*
X011680Y025205D01*
X011180Y024705D01*
X011391Y024480D02*
X020108Y024480D01*
X019949Y024639D02*
X011486Y024639D01*
X011569Y024797D02*
X019791Y024797D01*
X019632Y024956D02*
X011728Y024956D01*
X011451Y025273D02*
X004180Y025273D01*
X004180Y025431D02*
X039500Y025431D01*
X039500Y025273D02*
X019909Y025273D01*
X020068Y025114D02*
X039500Y025114D01*
X039500Y024956D02*
X020226Y024956D01*
X020385Y024797D02*
X039500Y024797D01*
X039500Y024639D02*
X020543Y024639D01*
X020702Y024480D02*
X039500Y024480D01*
X039500Y024322D02*
X020860Y024322D01*
X021019Y024163D02*
X039500Y024163D01*
X039500Y024005D02*
X021177Y024005D01*
X019059Y023529D02*
X018507Y023529D01*
X018460Y023688D02*
X018900Y023688D01*
X018180Y024040D02*
X017090Y024040D01*
X016180Y023130D01*
X015550Y023054D02*
X014460Y023054D01*
X014507Y023212D02*
X015550Y023212D01*
X015550Y023371D02*
X014507Y023371D01*
X014507Y023529D02*
X015550Y023529D01*
X015554Y023688D02*
X014460Y023688D01*
X014507Y023846D02*
X016599Y023846D01*
X016758Y024005D02*
X014507Y024005D01*
X014507Y024163D02*
X016916Y024163D01*
X017865Y024322D02*
X014495Y024322D01*
X014180Y024040D02*
X013515Y024040D01*
X012845Y023370D01*
X012180Y023370D01*
X011845Y023370D01*
X011180Y022705D01*
X011180Y022205D01*
X010515Y021540D01*
X010180Y021540D01*
X010507Y021330D02*
X010602Y021330D01*
X011390Y022118D01*
X011390Y022618D01*
X011863Y023091D01*
X011929Y023024D01*
X012431Y023024D01*
X012507Y023100D01*
X012507Y023160D01*
X012932Y023160D01*
X013602Y023830D01*
X013853Y023830D01*
X013853Y023769D01*
X013917Y023705D01*
X013853Y023641D01*
X013853Y023100D01*
X013929Y023024D01*
X013970Y023024D01*
X013970Y021886D01*
X013929Y021886D01*
X013853Y021810D01*
X013853Y021269D01*
X013917Y021205D01*
X013853Y021141D01*
X013853Y020600D01*
X013929Y020524D01*
X014230Y020524D01*
X014970Y019783D01*
X014970Y019292D01*
X014507Y018829D01*
X014507Y019310D01*
X014431Y019386D01*
X013929Y019386D01*
X013853Y019310D01*
X013853Y019250D01*
X012507Y019250D01*
X012507Y019310D01*
X012431Y019386D01*
X011929Y019386D01*
X011853Y019310D01*
X011853Y018769D01*
X011917Y018705D01*
X011853Y018641D01*
X011853Y018415D01*
X010906Y018415D01*
X010855Y018466D01*
X010741Y018513D01*
X010619Y018513D01*
X010505Y018466D01*
X010419Y018380D01*
X010372Y018266D01*
X010372Y018144D01*
X010419Y018030D01*
X010470Y017979D01*
X010470Y016649D01*
X010457Y016636D01*
X010434Y016676D01*
X010401Y016709D01*
X010359Y016733D01*
X010314Y016745D01*
X010180Y016745D01*
X010180Y016175D01*
X010180Y016175D01*
X010180Y016745D01*
X010046Y016745D01*
X010001Y016733D01*
X009959Y016709D01*
X009926Y016676D01*
X009903Y016636D01*
X009890Y016649D01*
X009890Y019118D01*
X010169Y019397D01*
X010241Y019397D01*
X010355Y019444D01*
X010441Y019530D01*
X010488Y019644D01*
X010488Y019766D01*
X010441Y019880D01*
X010355Y019966D01*
X010241Y020013D01*
X010119Y020013D01*
X010005Y019966D01*
X009919Y019880D01*
X009872Y019766D01*
X009872Y019694D01*
X009470Y019292D01*
X009470Y016649D01*
X009440Y016619D01*
X009440Y015731D01*
X009466Y015705D01*
X009394Y015705D01*
X009420Y015731D01*
X009420Y016619D01*
X009344Y016695D01*
X009016Y016695D01*
X008940Y016619D01*
X008940Y016385D01*
X008920Y016385D01*
X008920Y016619D01*
X008890Y016649D01*
X008890Y017783D01*
X009390Y018283D01*
X009390Y020118D01*
X009863Y020591D01*
X009929Y020524D01*
X010431Y020524D01*
X010507Y020600D01*
X010507Y020660D01*
X010932Y020660D01*
X011169Y020897D01*
X011241Y020897D01*
X011355Y020944D01*
X011441Y021030D01*
X011488Y021144D01*
X011488Y021266D01*
X011441Y021380D01*
X011355Y021466D01*
X011241Y021513D01*
X011119Y021513D01*
X011005Y021466D01*
X010919Y021380D01*
X010872Y021266D01*
X010872Y021194D01*
X010758Y021080D01*
X010507Y021080D01*
X010507Y021141D01*
X010443Y021205D01*
X010507Y021269D01*
X010507Y021330D01*
X010507Y021310D02*
X010890Y021310D01*
X010830Y021152D02*
X010496Y021152D01*
X010741Y021469D02*
X011011Y021469D01*
X010899Y021627D02*
X011853Y021627D01*
X011853Y021469D02*
X011349Y021469D01*
X011470Y021310D02*
X011853Y021310D01*
X011853Y021269D02*
X011885Y021238D01*
X011873Y021231D01*
X011839Y021197D01*
X011815Y021156D01*
X011803Y021111D01*
X011803Y020889D01*
X012162Y020889D01*
X012162Y020852D01*
X012198Y020852D01*
X012198Y020474D01*
X012401Y020474D01*
X012446Y020486D01*
X012487Y020510D01*
X012521Y020543D01*
X012545Y020584D01*
X012557Y020630D01*
X012557Y020852D01*
X012198Y020852D01*
X012198Y020889D01*
X012557Y020889D01*
X012557Y021111D01*
X012545Y021156D01*
X012521Y021197D01*
X012487Y021231D01*
X012475Y021238D01*
X012487Y021250D01*
X012572Y021250D01*
X012679Y021294D01*
X013311Y021926D01*
X013355Y021944D01*
X013970Y021944D01*
X013970Y022103D02*
X013471Y022103D01*
X013488Y022144D02*
X013488Y022266D01*
X013441Y022380D01*
X013355Y022466D01*
X013241Y022513D01*
X013119Y022513D01*
X013005Y022466D01*
X012919Y022380D01*
X012901Y022336D01*
X012441Y021876D01*
X012431Y021886D01*
X011929Y021886D01*
X011853Y021810D01*
X011853Y021269D01*
X011814Y021152D02*
X011488Y021152D01*
X011404Y020993D02*
X011803Y020993D01*
X011803Y020852D02*
X011803Y020630D01*
X011815Y020584D01*
X011839Y020543D01*
X011873Y020510D01*
X011914Y020486D01*
X011959Y020474D01*
X012162Y020474D01*
X012162Y020852D01*
X011803Y020852D01*
X011803Y020835D02*
X011107Y020835D01*
X010948Y020676D02*
X011803Y020676D01*
X011865Y020518D02*
X009790Y020518D01*
X009631Y020359D02*
X014394Y020359D01*
X014236Y020518D02*
X012495Y020518D01*
X012557Y020676D02*
X013853Y020676D01*
X013853Y020835D02*
X012557Y020835D01*
X012557Y020993D02*
X013853Y020993D01*
X013864Y021152D02*
X012546Y021152D01*
X012695Y021310D02*
X013853Y021310D01*
X013853Y021469D02*
X012854Y021469D01*
X013012Y021627D02*
X013853Y021627D01*
X013853Y021786D02*
X013171Y021786D01*
X013355Y021944D02*
X013441Y022030D01*
X013488Y022144D01*
X013488Y022261D02*
X013970Y022261D01*
X013970Y022420D02*
X013401Y022420D01*
X012959Y022420D02*
X011390Y022420D01*
X011390Y022578D02*
X013970Y022578D01*
X013970Y022737D02*
X011509Y022737D01*
X011667Y022895D02*
X013970Y022895D01*
X013900Y023054D02*
X012460Y023054D01*
X012180Y023370D02*
X012011Y023370D01*
X011900Y023054D02*
X011826Y023054D01*
X012460Y023688D02*
X012866Y023688D01*
X013024Y023846D02*
X012507Y023846D01*
X012507Y024005D02*
X013183Y024005D01*
X013341Y024163D02*
X012507Y024163D01*
X012495Y024322D02*
X013865Y024322D01*
X013900Y023688D02*
X013460Y023688D01*
X013301Y023529D02*
X013853Y023529D01*
X013853Y023371D02*
X013143Y023371D01*
X012984Y023212D02*
X013853Y023212D01*
X014180Y023370D02*
X014180Y021540D01*
X014507Y021469D02*
X015550Y021469D01*
X015550Y021627D02*
X014507Y021627D01*
X014507Y021786D02*
X015550Y021786D01*
X015550Y021310D02*
X014507Y021310D01*
X014496Y021152D02*
X015550Y021152D01*
X015550Y020993D02*
X014507Y020993D01*
X014513Y020835D02*
X015550Y020835D01*
X015600Y020676D02*
X014671Y020676D01*
X014830Y020518D02*
X015970Y020518D01*
X015970Y020359D02*
X015950Y020359D01*
X015410Y020359D02*
X014988Y020359D01*
X015147Y020201D02*
X015372Y020201D01*
X015390Y020042D02*
X015305Y020042D01*
X015390Y019884D02*
X015390Y019884D01*
X015390Y019725D02*
X015390Y019725D01*
X015390Y019567D02*
X015390Y019567D01*
X015390Y019408D02*
X015390Y019408D01*
X015390Y019250D02*
X015390Y019250D01*
X015390Y019091D02*
X015363Y019091D01*
X015390Y018933D02*
X015205Y018933D01*
X015046Y018774D02*
X015390Y018774D01*
X015390Y018616D02*
X014888Y018616D01*
X014729Y018457D02*
X015390Y018457D01*
X015390Y018299D02*
X014571Y018299D01*
X014507Y018140D02*
X015390Y018140D01*
X015390Y017982D02*
X014390Y017982D01*
X014390Y017823D02*
X015390Y017823D01*
X015390Y017665D02*
X014390Y017665D01*
X014390Y017506D02*
X015390Y017506D01*
X015390Y017348D02*
X014390Y017348D01*
X014390Y017189D02*
X015390Y017189D01*
X015390Y017031D02*
X014390Y017031D01*
X014390Y016872D02*
X015390Y016872D01*
X015390Y016714D02*
X014390Y016714D01*
X014327Y016555D02*
X015390Y016555D01*
X015390Y016397D02*
X014169Y016397D01*
X014010Y016238D02*
X015390Y016238D01*
X015390Y016080D02*
X013852Y016080D01*
X013650Y016175D02*
X014180Y016705D01*
X014180Y018370D01*
X014345Y018370D01*
X015180Y019205D01*
X015180Y019870D01*
X014180Y020870D01*
X014553Y020201D02*
X009473Y020201D01*
X009390Y020042D02*
X014711Y020042D01*
X014870Y019884D02*
X010437Y019884D01*
X010488Y019725D02*
X014970Y019725D01*
X014970Y019567D02*
X010456Y019567D01*
X010268Y019408D02*
X014970Y019408D01*
X014928Y019250D02*
X014507Y019250D01*
X014507Y019091D02*
X014769Y019091D01*
X014611Y018933D02*
X014507Y018933D01*
X014180Y019040D02*
X013180Y019040D01*
X013180Y016705D01*
X013650Y016175D02*
X011710Y016175D01*
X011710Y016205D01*
X011680Y016175D01*
X011180Y016175D01*
X010680Y016175D02*
X010680Y018205D01*
X012015Y018205D01*
X012180Y018370D01*
X011853Y018457D02*
X010864Y018457D01*
X010496Y018457D02*
X009890Y018457D01*
X009890Y018299D02*
X010385Y018299D01*
X010373Y018140D02*
X009890Y018140D01*
X009890Y017982D02*
X010468Y017982D01*
X010470Y017823D02*
X009890Y017823D01*
X009890Y017665D02*
X010470Y017665D01*
X010470Y017506D02*
X009890Y017506D01*
X009890Y017348D02*
X010470Y017348D01*
X010470Y017189D02*
X009890Y017189D01*
X009890Y017031D02*
X010470Y017031D01*
X010470Y016872D02*
X009890Y016872D01*
X009890Y016714D02*
X009967Y016714D01*
X010180Y016714D02*
X010180Y016714D01*
X010180Y016555D02*
X010180Y016555D01*
X010180Y016397D02*
X010180Y016397D01*
X010180Y016238D02*
X010180Y016238D01*
X009680Y016175D02*
X009680Y019205D01*
X010180Y019705D01*
X009872Y019725D02*
X009390Y019725D01*
X009390Y019567D02*
X009745Y019567D01*
X009586Y019408D02*
X009390Y019408D01*
X009390Y019250D02*
X009470Y019250D01*
X009470Y019091D02*
X009390Y019091D01*
X009390Y018933D02*
X009470Y018933D01*
X009470Y018774D02*
X009390Y018774D01*
X009390Y018616D02*
X009470Y018616D01*
X009470Y018457D02*
X009390Y018457D01*
X009390Y018299D02*
X009470Y018299D01*
X009470Y018140D02*
X009247Y018140D01*
X009088Y017982D02*
X009470Y017982D01*
X009470Y017823D02*
X008930Y017823D01*
X008890Y017665D02*
X009470Y017665D01*
X009470Y017506D02*
X008890Y017506D01*
X008890Y017348D02*
X009470Y017348D01*
X009470Y017189D02*
X008890Y017189D01*
X008890Y017031D02*
X009470Y017031D01*
X009470Y016872D02*
X008890Y016872D01*
X008890Y016714D02*
X009470Y016714D01*
X009440Y016555D02*
X009420Y016555D01*
X009420Y016397D02*
X009440Y016397D01*
X009440Y016238D02*
X009420Y016238D01*
X009420Y016080D02*
X009440Y016080D01*
X009440Y015921D02*
X009420Y015921D01*
X009420Y015763D02*
X009440Y015763D01*
X009180Y016175D02*
X008680Y016175D01*
X008680Y017870D01*
X009180Y018370D01*
X009180Y020205D01*
X008180Y019205D01*
X008180Y019040D01*
X008180Y018370D02*
X007680Y017870D01*
X007680Y017205D01*
X007247Y017205D01*
X006180Y018272D01*
X006554Y019138D02*
X007180Y018512D01*
X007180Y018205D01*
X008082Y018272D02*
X008180Y018370D01*
X009890Y018616D02*
X011853Y018616D01*
X011853Y018774D02*
X009890Y018774D01*
X009890Y018933D02*
X011853Y018933D01*
X011853Y019091D02*
X009890Y019091D01*
X010022Y019250D02*
X011853Y019250D01*
X012180Y019040D02*
X013180Y019040D01*
X012198Y020518D02*
X012162Y020518D01*
X012162Y020676D02*
X012198Y020676D01*
X012180Y020705D02*
X012180Y020870D01*
X012162Y020835D02*
X012198Y020835D01*
X011180Y021205D02*
X010845Y020870D01*
X010180Y020870D01*
X009845Y020870D01*
X009180Y020205D01*
X009390Y019884D02*
X009923Y019884D01*
X008180Y021540D02*
X008180Y021705D01*
X007680Y022205D01*
X006180Y022205D01*
X005180Y021205D01*
X005180Y016205D01*
X008920Y016397D02*
X008940Y016397D01*
X008940Y016555D02*
X008920Y016555D01*
X010393Y016714D02*
X010470Y016714D01*
X011920Y015921D02*
X015390Y015921D01*
X015390Y015763D02*
X011920Y015763D01*
X011180Y015205D02*
X010680Y014705D01*
X010680Y014235D01*
X010920Y014178D02*
X010940Y014178D01*
X010940Y014336D02*
X010920Y014336D01*
X010920Y014495D02*
X010940Y014495D01*
X010925Y014653D02*
X010940Y014653D01*
X010920Y014019D02*
X010940Y014019D01*
X010940Y013861D02*
X010920Y013861D01*
X009958Y013702D02*
X009890Y013702D01*
X008180Y011540D02*
X006180Y011540D01*
X006507Y011325D02*
X007853Y011325D01*
X007878Y011166D02*
X006482Y011166D01*
X006507Y011008D02*
X007853Y011008D01*
X010979Y008789D02*
X011853Y008789D01*
X011853Y008630D02*
X010970Y008630D01*
X011019Y008472D02*
X011853Y008472D01*
X011853Y008313D02*
X011019Y008313D01*
X011019Y008155D02*
X011853Y008155D01*
X010613Y008331D02*
X010613Y007772D01*
X010680Y007705D01*
X019890Y012593D02*
X020995Y012593D01*
X020837Y012751D02*
X019890Y012751D01*
X019890Y012910D02*
X020678Y012910D01*
X020520Y013068D02*
X019890Y013068D01*
X019890Y013227D02*
X020470Y013227D01*
X020470Y013385D02*
X019890Y013385D01*
X019180Y016175D02*
X019180Y017205D01*
X018180Y018205D01*
X018180Y020870D01*
X018496Y021152D02*
X019864Y021152D01*
X019853Y021310D02*
X018507Y021310D01*
X020180Y021540D02*
X020180Y022205D01*
X020692Y022420D02*
X021564Y022420D01*
X021399Y022578D02*
X020850Y022578D01*
X021009Y022737D02*
X021372Y022737D01*
X021434Y022895D02*
X021167Y022895D01*
X016180Y021280D02*
X016180Y019205D01*
X018680Y016705D01*
X018680Y016175D01*
X021180Y018370D02*
X022180Y018370D01*
X021853Y018616D02*
X021390Y018616D01*
X021390Y018774D02*
X021853Y018774D01*
X021853Y018933D02*
X021390Y018933D01*
X021390Y019091D02*
X021853Y019091D01*
X021853Y019250D02*
X021390Y019250D01*
X021390Y019408D02*
X023345Y019408D01*
X023187Y019567D02*
X021390Y019567D01*
X021390Y019725D02*
X023028Y019725D01*
X022870Y019884D02*
X021390Y019884D01*
X021305Y020042D02*
X022711Y020042D01*
X022553Y020201D02*
X021147Y020201D01*
X022180Y019040D02*
X022845Y019040D01*
X023515Y018370D01*
X024180Y018370D01*
X023853Y018616D02*
X023566Y018616D01*
X023408Y018774D02*
X023853Y018774D01*
X023821Y018933D02*
X023249Y018933D01*
X023091Y019091D02*
X023662Y019091D01*
X023504Y019250D02*
X022932Y019250D01*
X017970Y020042D02*
X017446Y020042D01*
X015550Y022578D02*
X014390Y022578D01*
X014390Y022737D02*
X015550Y022737D01*
X015550Y022895D02*
X014390Y022895D01*
X012826Y022261D02*
X011390Y022261D01*
X011375Y022103D02*
X012667Y022103D01*
X012509Y021944D02*
X011216Y021944D01*
X011058Y021786D02*
X011853Y021786D01*
X010180Y022705D02*
X010180Y023370D01*
X010845Y023370D01*
X011515Y024040D01*
X012180Y024040D01*
X011865Y024322D02*
X010495Y024322D01*
X010507Y024163D02*
X011341Y024163D01*
X011183Y024005D02*
X010507Y024005D01*
X010507Y023846D02*
X011024Y023846D01*
X010866Y023688D02*
X010460Y023688D01*
X009437Y024322D02*
X008923Y024322D01*
X009132Y024163D02*
X009228Y024163D01*
X009890Y024480D02*
X004180Y024480D01*
X004180Y024322D02*
X005865Y024322D01*
X005853Y024163D02*
X004180Y024163D01*
X004180Y024005D02*
X005853Y024005D01*
X005853Y023846D02*
X004180Y023846D01*
X004180Y023688D02*
X005900Y023688D01*
X006180Y023370D02*
X004845Y023370D01*
X004180Y022705D01*
X003680Y022737D02*
X000860Y022737D01*
X000860Y022895D02*
X003680Y022895D01*
X003680Y023054D02*
X000860Y023054D01*
X000860Y023212D02*
X003680Y023212D01*
X003680Y023371D02*
X000860Y023371D01*
X000860Y023529D02*
X003680Y023529D01*
X003680Y023688D02*
X000860Y023688D01*
X000860Y023846D02*
X003680Y023846D01*
X003680Y024005D02*
X000860Y024005D01*
X000860Y024163D02*
X003680Y024163D01*
X003680Y024322D02*
X000860Y024322D01*
X000860Y024480D02*
X003680Y024480D01*
X003680Y024639D02*
X000860Y024639D01*
X000860Y024797D02*
X003680Y024797D01*
X003680Y024956D02*
X000860Y024956D01*
X000860Y025114D02*
X003680Y025114D01*
X003680Y025273D02*
X000860Y025273D01*
X000860Y025431D02*
X003680Y025431D01*
X003680Y025590D02*
X000860Y025590D01*
X000860Y025748D02*
X003680Y025748D01*
X003680Y025907D02*
X000860Y025907D01*
X000860Y026065D02*
X003680Y026065D01*
X003680Y026224D02*
X000860Y026224D01*
X000860Y026382D02*
X003680Y026382D01*
X004180Y026382D02*
X039500Y026382D01*
X039500Y026224D02*
X004180Y026224D01*
X004180Y026065D02*
X039500Y026065D01*
X039500Y025907D02*
X004180Y025907D01*
X004180Y025748D02*
X039500Y025748D01*
X039500Y025590D02*
X004180Y025590D01*
X004180Y025114D02*
X011292Y025114D01*
X010995Y024956D02*
X010365Y024956D01*
X010475Y024797D02*
X010885Y024797D01*
X010874Y024639D02*
X010486Y024639D01*
X010470Y024480D02*
X010969Y024480D01*
X009995Y024956D02*
X004180Y024956D01*
X004180Y024797D02*
X009885Y024797D01*
X009874Y024639D02*
X004180Y024639D01*
X004180Y023529D02*
X004707Y023529D01*
X004549Y023371D02*
X004180Y023371D01*
X004180Y023212D02*
X004390Y023212D01*
X004232Y023054D02*
X004180Y023054D01*
X003680Y022578D02*
X000860Y022578D01*
X000860Y022420D02*
X003598Y022420D01*
X008180Y022705D02*
X008180Y023370D01*
X006613Y019138D02*
X006554Y019138D01*
D20*
X007180Y018205D03*
X007680Y017205D03*
X010680Y018205D03*
X011180Y019205D03*
X010180Y019705D03*
X011180Y021205D03*
X013180Y022205D03*
X010180Y022705D03*
X008180Y022705D03*
X010180Y024705D03*
X011180Y024705D03*
X019180Y020705D03*
X017180Y020205D03*
X015680Y020205D03*
X018680Y019205D03*
X020680Y017705D03*
X025180Y019705D03*
X023680Y020205D03*
X021680Y022705D03*
X020180Y023705D03*
X025680Y022705D03*
X029180Y022705D03*
X031515Y020870D03*
X032180Y019705D03*
X031180Y018205D03*
X026180Y017705D03*
X026180Y016705D03*
X025180Y015205D03*
X027180Y015205D03*
X025180Y013705D03*
X021680Y012705D03*
X018680Y013205D03*
X015180Y014705D03*
X013180Y016705D03*
X011180Y011705D03*
X013180Y010205D03*
X010180Y009705D03*
X010680Y007705D03*
X012680Y007205D03*
X012680Y006205D03*
X011680Y006205D03*
X017680Y006705D03*
X018180Y009205D03*
X017180Y009705D03*
X018680Y010205D03*
X020680Y010205D03*
X022554Y008331D03*
X025180Y009705D03*
X025680Y011705D03*
X029180Y011705D03*
X029180Y009705D03*
X031180Y009705D03*
X033180Y012205D03*
X037180Y012205D03*
X032180Y006705D03*
X028680Y006705D03*
X032680Y022705D03*
D21*
X031515Y022870D02*
X030680Y023705D01*
X026680Y023705D01*
X025680Y022705D01*
X026180Y022205D01*
X026180Y021540D01*
X025680Y022705D02*
X021680Y022705D01*
X019180Y020705D02*
X020180Y019705D01*
X020180Y019040D01*
X020180Y018370D02*
X019515Y018370D01*
X018680Y019205D01*
X020180Y018370D02*
X020180Y016175D01*
X020180Y014235D02*
X020180Y012205D01*
X020680Y011705D01*
X025180Y011705D01*
X025180Y009705D01*
X025747Y008331D02*
X022554Y008331D01*
X020219Y008331D01*
X020209Y008332D01*
X020200Y008336D01*
X020191Y008342D01*
X020185Y008351D01*
X020181Y008360D01*
X020180Y008370D01*
X020180Y009040D02*
X020180Y012205D01*
X025180Y011705D02*
X025680Y011705D01*
X029180Y011705D02*
X029345Y011540D01*
X030180Y011540D01*
X030180Y012205D01*
X031180Y013205D01*
X031180Y014235D01*
X031180Y016175D02*
X031180Y018205D01*
X031015Y018370D01*
X030180Y018370D01*
X030180Y019040D02*
X030180Y020870D01*
X031515Y020870D01*
X031515Y022870D01*
X032180Y019705D02*
X032180Y019040D01*
X032180Y010870D02*
X030180Y010870D01*
X030180Y009705D01*
X029180Y009705D01*
X030180Y009705D02*
X030180Y009040D01*
X032180Y009040D02*
X032180Y010870D01*
X034180Y010870D01*
X034180Y009040D01*
X032180Y006705D02*
X031180Y006705D01*
X030180Y005705D01*
X030180Y004593D01*
X029074Y003486D01*
X029074Y003099D01*
X028680Y002705D01*
X025180Y002705D01*
X024786Y003099D01*
X024786Y002811D01*
X023680Y001705D01*
X020180Y001705D01*
X018680Y003205D01*
X014680Y003205D02*
X014680Y005205D01*
X012680Y007205D01*
X012680Y006205D02*
X010680Y004205D01*
X010680Y003205D01*
X010613Y009079D02*
X012141Y009079D01*
X012180Y009040D02*
X012180Y010205D01*
X013180Y010205D01*
X012180Y010205D02*
X012180Y010870D01*
X010180Y010870D01*
X010180Y009705D01*
X010180Y011540D02*
X010180Y012705D01*
X011180Y011705D01*
X010180Y012705D02*
X010180Y014235D01*
X010180Y016175D02*
X010180Y018870D01*
X011180Y019870D01*
X012180Y020870D01*
X012180Y021540D02*
X012515Y021540D01*
X013180Y022205D01*
X010180Y024040D02*
X010180Y024705D01*
X010180Y024040D02*
X009515Y024040D01*
X009180Y023705D01*
X009180Y021205D01*
X008845Y020870D01*
X008180Y020870D01*
X006845Y020870D01*
X005806Y019831D01*
X005806Y019138D01*
X011180Y019205D02*
X011180Y019870D01*
X015680Y020205D02*
X015680Y015205D01*
X015180Y014705D01*
X025747Y008331D02*
X025747Y006638D01*
X026680Y005705D01*
X026680Y003486D01*
X028286Y003486D01*
X026680Y003486D02*
X025574Y003486D01*
X024786Y003486D02*
X024786Y003099D01*
X009180Y023705D02*
X008845Y024040D01*
X008180Y024040D01*
X006180Y024040D01*
M02*
