G75*
%MOIN*%
%OFA0B0*%
%FSLAX24Y24*%
%IPPOS*%
%LPD*%
%AMOC8*
5,1,8,0,0,1.08239X$1,22.5*
%
%ADD10C,0.0000*%
%ADD11C,0.1500*%
%ADD12C,0.0356*%
%ADD13C,0.0160*%
%ADD14C,0.0320*%
D10*
X000680Y000705D02*
X039680Y000705D01*
X039680Y026705D01*
X000680Y026705D01*
X000680Y026701D02*
X000680Y000705D01*
D11*
X002680Y003205D03*
X006680Y003205D03*
X010680Y003205D03*
X014680Y003205D03*
X018680Y003205D03*
D12*
X012680Y006205D03*
X011680Y006205D03*
X012680Y007205D03*
X010680Y007705D03*
X010180Y009705D03*
X013180Y010205D03*
X011180Y011705D03*
X015180Y014705D03*
X018680Y013205D03*
X021680Y012705D03*
X025180Y013705D03*
X025180Y015205D03*
X027180Y015205D03*
X026180Y016705D03*
X026180Y017705D03*
X025180Y019705D03*
X023680Y020205D03*
X019180Y020705D03*
X017180Y020205D03*
X015680Y020205D03*
X018680Y019205D03*
X020680Y017705D03*
X013180Y016705D03*
X010680Y018205D03*
X011180Y019205D03*
X010180Y019705D03*
X007180Y018205D03*
X007680Y017205D03*
X011180Y021205D03*
X013180Y022205D03*
X010180Y022705D03*
X008180Y022705D03*
X010180Y024705D03*
X011180Y024705D03*
X020180Y023705D03*
X021680Y022705D03*
X025680Y022705D03*
X029180Y022705D03*
X031515Y020870D03*
X032180Y019705D03*
X031180Y018205D03*
X032680Y022705D03*
X033180Y012205D03*
X037180Y012205D03*
X031180Y009705D03*
X029180Y009705D03*
X029180Y011705D03*
X025680Y011705D03*
X025180Y009705D03*
X022554Y008331D03*
X020680Y010205D03*
X018680Y010205D03*
X017180Y009705D03*
X018180Y009205D03*
X017680Y006705D03*
X028680Y006705D03*
X032180Y006705D03*
D13*
X032470Y006810D02*
X032470Y017263D01*
X032426Y017369D01*
X031459Y018336D01*
X031441Y018380D01*
X031355Y018466D01*
X031241Y018513D01*
X031119Y018513D01*
X031005Y018466D01*
X030919Y018380D01*
X030872Y018266D01*
X030872Y018144D01*
X030919Y018030D01*
X031005Y017944D01*
X031049Y017926D01*
X031890Y017085D01*
X031890Y006810D01*
X031872Y006766D01*
X031872Y006644D01*
X031919Y006530D01*
X032005Y006444D01*
X032119Y006397D01*
X032241Y006397D01*
X032355Y006444D01*
X032441Y006530D01*
X032488Y006644D01*
X032488Y006766D01*
X032470Y006810D01*
X032470Y006887D02*
X039500Y006887D01*
X039500Y007045D02*
X032470Y007045D01*
X032470Y007204D02*
X039500Y007204D01*
X039500Y007362D02*
X032470Y007362D01*
X032470Y007521D02*
X039500Y007521D01*
X039500Y007679D02*
X032470Y007679D01*
X032470Y007838D02*
X039500Y007838D01*
X039500Y007996D02*
X032470Y007996D01*
X032470Y008155D02*
X039500Y008155D01*
X039500Y008313D02*
X032470Y008313D01*
X032470Y008472D02*
X039500Y008472D01*
X039500Y008630D02*
X032470Y008630D01*
X032470Y008789D02*
X039500Y008789D01*
X039500Y008947D02*
X032470Y008947D01*
X032470Y009106D02*
X039500Y009106D01*
X039500Y009264D02*
X032470Y009264D01*
X032470Y009423D02*
X039500Y009423D01*
X039500Y009581D02*
X032470Y009581D01*
X032470Y009740D02*
X039500Y009740D01*
X039500Y009898D02*
X032470Y009898D01*
X032470Y010057D02*
X039500Y010057D01*
X039500Y010215D02*
X032470Y010215D01*
X032470Y010374D02*
X039500Y010374D01*
X039500Y010532D02*
X032470Y010532D01*
X032470Y010691D02*
X039500Y010691D01*
X039500Y010849D02*
X032470Y010849D01*
X032470Y011008D02*
X039500Y011008D01*
X039500Y011166D02*
X032470Y011166D01*
X032470Y011325D02*
X039500Y011325D01*
X039500Y011483D02*
X032470Y011483D01*
X032470Y011642D02*
X039500Y011642D01*
X039500Y011800D02*
X032470Y011800D01*
X032470Y011959D02*
X032991Y011959D01*
X033005Y011944D02*
X033119Y011897D01*
X033241Y011897D01*
X033355Y011944D01*
X033406Y011995D01*
X036954Y011995D01*
X037005Y011944D01*
X037119Y011897D01*
X037241Y011897D01*
X037355Y011944D01*
X037441Y012030D01*
X037488Y012144D01*
X037488Y012266D01*
X037441Y012380D01*
X037355Y012466D01*
X037241Y012513D01*
X037119Y012513D01*
X037005Y012466D01*
X036954Y012415D01*
X033406Y012415D01*
X033355Y012466D01*
X033241Y012513D01*
X033119Y012513D01*
X033005Y012466D01*
X032919Y012380D01*
X032872Y012266D01*
X032872Y012144D01*
X032919Y012030D01*
X033005Y011944D01*
X032883Y012117D02*
X032470Y012117D01*
X032470Y012276D02*
X032876Y012276D01*
X032973Y012434D02*
X032470Y012434D01*
X032470Y012593D02*
X039500Y012593D01*
X039500Y012751D02*
X032470Y012751D01*
X032470Y012910D02*
X039500Y012910D01*
X039500Y013068D02*
X032470Y013068D01*
X032470Y013227D02*
X039500Y013227D01*
X039500Y013385D02*
X032470Y013385D01*
X032470Y013544D02*
X039500Y013544D01*
X039500Y013702D02*
X032470Y013702D01*
X032470Y013861D02*
X039500Y013861D01*
X039500Y014019D02*
X032470Y014019D01*
X032470Y014178D02*
X039500Y014178D01*
X039500Y014336D02*
X032470Y014336D01*
X032470Y014495D02*
X039500Y014495D01*
X039500Y014653D02*
X032470Y014653D01*
X032470Y014812D02*
X039500Y014812D01*
X039500Y014970D02*
X032470Y014970D01*
X032470Y015129D02*
X039500Y015129D01*
X039500Y015287D02*
X032470Y015287D01*
X032470Y015446D02*
X039500Y015446D01*
X039500Y015604D02*
X032470Y015604D01*
X032470Y015763D02*
X039500Y015763D01*
X039500Y015921D02*
X032470Y015921D01*
X032470Y016080D02*
X039500Y016080D01*
X039500Y016238D02*
X032470Y016238D01*
X032470Y016397D02*
X039500Y016397D01*
X039500Y016555D02*
X032470Y016555D01*
X032470Y016714D02*
X039500Y016714D01*
X039500Y016872D02*
X032470Y016872D01*
X032470Y017031D02*
X039500Y017031D01*
X039500Y017189D02*
X032470Y017189D01*
X032435Y017348D02*
X039500Y017348D01*
X039500Y017506D02*
X032289Y017506D01*
X032131Y017665D02*
X039500Y017665D01*
X039500Y017823D02*
X031972Y017823D01*
X031814Y017982D02*
X039500Y017982D01*
X039500Y018140D02*
X031655Y018140D01*
X031497Y018299D02*
X039500Y018299D01*
X039500Y018457D02*
X031364Y018457D01*
X030996Y018457D02*
X028725Y018457D01*
X028883Y018299D02*
X030885Y018299D01*
X030873Y018140D02*
X029042Y018140D01*
X029200Y017982D02*
X030968Y017982D01*
X031152Y017823D02*
X029359Y017823D01*
X029517Y017665D02*
X031310Y017665D01*
X031469Y017506D02*
X029676Y017506D01*
X029834Y017348D02*
X031627Y017348D01*
X031786Y017189D02*
X029993Y017189D01*
X030151Y017031D02*
X031890Y017031D01*
X031890Y016872D02*
X030310Y016872D01*
X030468Y016714D02*
X031890Y016714D01*
X031890Y016555D02*
X030627Y016555D01*
X030785Y016397D02*
X031890Y016397D01*
X031890Y016238D02*
X030944Y016238D01*
X031102Y016080D02*
X031890Y016080D01*
X031890Y015921D02*
X031261Y015921D01*
X031267Y015915D02*
X023267Y023915D01*
X020406Y023915D01*
X020355Y023966D01*
X020241Y024013D01*
X020119Y024013D01*
X020005Y023966D01*
X019919Y023880D01*
X019872Y023766D01*
X019872Y023644D01*
X019919Y023530D01*
X020005Y023444D01*
X020075Y023415D01*
X019267Y023415D01*
X016767Y025915D01*
X005093Y025915D01*
X004970Y025792D01*
X002593Y023415D01*
X002470Y023292D01*
X002470Y006618D01*
X002593Y006495D01*
X002593Y006495D01*
X005800Y003288D01*
X005800Y003030D01*
X005934Y002707D01*
X006182Y002459D01*
X006505Y002325D01*
X006855Y002325D01*
X007178Y002459D01*
X007426Y002707D01*
X007560Y003030D01*
X007560Y003380D01*
X007426Y003703D01*
X007178Y003951D01*
X006855Y004085D01*
X006505Y004085D01*
X006182Y003951D01*
X005956Y003726D01*
X002890Y006792D01*
X002890Y023118D01*
X005267Y025495D01*
X016593Y025495D01*
X018970Y023118D01*
X019093Y022995D01*
X022593Y022995D01*
X023970Y021618D01*
X023970Y020310D01*
X023941Y020380D01*
X023855Y020466D01*
X023741Y020513D01*
X023619Y020513D01*
X023505Y020466D01*
X023419Y020380D01*
X023372Y020266D01*
X023372Y020144D01*
X023419Y020030D01*
X023470Y019979D01*
X023470Y014792D01*
X021691Y013013D01*
X021619Y013013D01*
X021505Y012966D01*
X021419Y012880D01*
X021372Y012766D01*
X021372Y012644D01*
X021419Y012530D01*
X021505Y012444D01*
X021619Y012397D01*
X021741Y012397D01*
X021855Y012444D01*
X021941Y012530D01*
X021988Y012644D01*
X021988Y012716D01*
X023767Y014495D01*
X023890Y014618D01*
X023890Y019979D01*
X023941Y020030D01*
X023970Y020100D01*
X023970Y016118D01*
X024872Y015216D01*
X024872Y015144D01*
X024919Y015030D01*
X025005Y014944D01*
X025119Y014897D01*
X025241Y014897D01*
X025355Y014944D01*
X025406Y014995D01*
X026954Y014995D01*
X027005Y014944D01*
X027119Y014897D01*
X027241Y014897D01*
X027355Y014944D01*
X027441Y015030D01*
X027488Y015144D01*
X027488Y015266D01*
X027441Y015380D01*
X027355Y015466D01*
X027241Y015513D01*
X027119Y015513D01*
X027005Y015466D01*
X026954Y015415D01*
X025406Y015415D01*
X025355Y015466D01*
X025241Y015513D01*
X025169Y015513D01*
X024390Y016292D01*
X024390Y021792D01*
X024267Y021915D01*
X024267Y021915D01*
X022890Y023292D01*
X022767Y023415D01*
X020285Y023415D01*
X020355Y023444D01*
X020406Y023495D01*
X023093Y023495D01*
X030970Y015618D01*
X030970Y009931D01*
X030919Y009880D01*
X030872Y009766D01*
X030872Y009644D01*
X030919Y009530D01*
X031005Y009444D01*
X031119Y009397D01*
X031241Y009397D01*
X031355Y009444D01*
X031441Y009530D01*
X031488Y009644D01*
X031488Y009766D01*
X031441Y009880D01*
X031390Y009931D01*
X031390Y015792D01*
X031267Y015915D01*
X031390Y015763D02*
X031890Y015763D01*
X031890Y015604D02*
X031390Y015604D01*
X031390Y015446D02*
X031890Y015446D01*
X031890Y015287D02*
X031390Y015287D01*
X031390Y015129D02*
X031890Y015129D01*
X031890Y014970D02*
X031390Y014970D01*
X031390Y014812D02*
X031890Y014812D01*
X031890Y014653D02*
X031390Y014653D01*
X031390Y014495D02*
X031890Y014495D01*
X031890Y014336D02*
X031390Y014336D01*
X031390Y014178D02*
X031890Y014178D01*
X031890Y014019D02*
X031390Y014019D01*
X031390Y013861D02*
X031890Y013861D01*
X031890Y013702D02*
X031390Y013702D01*
X031390Y013544D02*
X031890Y013544D01*
X031890Y013385D02*
X031390Y013385D01*
X031390Y013227D02*
X031890Y013227D01*
X031890Y013068D02*
X031390Y013068D01*
X031390Y012910D02*
X031890Y012910D01*
X031890Y012751D02*
X031390Y012751D01*
X031390Y012593D02*
X031890Y012593D01*
X031890Y012434D02*
X031390Y012434D01*
X031390Y012276D02*
X031890Y012276D01*
X031890Y012117D02*
X031390Y012117D01*
X031390Y011959D02*
X031890Y011959D01*
X031890Y011800D02*
X031390Y011800D01*
X031390Y011642D02*
X031890Y011642D01*
X031890Y011483D02*
X031390Y011483D01*
X031390Y011325D02*
X031890Y011325D01*
X031890Y011166D02*
X031390Y011166D01*
X031390Y011008D02*
X031890Y011008D01*
X031890Y010849D02*
X031390Y010849D01*
X031390Y010691D02*
X031890Y010691D01*
X031890Y010532D02*
X031390Y010532D01*
X031390Y010374D02*
X031890Y010374D01*
X031890Y010215D02*
X031390Y010215D01*
X031390Y010057D02*
X031890Y010057D01*
X031890Y009898D02*
X031423Y009898D01*
X031488Y009740D02*
X031890Y009740D01*
X031890Y009581D02*
X031462Y009581D01*
X031303Y009423D02*
X031890Y009423D01*
X031890Y009264D02*
X030390Y009264D01*
X030390Y009106D02*
X031890Y009106D01*
X031890Y008947D02*
X030390Y008947D01*
X030390Y008789D02*
X031890Y008789D01*
X031890Y008630D02*
X030390Y008630D01*
X030390Y008472D02*
X031890Y008472D01*
X031890Y008313D02*
X030390Y008313D01*
X030390Y008155D02*
X031890Y008155D01*
X031890Y007996D02*
X030268Y007996D01*
X030390Y008118D02*
X030390Y014792D01*
X030267Y014915D01*
X025488Y019694D01*
X025488Y019766D01*
X025441Y019880D01*
X025355Y019966D01*
X025241Y020013D01*
X025119Y020013D01*
X025005Y019966D01*
X024919Y019880D01*
X024872Y019766D01*
X024872Y019644D01*
X024919Y019530D01*
X025005Y019444D01*
X025119Y019397D01*
X025191Y019397D01*
X029970Y014618D01*
X029970Y008292D01*
X028691Y007013D01*
X028619Y007013D01*
X028505Y006966D01*
X028419Y006880D01*
X028372Y006766D01*
X028372Y006694D01*
X027093Y005415D01*
X011767Y005415D01*
X010890Y006292D01*
X010890Y007479D01*
X010941Y007530D01*
X010988Y007644D01*
X010988Y007766D01*
X010941Y007880D01*
X010855Y007966D01*
X010741Y008013D01*
X010669Y008013D01*
X007390Y011292D01*
X007390Y017100D01*
X007419Y017030D01*
X007505Y016944D01*
X007619Y016897D01*
X007741Y016897D01*
X007855Y016944D01*
X007906Y016995D01*
X011267Y016995D01*
X011767Y017495D01*
X020454Y017495D01*
X020505Y017444D01*
X020619Y017397D01*
X020741Y017397D01*
X020855Y017444D01*
X020941Y017530D01*
X020988Y017644D01*
X020988Y017766D01*
X020941Y017880D01*
X020855Y017966D01*
X020741Y018013D01*
X020619Y018013D01*
X020505Y017966D01*
X020454Y017915D01*
X011593Y017915D01*
X011093Y017415D01*
X007906Y017415D01*
X007855Y017466D01*
X007741Y017513D01*
X007619Y017513D01*
X007505Y017466D01*
X007419Y017380D01*
X007390Y017310D01*
X007390Y017979D01*
X007441Y018030D01*
X007488Y018144D01*
X007488Y018266D01*
X007441Y018380D01*
X007355Y018466D01*
X007241Y018513D01*
X007119Y018513D01*
X007005Y018466D01*
X006919Y018380D01*
X006872Y018266D01*
X006872Y018144D01*
X006919Y018030D01*
X006970Y017979D01*
X006970Y011118D01*
X007093Y010995D01*
X010372Y007716D01*
X010372Y007644D01*
X010419Y007530D01*
X010470Y007479D01*
X010470Y006118D01*
X011470Y005118D01*
X011593Y004995D01*
X027267Y004995D01*
X028669Y006397D01*
X028741Y006397D01*
X028855Y006444D01*
X028941Y006530D01*
X028988Y006644D01*
X028988Y006716D01*
X030390Y008118D01*
X030180Y008205D02*
X028680Y006705D01*
X027180Y005205D01*
X011680Y005205D01*
X010680Y006205D01*
X010680Y007705D01*
X007180Y011205D01*
X007180Y018205D01*
X007392Y017982D02*
X010468Y017982D01*
X010454Y017995D02*
X010505Y017944D01*
X010619Y017897D01*
X010741Y017897D01*
X010855Y017944D01*
X010941Y018030D01*
X010988Y018144D01*
X010988Y018266D01*
X010941Y018380D01*
X010855Y018466D01*
X010741Y018513D01*
X010619Y018513D01*
X010505Y018466D01*
X010454Y018415D01*
X008767Y018415D01*
X008390Y018792D01*
X008390Y022479D01*
X008441Y022530D01*
X008488Y022644D01*
X008488Y022766D01*
X008441Y022880D01*
X008355Y022966D01*
X008241Y023013D01*
X008119Y023013D01*
X008005Y022966D01*
X007919Y022880D01*
X007872Y022766D01*
X007872Y022644D01*
X007919Y022530D01*
X007970Y022479D01*
X007970Y018618D01*
X008470Y018118D01*
X008593Y017995D01*
X010454Y017995D01*
X010680Y018205D02*
X008680Y018205D01*
X008180Y018705D01*
X008180Y022705D01*
X008461Y022578D02*
X008890Y022578D01*
X008890Y022420D02*
X008390Y022420D01*
X008390Y022261D02*
X008890Y022261D01*
X008890Y022103D02*
X008390Y022103D01*
X008390Y021944D02*
X008890Y021944D01*
X008890Y021786D02*
X008390Y021786D01*
X008390Y021627D02*
X008890Y021627D01*
X008890Y021469D02*
X008390Y021469D01*
X008390Y021310D02*
X008890Y021310D01*
X008890Y021152D02*
X008390Y021152D01*
X008390Y020993D02*
X008890Y020993D01*
X008890Y020835D02*
X008390Y020835D01*
X008390Y020676D02*
X008890Y020676D01*
X008890Y020518D02*
X008390Y020518D01*
X008390Y020359D02*
X008890Y020359D01*
X008890Y020201D02*
X008390Y020201D01*
X008390Y020042D02*
X008890Y020042D01*
X008890Y019884D02*
X008390Y019884D01*
X008390Y019725D02*
X008890Y019725D01*
X008890Y019647D02*
X008934Y019541D01*
X009516Y018959D01*
X009622Y018915D01*
X011075Y018915D01*
X011119Y018897D01*
X011241Y018897D01*
X011285Y018915D01*
X018575Y018915D01*
X018619Y018897D01*
X018741Y018897D01*
X018855Y018944D01*
X018941Y019030D01*
X018988Y019144D01*
X018988Y019266D01*
X018941Y019380D01*
X018855Y019466D01*
X018741Y019513D01*
X018619Y019513D01*
X018575Y019495D01*
X011285Y019495D01*
X011241Y019513D01*
X011119Y019513D01*
X011075Y019495D01*
X010406Y019495D01*
X010441Y019530D01*
X010488Y019644D01*
X010488Y019766D01*
X010441Y019880D01*
X010390Y019931D01*
X010390Y022479D01*
X010441Y022530D01*
X010488Y022644D01*
X010488Y022766D01*
X010441Y022880D01*
X010355Y022966D01*
X010241Y023013D01*
X010119Y023013D01*
X010005Y022966D01*
X009919Y022880D01*
X009872Y022766D01*
X009872Y022644D01*
X009919Y022530D01*
X009970Y022479D01*
X009970Y019931D01*
X009919Y019880D01*
X009872Y019766D01*
X009872Y019644D01*
X009919Y019530D01*
X009954Y019495D01*
X009800Y019495D01*
X009470Y019825D01*
X009470Y024763D01*
X009426Y024869D01*
X009344Y024951D01*
X008926Y025369D01*
X008844Y025451D01*
X008738Y025495D01*
X006622Y025495D01*
X006516Y025451D01*
X005516Y024451D01*
X005434Y024369D01*
X005390Y024263D01*
X005390Y006647D01*
X005434Y006541D01*
X008390Y003585D01*
X008390Y002647D01*
X008434Y002541D01*
X009434Y001541D01*
X009516Y001459D01*
X009622Y001415D01*
X017238Y001415D01*
X017344Y001459D01*
X018296Y002411D01*
X018505Y002325D01*
X018855Y002325D01*
X019178Y002459D01*
X019426Y002707D01*
X019560Y003030D01*
X019560Y003380D01*
X019426Y003703D01*
X019178Y003951D01*
X018855Y004085D01*
X018505Y004085D01*
X018182Y003951D01*
X017934Y003703D01*
X017800Y003380D01*
X017800Y003030D01*
X017886Y002821D01*
X017060Y001995D01*
X009800Y001995D01*
X008970Y002825D01*
X008970Y003763D01*
X008926Y003869D01*
X008844Y003951D01*
X005970Y006825D01*
X005970Y024085D01*
X006800Y024915D01*
X008560Y024915D01*
X008890Y024585D01*
X008890Y019647D01*
X008923Y019567D02*
X008390Y019567D01*
X008390Y019408D02*
X009067Y019408D01*
X009225Y019250D02*
X008390Y019250D01*
X008390Y019091D02*
X009384Y019091D01*
X009580Y018933D02*
X008390Y018933D01*
X008408Y018774D02*
X020814Y018774D01*
X020972Y018616D02*
X008566Y018616D01*
X008725Y018457D02*
X010496Y018457D01*
X010864Y018457D02*
X021131Y018457D01*
X021289Y018299D02*
X010975Y018299D01*
X010987Y018140D02*
X021448Y018140D01*
X021470Y018118D02*
X021470Y016822D01*
X019093Y014445D01*
X018970Y014322D01*
X018970Y014292D01*
X018470Y013792D01*
X018470Y013431D01*
X018419Y013380D01*
X018372Y013266D01*
X018372Y013144D01*
X018419Y013030D01*
X018505Y012944D01*
X018619Y012897D01*
X018741Y012897D01*
X018855Y012944D01*
X018941Y013030D01*
X018988Y013144D01*
X018988Y013266D01*
X018941Y013380D01*
X018890Y013431D01*
X018890Y013618D01*
X019390Y014118D01*
X019390Y014148D01*
X021890Y016648D01*
X021890Y018292D01*
X019767Y020415D01*
X017406Y020415D01*
X017355Y020466D01*
X017241Y020513D01*
X017119Y020513D01*
X017005Y020466D01*
X016919Y020380D01*
X016872Y020266D01*
X016872Y020144D01*
X016919Y020030D01*
X017005Y019944D01*
X017119Y019897D01*
X017241Y019897D01*
X017355Y019944D01*
X017406Y019995D01*
X019593Y019995D01*
X021470Y018118D01*
X021470Y017982D02*
X020818Y017982D01*
X020965Y017823D02*
X021470Y017823D01*
X021470Y017665D02*
X020988Y017665D01*
X020917Y017506D02*
X021470Y017506D01*
X021470Y017348D02*
X011620Y017348D01*
X011461Y017189D02*
X021470Y017189D01*
X021470Y017031D02*
X011303Y017031D01*
X011180Y017205D02*
X011680Y017705D01*
X020680Y017705D01*
X020542Y017982D02*
X010892Y017982D01*
X011343Y017665D02*
X007390Y017665D01*
X007390Y017823D02*
X011501Y017823D01*
X011184Y017506D02*
X007758Y017506D01*
X007602Y017506D02*
X007390Y017506D01*
X007390Y017348D02*
X007406Y017348D01*
X007680Y017205D02*
X011180Y017205D01*
X012872Y016766D02*
X012872Y016644D01*
X012919Y016530D01*
X013005Y016444D01*
X013119Y016397D01*
X013191Y016397D01*
X014093Y015495D01*
X016593Y015495D01*
X016970Y015118D01*
X016970Y009931D01*
X016919Y009880D01*
X016872Y009766D01*
X016872Y009644D01*
X016919Y009530D01*
X017005Y009444D01*
X017119Y009397D01*
X017241Y009397D01*
X017355Y009444D01*
X017441Y009530D01*
X017488Y009644D01*
X017488Y009766D01*
X017441Y009880D01*
X017390Y009931D01*
X017390Y015292D01*
X016890Y015792D01*
X016767Y015915D01*
X014267Y015915D01*
X013488Y016694D01*
X013488Y016766D01*
X013441Y016880D01*
X013355Y016966D01*
X013241Y017013D01*
X013119Y017013D01*
X013005Y016966D01*
X012919Y016880D01*
X012872Y016766D01*
X012872Y016714D02*
X007390Y016714D01*
X007390Y016872D02*
X012916Y016872D01*
X013180Y016705D02*
X014180Y015705D01*
X016680Y015705D01*
X017180Y015205D01*
X017180Y009705D01*
X017303Y009423D02*
X017962Y009423D01*
X018005Y009466D02*
X017919Y009380D01*
X017872Y009266D01*
X017872Y009144D01*
X017919Y009030D01*
X018005Y008944D01*
X018119Y008897D01*
X018241Y008897D01*
X018355Y008944D01*
X018406Y008995D01*
X021767Y008995D01*
X025267Y012495D01*
X025390Y012618D01*
X025390Y013479D01*
X025441Y013530D01*
X025488Y013644D01*
X025488Y013766D01*
X025441Y013880D01*
X025355Y013966D01*
X025241Y014013D01*
X025119Y014013D01*
X025005Y013966D01*
X024919Y013880D01*
X024872Y013766D01*
X024872Y013644D01*
X024919Y013530D01*
X024970Y013479D01*
X024970Y012792D01*
X021593Y009415D01*
X018406Y009415D01*
X018355Y009466D01*
X018241Y009513D01*
X018119Y009513D01*
X018005Y009466D01*
X017872Y009264D02*
X012531Y009264D01*
X012373Y009423D02*
X017057Y009423D01*
X016898Y009581D02*
X012214Y009581D01*
X012056Y009740D02*
X016872Y009740D01*
X016937Y009898D02*
X011897Y009898D01*
X011739Y010057D02*
X016970Y010057D01*
X016970Y010215D02*
X011580Y010215D01*
X011470Y010325D02*
X011470Y011600D01*
X011488Y011644D01*
X011488Y011766D01*
X011441Y011880D01*
X011355Y011966D01*
X011241Y012013D01*
X011119Y012013D01*
X011005Y011966D01*
X010919Y011880D01*
X010872Y011766D01*
X010872Y011644D01*
X010890Y011600D01*
X010890Y010147D01*
X010934Y010041D01*
X011016Y009959D01*
X013390Y007585D01*
X013390Y007325D01*
X012549Y006484D01*
X012505Y006466D01*
X012419Y006380D01*
X012372Y006266D01*
X012372Y006144D01*
X012419Y006030D01*
X012505Y005944D01*
X012575Y005915D01*
X012267Y005915D01*
X011988Y006194D01*
X011988Y006266D01*
X011941Y006380D01*
X011855Y006466D01*
X011741Y006513D01*
X011619Y006513D01*
X011505Y006466D01*
X011419Y006380D01*
X011372Y006266D01*
X011372Y006144D01*
X011419Y006030D01*
X011505Y005944D01*
X011619Y005897D01*
X011691Y005897D01*
X012093Y005495D01*
X016767Y005495D01*
X016890Y005618D01*
X017669Y006397D01*
X017741Y006397D01*
X017855Y006444D01*
X017941Y006530D01*
X017988Y006644D01*
X017988Y006766D01*
X017941Y006880D01*
X017855Y006966D01*
X017741Y007013D01*
X017619Y007013D01*
X017505Y006966D01*
X017419Y006880D01*
X017372Y006766D01*
X017372Y006694D01*
X016593Y005915D01*
X012785Y005915D01*
X012855Y005944D01*
X012941Y006030D01*
X012959Y006074D01*
X013844Y006959D01*
X013926Y007041D01*
X013970Y007147D01*
X013970Y007415D01*
X024738Y007415D01*
X024844Y007459D01*
X025344Y007959D01*
X025426Y008041D01*
X025470Y008147D01*
X025470Y009600D01*
X025488Y009644D01*
X025488Y009766D01*
X025441Y009880D01*
X025355Y009966D01*
X025241Y010013D01*
X025119Y010013D01*
X025005Y009966D01*
X024919Y009880D01*
X024872Y009766D01*
X024872Y009644D01*
X024890Y009600D01*
X024890Y008325D01*
X024560Y007995D01*
X013800Y007995D01*
X011470Y010325D01*
X011470Y010374D02*
X016970Y010374D01*
X016970Y010532D02*
X011470Y010532D01*
X011470Y010691D02*
X016970Y010691D01*
X016970Y010849D02*
X011470Y010849D01*
X011470Y011008D02*
X016970Y011008D01*
X016970Y011166D02*
X011470Y011166D01*
X011470Y011325D02*
X016970Y011325D01*
X016970Y011483D02*
X011470Y011483D01*
X011487Y011642D02*
X016970Y011642D01*
X016970Y011800D02*
X011474Y011800D01*
X011362Y011959D02*
X016970Y011959D01*
X016970Y012117D02*
X007390Y012117D01*
X007390Y011959D02*
X010998Y011959D01*
X010886Y011800D02*
X007390Y011800D01*
X007390Y011642D02*
X010873Y011642D01*
X010890Y011483D02*
X007390Y011483D01*
X007390Y011325D02*
X010890Y011325D01*
X010890Y011166D02*
X007516Y011166D01*
X007674Y011008D02*
X010890Y011008D01*
X010890Y010849D02*
X007833Y010849D01*
X007991Y010691D02*
X010890Y010691D01*
X010890Y010532D02*
X008150Y010532D01*
X008308Y010374D02*
X010890Y010374D01*
X010890Y010215D02*
X008467Y010215D01*
X008625Y010057D02*
X010928Y010057D01*
X011077Y009898D02*
X008784Y009898D01*
X008942Y009740D02*
X011235Y009740D01*
X011394Y009581D02*
X009101Y009581D01*
X009259Y009423D02*
X011552Y009423D01*
X011711Y009264D02*
X009418Y009264D01*
X009576Y009106D02*
X011869Y009106D01*
X012028Y008947D02*
X009735Y008947D01*
X009893Y008789D02*
X012186Y008789D01*
X012345Y008630D02*
X010052Y008630D01*
X010210Y008472D02*
X012503Y008472D01*
X012662Y008313D02*
X010369Y008313D01*
X010527Y008155D02*
X012820Y008155D01*
X012979Y007996D02*
X010783Y007996D01*
X010959Y007838D02*
X013137Y007838D01*
X013296Y007679D02*
X010988Y007679D01*
X010931Y007521D02*
X013390Y007521D01*
X013390Y007362D02*
X010890Y007362D01*
X010890Y007204D02*
X013268Y007204D01*
X013110Y007045D02*
X010890Y007045D01*
X010890Y006887D02*
X012951Y006887D01*
X012793Y006728D02*
X010890Y006728D01*
X010890Y006570D02*
X012634Y006570D01*
X012450Y006411D02*
X011910Y006411D01*
X011988Y006253D02*
X012372Y006253D01*
X012392Y006094D02*
X012088Y006094D01*
X012246Y005936D02*
X012525Y005936D01*
X012835Y005936D02*
X016614Y005936D01*
X016772Y006094D02*
X012979Y006094D01*
X013138Y006253D02*
X016931Y006253D01*
X017089Y006411D02*
X013296Y006411D01*
X013455Y006570D02*
X017248Y006570D01*
X017372Y006728D02*
X013613Y006728D01*
X013772Y006887D02*
X017426Y006887D01*
X017680Y006705D02*
X016680Y005705D01*
X012180Y005705D01*
X011680Y006205D01*
X011392Y006094D02*
X011088Y006094D01*
X011246Y005936D02*
X011525Y005936D01*
X011405Y005777D02*
X011811Y005777D01*
X011970Y005619D02*
X011563Y005619D01*
X011722Y005460D02*
X027138Y005460D01*
X027297Y005619D02*
X016890Y005619D01*
X017049Y005777D02*
X027455Y005777D01*
X027614Y005936D02*
X017207Y005936D01*
X017366Y006094D02*
X027772Y006094D01*
X027931Y006253D02*
X017524Y006253D01*
X017775Y006411D02*
X028089Y006411D01*
X028248Y006570D02*
X017957Y006570D01*
X017988Y006728D02*
X028372Y006728D01*
X028426Y006887D02*
X017934Y006887D01*
X018002Y008947D02*
X012848Y008947D01*
X012690Y009106D02*
X017888Y009106D01*
X018180Y009205D02*
X021680Y009205D01*
X025180Y012705D01*
X025180Y013705D01*
X025488Y013702D02*
X029970Y013702D01*
X029970Y013544D02*
X025447Y013544D01*
X025390Y013385D02*
X029970Y013385D01*
X029970Y013227D02*
X025390Y013227D01*
X025390Y013068D02*
X029970Y013068D01*
X029970Y012910D02*
X025390Y012910D01*
X025390Y012751D02*
X029970Y012751D01*
X029970Y012593D02*
X025365Y012593D01*
X025206Y012434D02*
X029970Y012434D01*
X029970Y012276D02*
X025048Y012276D01*
X024889Y012117D02*
X029970Y012117D01*
X029970Y011959D02*
X029362Y011959D01*
X029355Y011966D02*
X029241Y012013D01*
X029119Y012013D01*
X029075Y011995D01*
X025785Y011995D01*
X025741Y012013D01*
X025619Y012013D01*
X025505Y011966D01*
X025419Y011880D01*
X025372Y011766D01*
X025372Y011644D01*
X025419Y011530D01*
X025505Y011444D01*
X025619Y011397D01*
X025741Y011397D01*
X025785Y011415D01*
X029075Y011415D01*
X029119Y011397D01*
X029241Y011397D01*
X029355Y011444D01*
X029441Y011530D01*
X029488Y011644D01*
X029488Y011766D01*
X029441Y011880D01*
X029355Y011966D01*
X029474Y011800D02*
X029970Y011800D01*
X029970Y011642D02*
X029487Y011642D01*
X029394Y011483D02*
X029970Y011483D01*
X029970Y011325D02*
X024097Y011325D01*
X024255Y011483D02*
X025466Y011483D01*
X025373Y011642D02*
X024414Y011642D01*
X024572Y011800D02*
X025386Y011800D01*
X025498Y011959D02*
X024731Y011959D01*
X024454Y012276D02*
X017390Y012276D01*
X017390Y012434D02*
X021529Y012434D01*
X021393Y012593D02*
X017390Y012593D01*
X017390Y012751D02*
X021372Y012751D01*
X021449Y012910D02*
X018772Y012910D01*
X018588Y012910D02*
X017390Y012910D01*
X017390Y013068D02*
X018403Y013068D01*
X018372Y013227D02*
X017390Y013227D01*
X017390Y013385D02*
X018424Y013385D01*
X018470Y013544D02*
X017390Y013544D01*
X017390Y013702D02*
X018470Y013702D01*
X018539Y013861D02*
X017390Y013861D01*
X017390Y014019D02*
X018697Y014019D01*
X018856Y014178D02*
X017390Y014178D01*
X017390Y014336D02*
X018984Y014336D01*
X019180Y014235D02*
X019180Y014205D01*
X018680Y013705D01*
X018680Y013205D01*
X018957Y013068D02*
X021746Y013068D01*
X021905Y013227D02*
X018988Y013227D01*
X018936Y013385D02*
X022063Y013385D01*
X022222Y013544D02*
X018890Y013544D01*
X018974Y013702D02*
X022380Y013702D01*
X022539Y013861D02*
X019133Y013861D01*
X019291Y014019D02*
X022697Y014019D01*
X022856Y014178D02*
X019420Y014178D01*
X019578Y014336D02*
X023014Y014336D01*
X023173Y014495D02*
X019737Y014495D01*
X019895Y014653D02*
X023331Y014653D01*
X023470Y014812D02*
X020054Y014812D01*
X020212Y014970D02*
X023470Y014970D01*
X023470Y015129D02*
X020371Y015129D01*
X020529Y015287D02*
X023470Y015287D01*
X023470Y015446D02*
X020688Y015446D01*
X020846Y015604D02*
X023470Y015604D01*
X023470Y015763D02*
X021005Y015763D01*
X021163Y015921D02*
X023470Y015921D01*
X023470Y016080D02*
X021322Y016080D01*
X021480Y016238D02*
X023470Y016238D01*
X023470Y016397D02*
X021639Y016397D01*
X021797Y016555D02*
X023470Y016555D01*
X023470Y016714D02*
X021890Y016714D01*
X021890Y016872D02*
X023470Y016872D01*
X023470Y017031D02*
X021890Y017031D01*
X021890Y017189D02*
X023470Y017189D01*
X023470Y017348D02*
X021890Y017348D01*
X021890Y017506D02*
X023470Y017506D01*
X023470Y017665D02*
X021890Y017665D01*
X021890Y017823D02*
X023470Y017823D01*
X023470Y017982D02*
X021890Y017982D01*
X021890Y018140D02*
X023470Y018140D01*
X023470Y018299D02*
X021883Y018299D01*
X021725Y018457D02*
X023470Y018457D01*
X023470Y018616D02*
X021566Y018616D01*
X021408Y018774D02*
X023470Y018774D01*
X023470Y018933D02*
X021249Y018933D01*
X021091Y019091D02*
X023470Y019091D01*
X023470Y019250D02*
X020932Y019250D01*
X020774Y019408D02*
X023470Y019408D01*
X023470Y019567D02*
X020615Y019567D01*
X020457Y019725D02*
X023470Y019725D01*
X023470Y019884D02*
X020298Y019884D01*
X020140Y020042D02*
X023414Y020042D01*
X023372Y020201D02*
X019981Y020201D01*
X019823Y020359D02*
X023410Y020359D01*
X023680Y020205D02*
X023680Y014705D01*
X021680Y012705D01*
X021967Y012593D02*
X024771Y012593D01*
X024929Y012751D02*
X022023Y012751D01*
X022182Y012910D02*
X024970Y012910D01*
X024970Y013068D02*
X022340Y013068D01*
X022499Y013227D02*
X024970Y013227D01*
X024970Y013385D02*
X022657Y013385D01*
X022816Y013544D02*
X024913Y013544D01*
X024872Y013702D02*
X022974Y013702D01*
X023133Y013861D02*
X024911Y013861D01*
X025449Y013861D02*
X029970Y013861D01*
X029970Y014019D02*
X023291Y014019D01*
X023450Y014178D02*
X029970Y014178D01*
X029970Y014336D02*
X023608Y014336D01*
X023767Y014495D02*
X029970Y014495D01*
X029935Y014653D02*
X023890Y014653D01*
X023890Y014812D02*
X029776Y014812D01*
X029618Y014970D02*
X027381Y014970D01*
X027482Y015129D02*
X029459Y015129D01*
X029301Y015287D02*
X027480Y015287D01*
X027375Y015446D02*
X029142Y015446D01*
X028984Y015604D02*
X025078Y015604D01*
X024919Y015763D02*
X028825Y015763D01*
X028667Y015921D02*
X024761Y015921D01*
X024602Y016080D02*
X028508Y016080D01*
X028350Y016238D02*
X024444Y016238D01*
X024390Y016397D02*
X028191Y016397D01*
X028033Y016555D02*
X026451Y016555D01*
X026441Y016530D02*
X026488Y016644D01*
X026488Y016766D01*
X026441Y016880D01*
X026390Y016931D01*
X026390Y017479D01*
X026441Y017530D01*
X026488Y017644D01*
X026488Y017766D01*
X026441Y017880D01*
X026355Y017966D01*
X026241Y018013D01*
X026119Y018013D01*
X026005Y017966D01*
X025919Y017880D01*
X025872Y017766D01*
X025872Y017644D01*
X025919Y017530D01*
X025970Y017479D01*
X025970Y016931D01*
X025919Y016880D01*
X025872Y016766D01*
X025872Y016644D01*
X025919Y016530D01*
X026005Y016444D01*
X026119Y016397D01*
X026241Y016397D01*
X026355Y016444D01*
X026441Y016530D01*
X026488Y016714D02*
X027874Y016714D01*
X027716Y016872D02*
X026444Y016872D01*
X026390Y017031D02*
X027557Y017031D01*
X027399Y017189D02*
X026390Y017189D01*
X026390Y017348D02*
X027240Y017348D01*
X027082Y017506D02*
X026417Y017506D01*
X026488Y017665D02*
X026923Y017665D01*
X026765Y017823D02*
X026465Y017823D01*
X026606Y017982D02*
X026318Y017982D01*
X026448Y018140D02*
X024390Y018140D01*
X024390Y017982D02*
X026042Y017982D01*
X025895Y017823D02*
X024390Y017823D01*
X024390Y017665D02*
X025872Y017665D01*
X025943Y017506D02*
X024390Y017506D01*
X024390Y017348D02*
X025970Y017348D01*
X025970Y017189D02*
X024390Y017189D01*
X024390Y017031D02*
X025970Y017031D01*
X025916Y016872D02*
X024390Y016872D01*
X024390Y016714D02*
X025872Y016714D01*
X025909Y016555D02*
X024390Y016555D01*
X024180Y016205D02*
X025180Y015205D01*
X027180Y015205D01*
X026979Y014970D02*
X025381Y014970D01*
X024979Y014970D02*
X023890Y014970D01*
X023890Y015129D02*
X024878Y015129D01*
X024801Y015287D02*
X023890Y015287D01*
X023890Y015446D02*
X024642Y015446D01*
X024484Y015604D02*
X023890Y015604D01*
X023890Y015763D02*
X024325Y015763D01*
X024167Y015921D02*
X023890Y015921D01*
X023890Y016080D02*
X024008Y016080D01*
X023970Y016238D02*
X023890Y016238D01*
X023890Y016397D02*
X023970Y016397D01*
X023970Y016555D02*
X023890Y016555D01*
X023890Y016714D02*
X023970Y016714D01*
X023970Y016872D02*
X023890Y016872D01*
X023890Y017031D02*
X023970Y017031D01*
X023970Y017189D02*
X023890Y017189D01*
X023890Y017348D02*
X023970Y017348D01*
X023970Y017506D02*
X023890Y017506D01*
X023890Y017665D02*
X023970Y017665D01*
X023970Y017823D02*
X023890Y017823D01*
X023890Y017982D02*
X023970Y017982D01*
X023970Y018140D02*
X023890Y018140D01*
X023890Y018299D02*
X023970Y018299D01*
X023970Y018457D02*
X023890Y018457D01*
X023890Y018616D02*
X023970Y018616D01*
X023970Y018774D02*
X023890Y018774D01*
X023890Y018933D02*
X023970Y018933D01*
X023970Y019091D02*
X023890Y019091D01*
X023890Y019250D02*
X023970Y019250D01*
X023970Y019408D02*
X023890Y019408D01*
X023890Y019567D02*
X023970Y019567D01*
X023970Y019725D02*
X023890Y019725D01*
X023890Y019884D02*
X023970Y019884D01*
X023970Y020042D02*
X023946Y020042D01*
X023950Y020359D02*
X023970Y020359D01*
X023970Y020518D02*
X010390Y020518D01*
X010390Y020676D02*
X023970Y020676D01*
X023970Y020835D02*
X010390Y020835D01*
X010390Y020993D02*
X010956Y020993D01*
X010919Y021030D02*
X011005Y020944D01*
X011119Y020897D01*
X011241Y020897D01*
X011355Y020944D01*
X011441Y021030D01*
X011488Y021144D01*
X011488Y021266D01*
X011441Y021380D01*
X011390Y021431D01*
X011390Y024479D01*
X011441Y024530D01*
X011488Y024644D01*
X011488Y024766D01*
X011441Y024880D01*
X011355Y024966D01*
X011241Y025013D01*
X011119Y025013D01*
X011005Y024966D01*
X010919Y024880D01*
X010872Y024766D01*
X010872Y024644D01*
X010919Y024530D01*
X010970Y024479D01*
X010970Y021431D01*
X010919Y021380D01*
X010872Y021266D01*
X010872Y021144D01*
X010919Y021030D01*
X010872Y021152D02*
X010390Y021152D01*
X010390Y021310D02*
X010890Y021310D01*
X010970Y021469D02*
X010390Y021469D01*
X010390Y021627D02*
X010970Y021627D01*
X010970Y021786D02*
X010390Y021786D01*
X010390Y021944D02*
X010970Y021944D01*
X010970Y022103D02*
X010390Y022103D01*
X010390Y022261D02*
X010970Y022261D01*
X010970Y022420D02*
X010390Y022420D01*
X010461Y022578D02*
X010970Y022578D01*
X010970Y022737D02*
X010488Y022737D01*
X010426Y022895D02*
X010970Y022895D01*
X010970Y023054D02*
X009470Y023054D01*
X009470Y023212D02*
X010970Y023212D01*
X010970Y023371D02*
X009470Y023371D01*
X009470Y023529D02*
X010970Y023529D01*
X010970Y023688D02*
X009470Y023688D01*
X009470Y023846D02*
X010970Y023846D01*
X010970Y024005D02*
X009470Y024005D01*
X009470Y024163D02*
X010970Y024163D01*
X010970Y024322D02*
X009470Y024322D01*
X009470Y024480D02*
X010969Y024480D01*
X010874Y024639D02*
X009470Y024639D01*
X009456Y024797D02*
X010885Y024797D01*
X010995Y024956D02*
X009340Y024956D01*
X009344Y024951D02*
X009344Y024951D01*
X009181Y025114D02*
X016974Y025114D01*
X017132Y024956D02*
X011365Y024956D01*
X011475Y024797D02*
X017291Y024797D01*
X017449Y024639D02*
X011486Y024639D01*
X011391Y024480D02*
X017608Y024480D01*
X017766Y024322D02*
X011390Y024322D01*
X011390Y024163D02*
X017925Y024163D01*
X018083Y024005D02*
X011390Y024005D01*
X011390Y023846D02*
X018242Y023846D01*
X018400Y023688D02*
X011390Y023688D01*
X011390Y023529D02*
X018559Y023529D01*
X018717Y023371D02*
X011390Y023371D01*
X011390Y023212D02*
X018876Y023212D01*
X018970Y023118D02*
X018970Y023118D01*
X019034Y023054D02*
X011390Y023054D01*
X011390Y022895D02*
X022693Y022895D01*
X022851Y022737D02*
X011390Y022737D01*
X011390Y022578D02*
X023010Y022578D01*
X023168Y022420D02*
X011390Y022420D01*
X011390Y022261D02*
X023327Y022261D01*
X023485Y022103D02*
X011390Y022103D01*
X011390Y021944D02*
X023644Y021944D01*
X023802Y021786D02*
X011390Y021786D01*
X011390Y021627D02*
X023961Y021627D01*
X023970Y021469D02*
X011390Y021469D01*
X011470Y021310D02*
X023970Y021310D01*
X023970Y021152D02*
X011488Y021152D01*
X011404Y020993D02*
X023970Y020993D01*
X024390Y020993D02*
X025595Y020993D01*
X025753Y020835D02*
X024390Y020835D01*
X024390Y020676D02*
X025912Y020676D01*
X026070Y020518D02*
X024390Y020518D01*
X024390Y020359D02*
X026229Y020359D01*
X026387Y020201D02*
X024390Y020201D01*
X024390Y020042D02*
X026546Y020042D01*
X026704Y019884D02*
X025437Y019884D01*
X025488Y019725D02*
X026863Y019725D01*
X027021Y019567D02*
X025615Y019567D01*
X025774Y019408D02*
X027180Y019408D01*
X027338Y019250D02*
X025932Y019250D01*
X026091Y019091D02*
X027497Y019091D01*
X027655Y018933D02*
X026249Y018933D01*
X026408Y018774D02*
X027814Y018774D01*
X027972Y018616D02*
X026566Y018616D01*
X026725Y018457D02*
X028131Y018457D01*
X028289Y018299D02*
X026883Y018299D01*
X027042Y018140D02*
X028448Y018140D01*
X028606Y017982D02*
X027200Y017982D01*
X027359Y017823D02*
X028765Y017823D01*
X028923Y017665D02*
X027517Y017665D01*
X027676Y017506D02*
X029082Y017506D01*
X029240Y017348D02*
X027834Y017348D01*
X027993Y017189D02*
X029399Y017189D01*
X029557Y017031D02*
X028151Y017031D01*
X028310Y016872D02*
X029716Y016872D01*
X029874Y016714D02*
X028468Y016714D01*
X028627Y016555D02*
X030033Y016555D01*
X030191Y016397D02*
X028785Y016397D01*
X028944Y016238D02*
X030350Y016238D01*
X030508Y016080D02*
X029102Y016080D01*
X029261Y015921D02*
X030667Y015921D01*
X030825Y015763D02*
X029419Y015763D01*
X029578Y015604D02*
X030970Y015604D01*
X030970Y015446D02*
X029736Y015446D01*
X029895Y015287D02*
X030970Y015287D01*
X030970Y015129D02*
X030053Y015129D01*
X030212Y014970D02*
X030970Y014970D01*
X030970Y014812D02*
X030370Y014812D01*
X030390Y014653D02*
X030970Y014653D01*
X030970Y014495D02*
X030390Y014495D01*
X030390Y014336D02*
X030970Y014336D01*
X030970Y014178D02*
X030390Y014178D01*
X030390Y014019D02*
X030970Y014019D01*
X030970Y013861D02*
X030390Y013861D01*
X030390Y013702D02*
X030970Y013702D01*
X030970Y013544D02*
X030390Y013544D01*
X030390Y013385D02*
X030970Y013385D01*
X030970Y013227D02*
X030390Y013227D01*
X030390Y013068D02*
X030970Y013068D01*
X030970Y012910D02*
X030390Y012910D01*
X030390Y012751D02*
X030970Y012751D01*
X030970Y012593D02*
X030390Y012593D01*
X030390Y012434D02*
X030970Y012434D01*
X030970Y012276D02*
X030390Y012276D01*
X030390Y012117D02*
X030970Y012117D01*
X030970Y011959D02*
X030390Y011959D01*
X030390Y011800D02*
X030970Y011800D01*
X030970Y011642D02*
X030390Y011642D01*
X030390Y011483D02*
X030970Y011483D01*
X030970Y011325D02*
X030390Y011325D01*
X030390Y011166D02*
X030970Y011166D01*
X030970Y011008D02*
X030390Y011008D01*
X030390Y010849D02*
X030970Y010849D01*
X030970Y010691D02*
X030390Y010691D01*
X030390Y010532D02*
X030970Y010532D01*
X030970Y010374D02*
X030390Y010374D01*
X030390Y010215D02*
X030970Y010215D01*
X030970Y010057D02*
X030390Y010057D01*
X030390Y009898D02*
X030937Y009898D01*
X030872Y009740D02*
X030390Y009740D01*
X030390Y009581D02*
X030898Y009581D01*
X031057Y009423D02*
X030390Y009423D01*
X029970Y009423D02*
X025470Y009423D01*
X025470Y009581D02*
X029970Y009581D01*
X029970Y009740D02*
X025488Y009740D01*
X025423Y009898D02*
X029970Y009898D01*
X029970Y010057D02*
X022828Y010057D01*
X022670Y009898D02*
X024937Y009898D01*
X024872Y009740D02*
X022511Y009740D01*
X022353Y009581D02*
X024890Y009581D01*
X024890Y009423D02*
X022194Y009423D01*
X022036Y009264D02*
X024890Y009264D01*
X024890Y009106D02*
X021877Y009106D01*
X021601Y009423D02*
X018398Y009423D01*
X017462Y009581D02*
X021759Y009581D01*
X021918Y009740D02*
X017488Y009740D01*
X017423Y009898D02*
X018616Y009898D01*
X018619Y009897D02*
X018741Y009897D01*
X018855Y009944D01*
X018906Y009995D01*
X020454Y009995D01*
X020505Y009944D01*
X020619Y009897D01*
X020741Y009897D01*
X020855Y009944D01*
X020941Y010030D01*
X020988Y010144D01*
X020988Y010266D01*
X020941Y010380D01*
X020855Y010466D01*
X020741Y010513D01*
X020619Y010513D01*
X020505Y010466D01*
X020454Y010415D01*
X018906Y010415D01*
X018855Y010466D01*
X018741Y010513D01*
X018619Y010513D01*
X018505Y010466D01*
X018419Y010380D01*
X018372Y010266D01*
X018372Y010144D01*
X018419Y010030D01*
X018505Y009944D01*
X018619Y009897D01*
X018744Y009898D02*
X020616Y009898D01*
X020744Y009898D02*
X022076Y009898D01*
X022235Y010057D02*
X020952Y010057D01*
X020988Y010215D02*
X022393Y010215D01*
X022552Y010374D02*
X020944Y010374D01*
X020680Y010205D02*
X018680Y010205D01*
X018372Y010215D02*
X017390Y010215D01*
X017390Y010057D02*
X018408Y010057D01*
X018416Y010374D02*
X017390Y010374D01*
X017390Y010532D02*
X022710Y010532D01*
X022869Y010691D02*
X017390Y010691D01*
X017390Y010849D02*
X023027Y010849D01*
X023186Y011008D02*
X017390Y011008D01*
X017390Y011166D02*
X023344Y011166D01*
X023503Y011325D02*
X017390Y011325D01*
X017390Y011483D02*
X023661Y011483D01*
X023820Y011642D02*
X017390Y011642D01*
X017390Y011800D02*
X023978Y011800D01*
X024137Y011959D02*
X017390Y011959D01*
X017390Y012117D02*
X024295Y012117D01*
X024612Y012434D02*
X021831Y012434D01*
X023780Y011008D02*
X029970Y011008D01*
X029970Y011166D02*
X023938Y011166D01*
X023621Y010849D02*
X029970Y010849D01*
X029970Y010691D02*
X023463Y010691D01*
X023304Y010532D02*
X029970Y010532D01*
X029970Y010374D02*
X023145Y010374D01*
X022987Y010215D02*
X029970Y010215D01*
X031180Y009705D02*
X031180Y015705D01*
X023180Y023705D01*
X020180Y023705D01*
X019872Y023688D02*
X018994Y023688D01*
X018836Y023846D02*
X019905Y023846D01*
X020098Y024005D02*
X018677Y024005D01*
X018519Y024163D02*
X039500Y024163D01*
X039500Y024005D02*
X020262Y024005D01*
X019920Y023529D02*
X019153Y023529D01*
X019180Y023205D02*
X016680Y025705D01*
X005180Y025705D01*
X002680Y023205D01*
X002680Y006705D01*
X006180Y003205D01*
X006680Y003205D01*
X007486Y003558D02*
X008390Y003558D01*
X008390Y003400D02*
X007552Y003400D01*
X007560Y003241D02*
X008390Y003241D01*
X008390Y003083D02*
X007560Y003083D01*
X007516Y002924D02*
X008390Y002924D01*
X008390Y002766D02*
X007450Y002766D01*
X007327Y002607D02*
X008407Y002607D01*
X008526Y002449D02*
X007153Y002449D01*
X006207Y002449D02*
X003153Y002449D01*
X003178Y002459D02*
X003426Y002707D01*
X003560Y003030D01*
X003560Y003380D01*
X003426Y003703D01*
X003178Y003951D01*
X002855Y004085D01*
X002505Y004085D01*
X002182Y003951D01*
X001934Y003703D01*
X001800Y003380D01*
X001800Y003030D01*
X001934Y002707D01*
X002182Y002459D01*
X002505Y002325D01*
X002855Y002325D01*
X003178Y002459D01*
X003327Y002607D02*
X006033Y002607D01*
X005910Y002766D02*
X003450Y002766D01*
X003516Y002924D02*
X005844Y002924D01*
X005800Y003083D02*
X003560Y003083D01*
X003560Y003241D02*
X005800Y003241D01*
X005689Y003400D02*
X003552Y003400D01*
X003486Y003558D02*
X005530Y003558D01*
X005372Y003717D02*
X003413Y003717D01*
X003255Y003875D02*
X005213Y003875D01*
X005055Y004034D02*
X002979Y004034D01*
X002381Y004034D02*
X000860Y004034D01*
X000860Y004192D02*
X004896Y004192D01*
X004738Y004351D02*
X000860Y004351D01*
X000860Y004509D02*
X004579Y004509D01*
X004421Y004668D02*
X000860Y004668D01*
X000860Y004826D02*
X004262Y004826D01*
X004104Y004985D02*
X000860Y004985D01*
X000860Y005143D02*
X003945Y005143D01*
X003787Y005302D02*
X000860Y005302D01*
X000860Y005460D02*
X003628Y005460D01*
X003470Y005619D02*
X000860Y005619D01*
X000860Y005777D02*
X003311Y005777D01*
X003153Y005936D02*
X000860Y005936D01*
X000860Y006094D02*
X002994Y006094D01*
X002836Y006253D02*
X000860Y006253D01*
X000860Y006411D02*
X002677Y006411D01*
X002519Y006570D02*
X000860Y006570D01*
X000860Y006728D02*
X002470Y006728D01*
X002470Y006887D02*
X000860Y006887D01*
X000860Y007045D02*
X002470Y007045D01*
X002470Y007204D02*
X000860Y007204D01*
X000860Y007362D02*
X002470Y007362D01*
X002470Y007521D02*
X000860Y007521D01*
X000860Y007679D02*
X002470Y007679D01*
X002470Y007838D02*
X000860Y007838D01*
X000860Y007996D02*
X002470Y007996D01*
X002470Y008155D02*
X000860Y008155D01*
X000860Y008313D02*
X002470Y008313D01*
X002470Y008472D02*
X000860Y008472D01*
X000860Y008630D02*
X002470Y008630D01*
X002470Y008789D02*
X000860Y008789D01*
X000860Y008947D02*
X002470Y008947D01*
X002470Y009106D02*
X000860Y009106D01*
X000860Y009264D02*
X002470Y009264D01*
X002470Y009423D02*
X000860Y009423D01*
X000860Y009581D02*
X002470Y009581D01*
X002470Y009740D02*
X000860Y009740D01*
X000860Y009898D02*
X002470Y009898D01*
X002470Y010057D02*
X000860Y010057D01*
X000860Y010215D02*
X002470Y010215D01*
X002470Y010374D02*
X000860Y010374D01*
X000860Y010532D02*
X002470Y010532D01*
X002470Y010691D02*
X000860Y010691D01*
X000860Y010849D02*
X002470Y010849D01*
X002470Y011008D02*
X000860Y011008D01*
X000860Y011166D02*
X002470Y011166D01*
X002470Y011325D02*
X000860Y011325D01*
X000860Y011483D02*
X002470Y011483D01*
X002470Y011642D02*
X000860Y011642D01*
X000860Y011800D02*
X002470Y011800D01*
X002470Y011959D02*
X000860Y011959D01*
X000860Y012117D02*
X002470Y012117D01*
X002470Y012276D02*
X000860Y012276D01*
X000860Y012434D02*
X002470Y012434D01*
X002470Y012593D02*
X000860Y012593D01*
X000860Y012751D02*
X002470Y012751D01*
X002470Y012910D02*
X000860Y012910D01*
X000860Y013068D02*
X002470Y013068D01*
X002470Y013227D02*
X000860Y013227D01*
X000860Y013385D02*
X002470Y013385D01*
X002470Y013544D02*
X000860Y013544D01*
X000860Y013702D02*
X002470Y013702D01*
X002470Y013861D02*
X000860Y013861D01*
X000860Y014019D02*
X002470Y014019D01*
X002470Y014178D02*
X000860Y014178D01*
X000860Y014336D02*
X002470Y014336D01*
X002470Y014495D02*
X000860Y014495D01*
X000860Y014653D02*
X002470Y014653D01*
X002470Y014812D02*
X000860Y014812D01*
X000860Y014970D02*
X002470Y014970D01*
X002470Y015129D02*
X000860Y015129D01*
X000860Y015287D02*
X002470Y015287D01*
X002470Y015446D02*
X000860Y015446D01*
X000860Y015604D02*
X002470Y015604D01*
X002470Y015763D02*
X000860Y015763D01*
X000860Y015921D02*
X002470Y015921D01*
X002470Y016080D02*
X000860Y016080D01*
X000860Y016238D02*
X002470Y016238D01*
X002470Y016397D02*
X000860Y016397D01*
X000860Y016555D02*
X002470Y016555D01*
X002470Y016714D02*
X000860Y016714D01*
X000860Y016872D02*
X002470Y016872D01*
X002470Y017031D02*
X000860Y017031D01*
X000860Y017189D02*
X002470Y017189D01*
X002470Y017348D02*
X000860Y017348D01*
X000860Y017506D02*
X002470Y017506D01*
X002470Y017665D02*
X000860Y017665D01*
X000860Y017823D02*
X002470Y017823D01*
X002470Y017982D02*
X000860Y017982D01*
X000860Y018140D02*
X002470Y018140D01*
X002470Y018299D02*
X000860Y018299D01*
X000860Y018457D02*
X002470Y018457D01*
X002470Y018616D02*
X000860Y018616D01*
X000860Y018774D02*
X002470Y018774D01*
X002470Y018933D02*
X000860Y018933D01*
X000860Y019091D02*
X002470Y019091D01*
X002470Y019250D02*
X000860Y019250D01*
X000860Y019408D02*
X002470Y019408D01*
X002470Y019567D02*
X000860Y019567D01*
X000860Y019725D02*
X002470Y019725D01*
X002470Y019884D02*
X000860Y019884D01*
X000860Y020042D02*
X002470Y020042D01*
X002470Y020201D02*
X000860Y020201D01*
X000860Y020359D02*
X002470Y020359D01*
X002470Y020518D02*
X000860Y020518D01*
X000860Y020676D02*
X002470Y020676D01*
X002470Y020835D02*
X000860Y020835D01*
X000860Y020993D02*
X002470Y020993D01*
X002470Y021152D02*
X000860Y021152D01*
X000860Y021310D02*
X002470Y021310D01*
X002470Y021469D02*
X000860Y021469D01*
X000860Y021627D02*
X002470Y021627D01*
X002470Y021786D02*
X000860Y021786D01*
X000860Y021944D02*
X002470Y021944D01*
X002470Y022103D02*
X000860Y022103D01*
X000860Y022261D02*
X002470Y022261D01*
X002470Y022420D02*
X000860Y022420D01*
X000860Y022578D02*
X002470Y022578D01*
X002470Y022737D02*
X000860Y022737D01*
X000860Y022895D02*
X002470Y022895D01*
X002470Y023054D02*
X000860Y023054D01*
X000860Y023212D02*
X002470Y023212D01*
X002549Y023371D02*
X000860Y023371D01*
X000860Y023529D02*
X002707Y023529D01*
X002593Y023415D02*
X002593Y023415D01*
X002866Y023688D02*
X000860Y023688D01*
X000860Y023846D02*
X003024Y023846D01*
X003183Y024005D02*
X000860Y024005D01*
X000860Y024163D02*
X003341Y024163D01*
X003500Y024322D02*
X000860Y024322D01*
X000860Y024480D02*
X003658Y024480D01*
X003817Y024639D02*
X000860Y024639D01*
X000860Y024797D02*
X003975Y024797D01*
X004134Y024956D02*
X000860Y024956D01*
X000860Y025114D02*
X004292Y025114D01*
X004451Y025273D02*
X000860Y025273D01*
X000860Y025431D02*
X004609Y025431D01*
X004768Y025590D02*
X000860Y025590D01*
X000860Y025748D02*
X004926Y025748D01*
X005085Y025907D02*
X000860Y025907D01*
X000860Y026065D02*
X039500Y026065D01*
X039500Y025907D02*
X016775Y025907D01*
X016934Y025748D02*
X039500Y025748D01*
X039500Y025590D02*
X017092Y025590D01*
X017251Y025431D02*
X039500Y025431D01*
X039500Y025273D02*
X017409Y025273D01*
X017568Y025114D02*
X039500Y025114D01*
X039500Y024956D02*
X017726Y024956D01*
X017885Y024797D02*
X039500Y024797D01*
X039500Y024639D02*
X018043Y024639D01*
X018202Y024480D02*
X039500Y024480D01*
X039500Y024322D02*
X018360Y024322D01*
X019180Y023205D02*
X022680Y023205D01*
X024180Y021705D01*
X024180Y016205D01*
X025375Y015446D02*
X026985Y015446D01*
X026180Y016705D02*
X026180Y017705D01*
X026289Y018299D02*
X024390Y018299D01*
X024390Y018457D02*
X026131Y018457D01*
X025972Y018616D02*
X024390Y018616D01*
X024390Y018774D02*
X025814Y018774D01*
X025655Y018933D02*
X024390Y018933D01*
X024390Y019091D02*
X025497Y019091D01*
X025338Y019250D02*
X024390Y019250D01*
X024390Y019408D02*
X025092Y019408D01*
X024904Y019567D02*
X024390Y019567D01*
X024390Y019725D02*
X024872Y019725D01*
X024923Y019884D02*
X024390Y019884D01*
X025180Y019705D02*
X030180Y014705D01*
X030180Y008205D01*
X029970Y008313D02*
X025470Y008313D01*
X025470Y008155D02*
X029833Y008155D01*
X029674Y007996D02*
X025381Y007996D01*
X025223Y007838D02*
X029516Y007838D01*
X029357Y007679D02*
X025064Y007679D01*
X024906Y007521D02*
X029199Y007521D01*
X029040Y007362D02*
X013970Y007362D01*
X013970Y007204D02*
X028882Y007204D01*
X028723Y007045D02*
X013928Y007045D01*
X013799Y007996D02*
X024561Y007996D01*
X024719Y008155D02*
X013641Y008155D01*
X013482Y008313D02*
X024878Y008313D01*
X024890Y008472D02*
X013324Y008472D01*
X013165Y008630D02*
X024890Y008630D01*
X024890Y008789D02*
X013007Y008789D01*
X010372Y007679D02*
X005970Y007679D01*
X005970Y007521D02*
X010429Y007521D01*
X010470Y007362D02*
X005970Y007362D01*
X005970Y007204D02*
X010470Y007204D01*
X010470Y007045D02*
X005970Y007045D01*
X005970Y006887D02*
X010470Y006887D01*
X010470Y006728D02*
X006067Y006728D01*
X006226Y006570D02*
X010470Y006570D01*
X010470Y006411D02*
X006384Y006411D01*
X006543Y006253D02*
X010470Y006253D01*
X010494Y006094D02*
X006701Y006094D01*
X006860Y005936D02*
X010653Y005936D01*
X010811Y005777D02*
X007018Y005777D01*
X007177Y005619D02*
X010970Y005619D01*
X011128Y005460D02*
X007335Y005460D01*
X007494Y005302D02*
X011287Y005302D01*
X011445Y005143D02*
X007652Y005143D01*
X007811Y004985D02*
X039500Y004985D01*
X039500Y005143D02*
X027415Y005143D01*
X027573Y005302D02*
X039500Y005302D01*
X039500Y005460D02*
X027732Y005460D01*
X027890Y005619D02*
X039500Y005619D01*
X039500Y005777D02*
X028049Y005777D01*
X028207Y005936D02*
X039500Y005936D01*
X039500Y006094D02*
X028366Y006094D01*
X028524Y006253D02*
X039500Y006253D01*
X039500Y006411D02*
X032275Y006411D01*
X032085Y006411D02*
X028775Y006411D01*
X028957Y006570D02*
X031903Y006570D01*
X031872Y006728D02*
X029000Y006728D01*
X029158Y006887D02*
X031890Y006887D01*
X031890Y007045D02*
X029317Y007045D01*
X029475Y007204D02*
X031890Y007204D01*
X031890Y007362D02*
X029634Y007362D01*
X029792Y007521D02*
X031890Y007521D01*
X031890Y007679D02*
X029951Y007679D01*
X030109Y007838D02*
X031890Y007838D01*
X029970Y008472D02*
X025470Y008472D01*
X025470Y008630D02*
X029970Y008630D01*
X029970Y008789D02*
X025470Y008789D01*
X025470Y008947D02*
X029970Y008947D01*
X029970Y009106D02*
X025470Y009106D01*
X025470Y009264D02*
X029970Y009264D01*
X032488Y006728D02*
X039500Y006728D01*
X039500Y006570D02*
X032457Y006570D01*
X039500Y004826D02*
X007969Y004826D01*
X008128Y004668D02*
X039500Y004668D01*
X039500Y004509D02*
X008286Y004509D01*
X008445Y004351D02*
X039500Y004351D01*
X039500Y004192D02*
X008603Y004192D01*
X008762Y004034D02*
X010381Y004034D01*
X010505Y004085D02*
X010182Y003951D01*
X009934Y003703D01*
X009800Y003380D01*
X009800Y003030D01*
X009934Y002707D01*
X010182Y002459D01*
X010505Y002325D01*
X010855Y002325D01*
X011178Y002459D01*
X011426Y002707D01*
X011560Y003030D01*
X011560Y003380D01*
X011426Y003703D01*
X011178Y003951D01*
X010855Y004085D01*
X010505Y004085D01*
X010105Y003875D02*
X008920Y003875D01*
X008970Y003717D02*
X009947Y003717D01*
X009874Y003558D02*
X008970Y003558D01*
X008970Y003400D02*
X009808Y003400D01*
X009800Y003241D02*
X008970Y003241D01*
X008970Y003083D02*
X009800Y003083D01*
X009844Y002924D02*
X008970Y002924D01*
X009030Y002766D02*
X009910Y002766D01*
X010033Y002607D02*
X009188Y002607D01*
X009347Y002449D02*
X010207Y002449D01*
X009664Y002132D02*
X017196Y002132D01*
X017355Y002290D02*
X014851Y002290D01*
X014836Y002287D02*
X014938Y002310D01*
X015036Y002344D01*
X015131Y002390D01*
X015219Y002445D01*
X015301Y002510D01*
X015375Y002584D01*
X015440Y002666D01*
X015495Y002754D01*
X015541Y002849D01*
X015575Y002947D01*
X015598Y003049D01*
X015607Y003125D01*
X014760Y003125D01*
X014760Y003285D01*
X015607Y003285D01*
X015598Y003361D01*
X015575Y003463D01*
X015541Y003561D01*
X015495Y003656D01*
X015440Y003744D01*
X015375Y003826D01*
X015301Y003900D01*
X015219Y003965D01*
X015131Y004020D01*
X015036Y004066D01*
X014938Y004100D01*
X014836Y004123D01*
X014760Y004132D01*
X014760Y003285D01*
X014600Y003285D01*
X014600Y004132D01*
X014524Y004123D01*
X014422Y004100D01*
X014324Y004066D01*
X014229Y004020D01*
X014141Y003965D01*
X014059Y003900D01*
X013985Y003826D01*
X013920Y003744D01*
X013865Y003656D01*
X013819Y003561D01*
X013785Y003463D01*
X013762Y003361D01*
X013753Y003285D01*
X014600Y003285D01*
X014600Y003125D01*
X014760Y003125D01*
X014760Y002278D01*
X014836Y002287D01*
X014760Y002290D02*
X014600Y002290D01*
X014600Y002278D02*
X014600Y003125D01*
X013753Y003125D01*
X013762Y003049D01*
X013785Y002947D01*
X013819Y002849D01*
X013865Y002754D01*
X013920Y002666D01*
X013985Y002584D01*
X014059Y002510D01*
X014141Y002445D01*
X014229Y002390D01*
X014324Y002344D01*
X014422Y002310D01*
X014524Y002287D01*
X014600Y002278D01*
X014509Y002290D02*
X009505Y002290D01*
X009002Y001973D02*
X000860Y001973D01*
X000860Y001815D02*
X009160Y001815D01*
X009319Y001656D02*
X000860Y001656D01*
X000860Y001498D02*
X009477Y001498D01*
X008843Y002132D02*
X000860Y002132D01*
X000860Y002290D02*
X008685Y002290D01*
X008258Y003717D02*
X007413Y003717D01*
X007255Y003875D02*
X008100Y003875D01*
X007941Y004034D02*
X006979Y004034D01*
X006381Y004034D02*
X005648Y004034D01*
X005490Y004192D02*
X007783Y004192D01*
X007624Y004351D02*
X005331Y004351D01*
X005173Y004509D02*
X007466Y004509D01*
X007307Y004668D02*
X005014Y004668D01*
X004856Y004826D02*
X007149Y004826D01*
X006990Y004985D02*
X004697Y004985D01*
X004539Y005143D02*
X006832Y005143D01*
X006673Y005302D02*
X004380Y005302D01*
X004222Y005460D02*
X006515Y005460D01*
X006356Y005619D02*
X004063Y005619D01*
X003905Y005777D02*
X006198Y005777D01*
X006039Y005936D02*
X003746Y005936D01*
X003588Y006094D02*
X005881Y006094D01*
X005722Y006253D02*
X003429Y006253D01*
X003271Y006411D02*
X005564Y006411D01*
X005422Y006570D02*
X003112Y006570D01*
X002954Y006728D02*
X005390Y006728D01*
X005390Y006887D02*
X002890Y006887D01*
X002890Y007045D02*
X005390Y007045D01*
X005390Y007204D02*
X002890Y007204D01*
X002890Y007362D02*
X005390Y007362D01*
X005390Y007521D02*
X002890Y007521D01*
X002890Y007679D02*
X005390Y007679D01*
X005390Y007838D02*
X002890Y007838D01*
X002890Y007996D02*
X005390Y007996D01*
X005390Y008155D02*
X002890Y008155D01*
X002890Y008313D02*
X005390Y008313D01*
X005390Y008472D02*
X002890Y008472D01*
X002890Y008630D02*
X005390Y008630D01*
X005390Y008789D02*
X002890Y008789D01*
X002890Y008947D02*
X005390Y008947D01*
X005390Y009106D02*
X002890Y009106D01*
X002890Y009264D02*
X005390Y009264D01*
X005390Y009423D02*
X002890Y009423D01*
X002890Y009581D02*
X005390Y009581D01*
X005390Y009740D02*
X002890Y009740D01*
X002890Y009898D02*
X005390Y009898D01*
X005390Y010057D02*
X002890Y010057D01*
X002890Y010215D02*
X005390Y010215D01*
X005390Y010374D02*
X002890Y010374D01*
X002890Y010532D02*
X005390Y010532D01*
X005390Y010691D02*
X002890Y010691D01*
X002890Y010849D02*
X005390Y010849D01*
X005390Y011008D02*
X002890Y011008D01*
X002890Y011166D02*
X005390Y011166D01*
X005390Y011325D02*
X002890Y011325D01*
X002890Y011483D02*
X005390Y011483D01*
X005390Y011642D02*
X002890Y011642D01*
X002890Y011800D02*
X005390Y011800D01*
X005390Y011959D02*
X002890Y011959D01*
X002890Y012117D02*
X005390Y012117D01*
X005390Y012276D02*
X002890Y012276D01*
X002890Y012434D02*
X005390Y012434D01*
X005390Y012593D02*
X002890Y012593D01*
X002890Y012751D02*
X005390Y012751D01*
X005390Y012910D02*
X002890Y012910D01*
X002890Y013068D02*
X005390Y013068D01*
X005390Y013227D02*
X002890Y013227D01*
X002890Y013385D02*
X005390Y013385D01*
X005390Y013544D02*
X002890Y013544D01*
X002890Y013702D02*
X005390Y013702D01*
X005390Y013861D02*
X002890Y013861D01*
X002890Y014019D02*
X005390Y014019D01*
X005390Y014178D02*
X002890Y014178D01*
X002890Y014336D02*
X005390Y014336D01*
X005390Y014495D02*
X002890Y014495D01*
X002890Y014653D02*
X005390Y014653D01*
X005390Y014812D02*
X002890Y014812D01*
X002890Y014970D02*
X005390Y014970D01*
X005390Y015129D02*
X002890Y015129D01*
X002890Y015287D02*
X005390Y015287D01*
X005390Y015446D02*
X002890Y015446D01*
X002890Y015604D02*
X005390Y015604D01*
X005390Y015763D02*
X002890Y015763D01*
X002890Y015921D02*
X005390Y015921D01*
X005390Y016080D02*
X002890Y016080D01*
X002890Y016238D02*
X005390Y016238D01*
X005390Y016397D02*
X002890Y016397D01*
X002890Y016555D02*
X005390Y016555D01*
X005390Y016714D02*
X002890Y016714D01*
X002890Y016872D02*
X005390Y016872D01*
X005390Y017031D02*
X002890Y017031D01*
X002890Y017189D02*
X005390Y017189D01*
X005390Y017348D02*
X002890Y017348D01*
X002890Y017506D02*
X005390Y017506D01*
X005390Y017665D02*
X002890Y017665D01*
X002890Y017823D02*
X005390Y017823D01*
X005390Y017982D02*
X002890Y017982D01*
X002890Y018140D02*
X005390Y018140D01*
X005390Y018299D02*
X002890Y018299D01*
X002890Y018457D02*
X005390Y018457D01*
X005390Y018616D02*
X002890Y018616D01*
X002890Y018774D02*
X005390Y018774D01*
X005390Y018933D02*
X002890Y018933D01*
X002890Y019091D02*
X005390Y019091D01*
X005390Y019250D02*
X002890Y019250D01*
X002890Y019408D02*
X005390Y019408D01*
X005390Y019567D02*
X002890Y019567D01*
X002890Y019725D02*
X005390Y019725D01*
X005390Y019884D02*
X002890Y019884D01*
X002890Y020042D02*
X005390Y020042D01*
X005390Y020201D02*
X002890Y020201D01*
X002890Y020359D02*
X005390Y020359D01*
X005390Y020518D02*
X002890Y020518D01*
X002890Y020676D02*
X005390Y020676D01*
X005390Y020835D02*
X002890Y020835D01*
X002890Y020993D02*
X005390Y020993D01*
X005390Y021152D02*
X002890Y021152D01*
X002890Y021310D02*
X005390Y021310D01*
X005390Y021469D02*
X002890Y021469D01*
X002890Y021627D02*
X005390Y021627D01*
X005390Y021786D02*
X002890Y021786D01*
X002890Y021944D02*
X005390Y021944D01*
X005390Y022103D02*
X002890Y022103D01*
X002890Y022261D02*
X005390Y022261D01*
X005390Y022420D02*
X002890Y022420D01*
X002890Y022578D02*
X005390Y022578D01*
X005390Y022737D02*
X002890Y022737D01*
X002890Y022895D02*
X005390Y022895D01*
X005390Y023054D02*
X002890Y023054D01*
X002984Y023212D02*
X005390Y023212D01*
X005390Y023371D02*
X003143Y023371D01*
X003301Y023529D02*
X005390Y023529D01*
X005390Y023688D02*
X003460Y023688D01*
X003618Y023846D02*
X005390Y023846D01*
X005390Y024005D02*
X003777Y024005D01*
X003935Y024163D02*
X005390Y024163D01*
X005414Y024322D02*
X004094Y024322D01*
X004252Y024480D02*
X005545Y024480D01*
X005703Y024639D02*
X004411Y024639D01*
X004569Y024797D02*
X005862Y024797D01*
X006020Y024956D02*
X004728Y024956D01*
X004886Y025114D02*
X006179Y025114D01*
X006337Y025273D02*
X005045Y025273D01*
X005203Y025431D02*
X006496Y025431D01*
X006682Y024797D02*
X008678Y024797D01*
X008836Y024639D02*
X006524Y024639D01*
X006365Y024480D02*
X008890Y024480D01*
X008890Y024322D02*
X006207Y024322D01*
X006048Y024163D02*
X008890Y024163D01*
X008890Y024005D02*
X005970Y024005D01*
X005970Y023846D02*
X008890Y023846D01*
X008890Y023688D02*
X005970Y023688D01*
X005970Y023529D02*
X008890Y023529D01*
X008890Y023371D02*
X005970Y023371D01*
X005970Y023212D02*
X008890Y023212D01*
X008890Y023054D02*
X005970Y023054D01*
X005970Y022895D02*
X007934Y022895D01*
X007872Y022737D02*
X005970Y022737D01*
X005970Y022578D02*
X007899Y022578D01*
X007970Y022420D02*
X005970Y022420D01*
X005970Y022261D02*
X007970Y022261D01*
X007970Y022103D02*
X005970Y022103D01*
X005970Y021944D02*
X007970Y021944D01*
X007970Y021786D02*
X005970Y021786D01*
X005970Y021627D02*
X007970Y021627D01*
X007970Y021469D02*
X005970Y021469D01*
X005970Y021310D02*
X007970Y021310D01*
X007970Y021152D02*
X005970Y021152D01*
X005970Y020993D02*
X007970Y020993D01*
X007970Y020835D02*
X005970Y020835D01*
X005970Y020676D02*
X007970Y020676D01*
X007970Y020518D02*
X005970Y020518D01*
X005970Y020359D02*
X007970Y020359D01*
X007970Y020201D02*
X005970Y020201D01*
X005970Y020042D02*
X007970Y020042D01*
X007970Y019884D02*
X005970Y019884D01*
X005970Y019725D02*
X007970Y019725D01*
X007970Y019567D02*
X005970Y019567D01*
X005970Y019408D02*
X007970Y019408D01*
X007970Y019250D02*
X005970Y019250D01*
X005970Y019091D02*
X007970Y019091D01*
X007970Y018933D02*
X005970Y018933D01*
X005970Y018774D02*
X007970Y018774D01*
X007972Y018616D02*
X005970Y018616D01*
X005970Y018457D02*
X006996Y018457D01*
X006885Y018299D02*
X005970Y018299D01*
X005970Y018140D02*
X006873Y018140D01*
X006968Y017982D02*
X005970Y017982D01*
X005970Y017823D02*
X006970Y017823D01*
X006970Y017665D02*
X005970Y017665D01*
X005970Y017506D02*
X006970Y017506D01*
X006970Y017348D02*
X005970Y017348D01*
X005970Y017189D02*
X006970Y017189D01*
X006970Y017031D02*
X005970Y017031D01*
X005970Y016872D02*
X006970Y016872D01*
X006970Y016714D02*
X005970Y016714D01*
X005970Y016555D02*
X006970Y016555D01*
X006970Y016397D02*
X005970Y016397D01*
X005970Y016238D02*
X006970Y016238D01*
X006970Y016080D02*
X005970Y016080D01*
X005970Y015921D02*
X006970Y015921D01*
X006970Y015763D02*
X005970Y015763D01*
X005970Y015604D02*
X006970Y015604D01*
X006970Y015446D02*
X005970Y015446D01*
X005970Y015287D02*
X006970Y015287D01*
X006970Y015129D02*
X005970Y015129D01*
X005970Y014970D02*
X006970Y014970D01*
X006970Y014812D02*
X005970Y014812D01*
X005970Y014653D02*
X006970Y014653D01*
X006970Y014495D02*
X005970Y014495D01*
X005970Y014336D02*
X006970Y014336D01*
X006970Y014178D02*
X005970Y014178D01*
X005970Y014019D02*
X006970Y014019D01*
X006970Y013861D02*
X005970Y013861D01*
X005970Y013702D02*
X006970Y013702D01*
X006970Y013544D02*
X005970Y013544D01*
X005970Y013385D02*
X006970Y013385D01*
X006970Y013227D02*
X005970Y013227D01*
X005970Y013068D02*
X006970Y013068D01*
X006970Y012910D02*
X005970Y012910D01*
X005970Y012751D02*
X006970Y012751D01*
X006970Y012593D02*
X005970Y012593D01*
X005970Y012434D02*
X006970Y012434D01*
X006970Y012276D02*
X005970Y012276D01*
X005970Y012117D02*
X006970Y012117D01*
X006970Y011959D02*
X005970Y011959D01*
X005970Y011800D02*
X006970Y011800D01*
X006970Y011642D02*
X005970Y011642D01*
X005970Y011483D02*
X006970Y011483D01*
X006970Y011325D02*
X005970Y011325D01*
X005970Y011166D02*
X006970Y011166D01*
X007080Y011008D02*
X005970Y011008D01*
X005970Y010849D02*
X007239Y010849D01*
X007397Y010691D02*
X005970Y010691D01*
X005970Y010532D02*
X007556Y010532D01*
X007714Y010374D02*
X005970Y010374D01*
X005970Y010215D02*
X007873Y010215D01*
X008031Y010057D02*
X005970Y010057D01*
X005970Y009898D02*
X008190Y009898D01*
X008349Y009740D02*
X005970Y009740D01*
X005970Y009581D02*
X008507Y009581D01*
X008666Y009423D02*
X005970Y009423D01*
X005970Y009264D02*
X008824Y009264D01*
X008983Y009106D02*
X005970Y009106D01*
X005970Y008947D02*
X009141Y008947D01*
X009300Y008789D02*
X005970Y008789D01*
X005970Y008630D02*
X009458Y008630D01*
X009617Y008472D02*
X005970Y008472D01*
X005970Y008313D02*
X009775Y008313D01*
X009934Y008155D02*
X005970Y008155D01*
X005970Y007996D02*
X010092Y007996D01*
X010251Y007838D02*
X005970Y007838D01*
X010890Y006411D02*
X011450Y006411D01*
X011372Y006253D02*
X010929Y006253D01*
X010979Y004034D02*
X014257Y004034D01*
X014035Y003875D02*
X011255Y003875D01*
X011413Y003717D02*
X013903Y003717D01*
X013818Y003558D02*
X011486Y003558D01*
X011552Y003400D02*
X013770Y003400D01*
X013758Y003083D02*
X011560Y003083D01*
X011560Y003241D02*
X014600Y003241D01*
X014600Y003083D02*
X014760Y003083D01*
X014760Y003241D02*
X017800Y003241D01*
X017800Y003083D02*
X015602Y003083D01*
X015567Y002924D02*
X017844Y002924D01*
X017830Y002766D02*
X015501Y002766D01*
X015393Y002607D02*
X017672Y002607D01*
X017513Y002449D02*
X015223Y002449D01*
X014760Y002449D02*
X014600Y002449D01*
X014600Y002607D02*
X014760Y002607D01*
X014760Y002766D02*
X014600Y002766D01*
X014600Y002924D02*
X014760Y002924D01*
X014760Y003400D02*
X014600Y003400D01*
X014600Y003558D02*
X014760Y003558D01*
X014760Y003717D02*
X014600Y003717D01*
X014600Y003875D02*
X014760Y003875D01*
X014760Y004034D02*
X014600Y004034D01*
X015103Y004034D02*
X018381Y004034D01*
X018105Y003875D02*
X015325Y003875D01*
X015457Y003717D02*
X017947Y003717D01*
X017874Y003558D02*
X015542Y003558D01*
X015590Y003400D02*
X017808Y003400D01*
X018979Y004034D02*
X039500Y004034D01*
X039500Y003875D02*
X019255Y003875D01*
X019413Y003717D02*
X039500Y003717D01*
X039500Y003558D02*
X019486Y003558D01*
X019552Y003400D02*
X039500Y003400D01*
X039500Y003241D02*
X019560Y003241D01*
X019560Y003083D02*
X039500Y003083D01*
X039500Y002924D02*
X019516Y002924D01*
X019450Y002766D02*
X039500Y002766D01*
X039500Y002607D02*
X019327Y002607D01*
X019153Y002449D02*
X039500Y002449D01*
X039500Y002290D02*
X018175Y002290D01*
X018017Y002132D02*
X039500Y002132D01*
X039500Y001973D02*
X017858Y001973D01*
X017700Y001815D02*
X039500Y001815D01*
X039500Y001656D02*
X017541Y001656D01*
X017383Y001498D02*
X039500Y001498D01*
X039500Y001339D02*
X000860Y001339D01*
X000860Y001181D02*
X039500Y001181D01*
X039500Y001022D02*
X000860Y001022D01*
X000860Y000885D02*
X000860Y026525D01*
X039500Y026525D01*
X039500Y000885D01*
X000860Y000885D01*
X000860Y002449D02*
X002207Y002449D01*
X002033Y002607D02*
X000860Y002607D01*
X000860Y002766D02*
X001910Y002766D01*
X001844Y002924D02*
X000860Y002924D01*
X000860Y003083D02*
X001800Y003083D01*
X001800Y003241D02*
X000860Y003241D01*
X000860Y003400D02*
X001808Y003400D01*
X001874Y003558D02*
X000860Y003558D01*
X000860Y003717D02*
X001947Y003717D01*
X002105Y003875D02*
X000860Y003875D01*
X005807Y003875D02*
X006105Y003875D01*
X011153Y002449D02*
X014137Y002449D01*
X013967Y002607D02*
X011327Y002607D01*
X011450Y002766D02*
X013859Y002766D01*
X013793Y002924D02*
X011516Y002924D01*
X018358Y008947D02*
X024890Y008947D01*
X016970Y012276D02*
X007390Y012276D01*
X007390Y012434D02*
X016970Y012434D01*
X016970Y012593D02*
X007390Y012593D01*
X007390Y012751D02*
X016970Y012751D01*
X016970Y012910D02*
X007390Y012910D01*
X007390Y013068D02*
X016970Y013068D01*
X016970Y013227D02*
X007390Y013227D01*
X007390Y013385D02*
X016970Y013385D01*
X016970Y013544D02*
X007390Y013544D01*
X007390Y013702D02*
X016970Y013702D01*
X016970Y013861D02*
X007390Y013861D01*
X007390Y014019D02*
X016970Y014019D01*
X016970Y014178D02*
X007390Y014178D01*
X007390Y014336D02*
X016970Y014336D01*
X016970Y014495D02*
X007390Y014495D01*
X007390Y014653D02*
X016970Y014653D01*
X016970Y014812D02*
X007390Y014812D01*
X007390Y014970D02*
X016970Y014970D01*
X016959Y015129D02*
X007390Y015129D01*
X007390Y015287D02*
X016801Y015287D01*
X016642Y015446D02*
X007390Y015446D01*
X007390Y015604D02*
X013984Y015604D01*
X013825Y015763D02*
X007390Y015763D01*
X007390Y015921D02*
X013667Y015921D01*
X013508Y016080D02*
X007390Y016080D01*
X007390Y016238D02*
X013350Y016238D01*
X013191Y016397D02*
X007390Y016397D01*
X007390Y016555D02*
X012909Y016555D01*
X013488Y016714D02*
X021362Y016714D01*
X021470Y016872D02*
X013444Y016872D01*
X013627Y016555D02*
X021203Y016555D01*
X021045Y016397D02*
X013785Y016397D01*
X013944Y016238D02*
X020886Y016238D01*
X020728Y016080D02*
X014102Y016080D01*
X014261Y015921D02*
X020569Y015921D01*
X020411Y015763D02*
X016919Y015763D01*
X017078Y015604D02*
X020252Y015604D01*
X020094Y015446D02*
X017236Y015446D01*
X017390Y015287D02*
X019935Y015287D01*
X019777Y015129D02*
X017390Y015129D01*
X017390Y014970D02*
X019618Y014970D01*
X019460Y014812D02*
X017390Y014812D01*
X017390Y014653D02*
X019301Y014653D01*
X019143Y014495D02*
X017390Y014495D01*
X019180Y014235D02*
X021680Y016735D01*
X021680Y018205D01*
X019680Y020205D01*
X017180Y020205D01*
X016872Y020201D02*
X010390Y020201D01*
X010390Y020359D02*
X016910Y020359D01*
X016914Y020042D02*
X010390Y020042D01*
X010437Y019884D02*
X019704Y019884D01*
X019863Y019725D02*
X010488Y019725D01*
X010456Y019567D02*
X020021Y019567D01*
X020180Y019408D02*
X018913Y019408D01*
X018988Y019250D02*
X020338Y019250D01*
X020497Y019091D02*
X018966Y019091D01*
X018827Y018933D02*
X020655Y018933D01*
X024390Y021152D02*
X025436Y021152D01*
X025278Y021310D02*
X024390Y021310D01*
X024390Y021469D02*
X025119Y021469D01*
X024961Y021627D02*
X024390Y021627D01*
X024390Y021786D02*
X024802Y021786D01*
X024644Y021944D02*
X024238Y021944D01*
X024079Y022103D02*
X024485Y022103D01*
X024327Y022261D02*
X023921Y022261D01*
X023762Y022420D02*
X024168Y022420D01*
X024010Y022578D02*
X023604Y022578D01*
X023445Y022737D02*
X023851Y022737D01*
X023693Y022895D02*
X023287Y022895D01*
X023128Y023054D02*
X023534Y023054D01*
X023376Y023212D02*
X022970Y023212D01*
X022890Y023292D02*
X022890Y023292D01*
X022811Y023371D02*
X023217Y023371D01*
X023494Y023688D02*
X039500Y023688D01*
X039500Y023846D02*
X023336Y023846D01*
X023653Y023529D02*
X039500Y023529D01*
X039500Y023371D02*
X023811Y023371D01*
X023970Y023212D02*
X039500Y023212D01*
X039500Y023054D02*
X024128Y023054D01*
X024287Y022895D02*
X028934Y022895D01*
X028919Y022880D02*
X028872Y022766D01*
X028872Y022644D01*
X028919Y022530D01*
X029005Y022444D01*
X029119Y022397D01*
X029241Y022397D01*
X029355Y022444D01*
X029406Y022495D01*
X032454Y022495D01*
X032505Y022444D01*
X032619Y022397D01*
X032741Y022397D01*
X032855Y022444D01*
X032941Y022530D01*
X032988Y022644D01*
X032988Y022766D01*
X032941Y022880D01*
X032855Y022966D01*
X032741Y023013D01*
X032619Y023013D01*
X032505Y022966D01*
X032454Y022915D01*
X029406Y022915D01*
X029355Y022966D01*
X029241Y023013D01*
X029119Y023013D01*
X029005Y022966D01*
X028919Y022880D01*
X028872Y022737D02*
X024445Y022737D01*
X024604Y022578D02*
X028899Y022578D01*
X029064Y022420D02*
X024762Y022420D01*
X024921Y022261D02*
X039500Y022261D01*
X039500Y022103D02*
X025079Y022103D01*
X025238Y021944D02*
X039500Y021944D01*
X039500Y021786D02*
X025396Y021786D01*
X025555Y021627D02*
X039500Y021627D01*
X039500Y021469D02*
X025713Y021469D01*
X025872Y021310D02*
X039500Y021310D01*
X039500Y021152D02*
X026030Y021152D01*
X026189Y020993D02*
X039500Y020993D01*
X039500Y020835D02*
X026347Y020835D01*
X026506Y020676D02*
X039500Y020676D01*
X039500Y020518D02*
X026664Y020518D01*
X026823Y020359D02*
X039500Y020359D01*
X039500Y020201D02*
X026981Y020201D01*
X027140Y020042D02*
X039500Y020042D01*
X039500Y019884D02*
X027298Y019884D01*
X027457Y019725D02*
X039500Y019725D01*
X039500Y019567D02*
X027615Y019567D01*
X027774Y019408D02*
X039500Y019408D01*
X039500Y019250D02*
X027932Y019250D01*
X028091Y019091D02*
X039500Y019091D01*
X039500Y018933D02*
X028249Y018933D01*
X028408Y018774D02*
X039500Y018774D01*
X039500Y018616D02*
X028566Y018616D01*
X029296Y022420D02*
X032564Y022420D01*
X032796Y022420D02*
X039500Y022420D01*
X039500Y022578D02*
X032961Y022578D01*
X032988Y022737D02*
X039500Y022737D01*
X039500Y022895D02*
X032926Y022895D01*
X032680Y022705D02*
X029180Y022705D01*
X039500Y026224D02*
X000860Y026224D01*
X000860Y026382D02*
X039500Y026382D01*
X016815Y025273D02*
X009023Y025273D01*
X008926Y025369D02*
X008926Y025369D01*
X008864Y025431D02*
X016657Y025431D01*
X011180Y024705D02*
X011180Y021205D01*
X009970Y021152D02*
X009470Y021152D01*
X009470Y021310D02*
X009970Y021310D01*
X009970Y021469D02*
X009470Y021469D01*
X009470Y021627D02*
X009970Y021627D01*
X009970Y021786D02*
X009470Y021786D01*
X009470Y021944D02*
X009970Y021944D01*
X009970Y022103D02*
X009470Y022103D01*
X009470Y022261D02*
X009970Y022261D01*
X009970Y022420D02*
X009470Y022420D01*
X009470Y022578D02*
X009899Y022578D01*
X009872Y022737D02*
X009470Y022737D01*
X009470Y022895D02*
X009934Y022895D01*
X010180Y022705D02*
X010180Y019705D01*
X009872Y019725D02*
X009570Y019725D01*
X009470Y019884D02*
X009923Y019884D01*
X009970Y020042D02*
X009470Y020042D01*
X009470Y020201D02*
X009970Y020201D01*
X009970Y020359D02*
X009470Y020359D01*
X009470Y020518D02*
X009970Y020518D01*
X009970Y020676D02*
X009470Y020676D01*
X009470Y020835D02*
X009970Y020835D01*
X009970Y020993D02*
X009470Y020993D01*
X009729Y019567D02*
X009904Y019567D01*
X008131Y018457D02*
X007364Y018457D01*
X007475Y018299D02*
X008289Y018299D01*
X008448Y018140D02*
X007487Y018140D01*
X007419Y017031D02*
X007390Y017031D01*
X008488Y022737D02*
X008890Y022737D01*
X008890Y022895D02*
X008426Y022895D01*
X033180Y012205D02*
X037180Y012205D01*
X037387Y012434D02*
X039500Y012434D01*
X039500Y012276D02*
X037484Y012276D01*
X037477Y012117D02*
X039500Y012117D01*
X039500Y011959D02*
X037369Y011959D01*
X036991Y011959D02*
X033369Y011959D01*
X033387Y012434D02*
X036973Y012434D01*
D14*
X029180Y011705D02*
X025680Y011705D01*
X026180Y010705D02*
X024928Y010705D01*
X022554Y008331D01*
X017054Y008331D01*
X015180Y010205D01*
X013180Y010205D01*
X015180Y010205D02*
X015180Y014705D01*
X011180Y011705D02*
X011180Y010205D01*
X013680Y007705D01*
X013680Y007205D01*
X012680Y006205D01*
X012680Y007205D02*
X010180Y009705D01*
X013680Y007705D02*
X024680Y007705D01*
X025180Y008205D01*
X025180Y009705D01*
X026180Y010705D02*
X027180Y009705D01*
X029180Y009705D01*
X032180Y006705D02*
X032180Y017205D01*
X031180Y018205D01*
X032180Y019705D02*
X031515Y020370D01*
X031515Y020870D01*
X021680Y022705D02*
X019680Y020705D01*
X019180Y020705D01*
X015680Y020705D01*
X015680Y020205D01*
X015680Y020705D02*
X014680Y020705D01*
X013180Y022205D01*
X013180Y024705D01*
X012680Y025205D01*
X010680Y025205D01*
X010180Y024705D01*
X009180Y024705D02*
X008680Y025205D01*
X006680Y025205D01*
X005680Y024205D01*
X005680Y006705D01*
X008680Y003705D01*
X008680Y002705D01*
X009680Y001705D01*
X017180Y001705D01*
X018680Y003205D01*
X018680Y019205D02*
X011180Y019205D01*
X009680Y019205D01*
X009180Y019705D01*
X009180Y024705D01*
M02*
