G75*
%MOIN*%
%OFA0B0*%
%FSLAX24Y24*%
%IPPOS*%
%LPD*%
%AMOC8*
5,1,8,0,0,1.08239X$1,22.5*
%
%ADD10C,0.0000*%
%ADD11R,0.0220X0.0780*%
%ADD12R,0.0394X0.0433*%
%ADD13R,0.0591X0.0630*%
%ADD14R,0.0472X0.0472*%
%ADD15R,0.0551X0.0394*%
%ADD16R,0.1000X0.1000*%
%ADD17R,0.0394X0.0551*%
D10*
X000680Y000705D02*
X039680Y000705D01*
X039680Y026705D01*
X000680Y026705D01*
X000680Y026701D02*
X000680Y000705D01*
D11*
X008680Y014235D03*
X009180Y014235D03*
X009680Y014235D03*
X010180Y014235D03*
X010680Y014235D03*
X011180Y014235D03*
X011680Y014235D03*
X011680Y016175D03*
X011180Y016175D03*
X010680Y016175D03*
X010180Y016175D03*
X009680Y016175D03*
X009180Y016175D03*
X008680Y016175D03*
X018680Y016175D03*
X019180Y016175D03*
X019680Y016175D03*
X020180Y016175D03*
X020680Y016175D03*
X021180Y016175D03*
X021680Y016175D03*
X021680Y014235D03*
X021180Y014235D03*
X020680Y014235D03*
X020180Y014235D03*
X019680Y014235D03*
X019180Y014235D03*
X018680Y014235D03*
X029680Y014235D03*
X030180Y014235D03*
X030680Y014235D03*
X031180Y014235D03*
X031680Y014235D03*
X032180Y014235D03*
X032680Y014235D03*
X032680Y016175D03*
X032180Y016175D03*
X031680Y016175D03*
X031180Y016175D03*
X030680Y016175D03*
X030180Y016175D03*
X029680Y016175D03*
D12*
X030180Y018370D03*
X030180Y019040D03*
X028180Y019040D03*
X028180Y018370D03*
X026180Y018370D03*
X026180Y019040D03*
X024180Y019040D03*
X024180Y018370D03*
X022180Y018370D03*
X022180Y019040D03*
X020180Y019040D03*
X020180Y018370D03*
X020180Y020870D03*
X020180Y021540D03*
X022180Y021540D03*
X022180Y020870D03*
X018180Y020870D03*
X018180Y021540D03*
X018180Y023370D03*
X018180Y024040D03*
X014180Y024040D03*
X014180Y023370D03*
X012180Y023370D03*
X012180Y024040D03*
X010180Y024040D03*
X010180Y023370D03*
X008180Y023370D03*
X008180Y024040D03*
X006180Y024040D03*
X006180Y023370D03*
X004180Y021540D03*
X004180Y020870D03*
X008180Y020870D03*
X008180Y021540D03*
X010180Y021540D03*
X010180Y020870D03*
X012180Y020870D03*
X012180Y021540D03*
X014180Y021540D03*
X014180Y020870D03*
X014180Y019040D03*
X014180Y018370D03*
X012180Y018370D03*
X012180Y019040D03*
X008180Y019040D03*
X008180Y018370D03*
X014180Y014040D03*
X014180Y013370D03*
X016180Y013370D03*
X016180Y014040D03*
X016180Y011540D03*
X016180Y010870D03*
X014180Y010870D03*
X014180Y011540D03*
X012180Y011540D03*
X012180Y010870D03*
X010180Y010870D03*
X010180Y011540D03*
X008180Y011540D03*
X008180Y010870D03*
X006180Y010870D03*
X006180Y011540D03*
X006180Y009040D03*
X006180Y008370D03*
X008180Y008370D03*
X008180Y009040D03*
X012180Y009040D03*
X012180Y008370D03*
X014180Y008370D03*
X014180Y009040D03*
X016180Y009040D03*
X016180Y008370D03*
X020180Y008370D03*
X020180Y009040D03*
X018180Y010870D03*
X018180Y011540D03*
X024180Y013370D03*
X024180Y014040D03*
X028180Y011540D03*
X028180Y010870D03*
X030180Y010870D03*
X030180Y011540D03*
X032180Y011540D03*
X032180Y010870D03*
X034180Y010870D03*
X034180Y011540D03*
X036180Y011540D03*
X036180Y010870D03*
X038180Y010870D03*
X038180Y011540D03*
X036180Y013370D03*
X036180Y014040D03*
X036180Y015870D03*
X036180Y016540D03*
X034180Y016540D03*
X034180Y015870D03*
X034180Y018370D03*
X034180Y019040D03*
X032180Y019040D03*
X032180Y018370D03*
X036180Y018370D03*
X036180Y019040D03*
X034180Y020870D03*
X034180Y021540D03*
X030180Y021540D03*
X030180Y020870D03*
X028180Y020870D03*
X028180Y021540D03*
X026180Y021540D03*
X026180Y020870D03*
X028180Y009040D03*
X028180Y008370D03*
X030180Y008370D03*
X030180Y009040D03*
X032180Y009040D03*
X032180Y008370D03*
X034180Y008370D03*
X034180Y009040D03*
X036180Y009040D03*
X036180Y008370D03*
D13*
X032180Y004796D03*
X028680Y004796D03*
X025180Y004796D03*
X021680Y004796D03*
D14*
X021286Y003486D03*
X022074Y003486D03*
X024786Y003486D03*
X025574Y003486D03*
X028286Y003486D03*
X029074Y003486D03*
X031786Y003486D03*
X032574Y003486D03*
D15*
X025747Y008331D03*
X026613Y008705D03*
X025747Y009079D03*
X010613Y009079D03*
X009747Y008705D03*
X010613Y008331D03*
X024613Y020831D03*
X024613Y021579D03*
X023747Y021205D03*
D16*
X016180Y021280D03*
X016180Y023130D03*
D17*
X006554Y019138D03*
X005806Y019138D03*
X006180Y018272D03*
M02*
