%
M48
M72
T01C0.0236
T02C0.0787
%
T01
X11680Y6205
X12680Y6205
X12680Y7205
X10680Y7705
X10180Y9705
X13180Y10205
X11180Y11705
X15180Y14705
X18680Y13205
X21680Y12705
X25180Y13705
X25180Y15205
X27180Y15205
X26180Y16705
X26180Y17705
X25180Y19705
X23680Y20205
X19180Y20705
X17180Y20205
X15680Y20205
X18680Y19205
X20680Y17705
X13180Y16705
X10680Y18205
X11180Y19205
X10180Y19705
X7180Y18205
X7680Y17205
X11180Y21205
X13180Y22205
X10180Y22705
X8180Y22705
X10180Y24705
X11180Y24705
X20180Y23705
X21680Y22705
X25680Y22705
X29180Y22705
X31515Y20870
X32180Y19705
X31180Y18205
X32680Y22705
X33180Y12205
X37180Y12205
X31180Y9705
X29180Y9705
X29180Y11705
X25680Y11705
X25180Y9705
X22554Y8331
X20680Y10205
X18680Y10205
X17180Y9705
X18180Y9205
X17680Y6705
X28680Y6705
X32180Y6705
T02
X18680Y3205
X14680Y3205
X10680Y3205
X6680Y3205
X2680Y3205
M30
